{
.appVersion = "1184";
DisplayStrings = (
j
);
customParameters = (
{
name = glyphOrder;
value = (
A,
B,
C,
D,
E,
F,
G,
H,
I,
J,
K,
L,
M,
N,
O,
P,
Q,
R,
S,
T,
U,
V,
W,
X,
Y,
Z,
a,
b,
c,
d,
e,
f,
g,
h,
i,
j,
k,
l,
m,
n,
o,
p,
q,
r,
s,
t,
u,
v,
w,
x,
y,
z
);
}
);
date = "2018-12-16 21:30:11 +0000";
disablesNiceNames = 1;
familyName = "CrimsonText-Regular jlb 10-Bold_Sup_LCUP";
fontMaster = (
{
ascender = 658;
capHeight = 658;
descender = -223;
id = master01;
xHeight = 431;
}
);
glyphs = (
{
glyphname = A;
lastChange = "2018-12-16 21:30:42 +0000";
layers = (
{
anchors = (
{
name = bottom;
position = "{218, 0}";
},
{
name = ogonek;
position = "{435, 6}";
},
{
name = top;
position = "{218, 413}";
}
);
layerId = master01;
paths = (
{
closed = 1;
nodes = (
"40 1 OFFCURVE",
"62 3 OFFCURVE",
"74 3 CURVE SMOOTH",
"82 3 OFFCURVE",
"99 2 OFFCURVE",
"146 -3 CURVE",
"147 0 OFFCURVE",
"148 5 OFFCURVE",
"148 11 CURVE SMOOTH",
"148 18 OFFCURVE",
"147 21 OFFCURVE",
"146 21 CURVE SMOOTH",
"128 21 OFFCURVE",
"119 24 OFFCURVE",
"108 31 CURVE SMOOTH",
"103 34 OFFCURVE",
"99 40 OFFCURVE",
"99 45 CURVE SMOOTH",
"99 55 OFFCURVE",
"105 66 OFFCURVE",
"112 82 CURVE SMOOTH",
"133 131 LINE",
"198 131 LINE SMOOTH",
"232 131 OFFCURVE",
"256 131 OFFCURVE",
"263 130 CURVE",
"282 86 LINE SMOOTH",
"294 57 OFFCURVE",
"298 48 OFFCURVE",
"298 42 CURVE SMOOTH",
"298 37 OFFCURVE",
"294 32 OFFCURVE",
"288 29 CURVE",
"279 24 OFFCURVE",
"266 21 OFFCURVE",
"255 21 CURVE SMOOTH",
"253 21 OFFCURVE",
"253 18 OFFCURVE",
"253 11 CURVE SMOOTH",
"253 4 OFFCURVE",
"253 -1 OFFCURVE",
"255 -3 CURVE",
"353 3 LINE",
"374 3 OFFCURVE",
"415 0 OFFCURVE",
"447 -3 CURVE",
"447 -2 OFFCURVE",
"448 3 OFFCURVE",
"448 11 CURVE SMOOTH",
"448 18 OFFCURVE",
"447 21 OFFCURVE",
"445 21 CURVE SMOOTH",
"433 21 OFFCURVE",
"404 29 OFFCURVE",
"398 42 CURVE",
"393 58 OFFCURVE",
"385 75 OFFCURVE",
"377 94 CURVE SMOOTH",
"248 412 LINE",
"245 418 OFFCURVE",
"239 420 OFFCURVE",
"232 420 CURVE SMOOTH",
"222 420 OFFCURVE",
"213 414 OFFCURVE",
"209 404 CURVE SMOOTH",
"64 75 LINE",
"60 68 OFFCURVE",
"52 52 OFFCURVE",
"47 42 CURVE",
"41 32 OFFCURVE",
"8 21 OFFCURVE",
"-2 21 CURVE SMOOTH",
"-3 21 OFFCURVE",
"-3 16 OFFCURVE",
"-3 7 CURVE SMOOTH",
"-3 2 OFFCURVE",
"-3 -1 OFFCURVE",
"-1 -3 CURVE"
);
},
{
closed = 1;
nodes = (
"181 169 OFFCURVE",
"163 170 OFFCURVE",
"152 171 CURVE",
"213 308 LINE",
"190 309 LINE",
"247 171 LINE",
"235 170 OFFCURVE",
"218 169 OFFCURVE",
"201 169 CURVE SMOOTH"
);
}
);
width = 444;
}
);
unicode = 0041;
},
{
glyphname = B;
lastChange = "2018-12-16 21:30:42 +0000";
layers = (
{
anchors = (
{
name = bottom;
position = "{194, 0}";
},
{
name = top;
position = "{194, 413}";
}
);
layerId = master01;
paths = (
{
closed = 1;
nodes = (
"71 1 OFFCURVE",
"93 1 OFFCURVE",
"116 1 CURVE SMOOTH",
"145 1 OFFCURVE",
"174 0 OFFCURVE",
"203 0 CURVE SMOOTH",
"311 0 OFFCURVE",
"381 50 OFFCURVE",
"381 124 CURVE SMOOTH",
"381 180 OFFCURVE",
"342 215 OFFCURVE",
"271 222 CURVE",
"263 214 LINE",
"318 228 OFFCURVE",
"352 267 OFFCURVE",
"352 318 CURVE SMOOTH",
"352 378 OFFCURVE",
"298 415 OFFCURVE",
"213 415 CURVE SMOOTH",
"179 414 OFFCURVE",
"146 414 OFFCURVE",
"115 414 CURVE SMOOTH",
"94 414 OFFCURVE",
"69 415 OFFCURVE",
"21 417 CURVE",
"20 416 OFFCURVE",
"19 412 OFFCURVE",
"19 405 CURVE SMOOTH",
"19 397 OFFCURVE",
"20 394 OFFCURVE",
"21 394 CURVE SMOOTH",
"32 394 OFFCURVE",
"62 381 OFFCURVE",
"63 376 CURVE",
"66 366 OFFCURVE",
"67 350 OFFCURVE",
"67 327 CURVE SMOOTH",
"67 90 LINE SMOOTH",
"67 63 OFFCURVE",
"66 45 OFFCURVE",
"63 35 CURVE",
"62 29 OFFCURVE",
"37 21 OFFCURVE",
"22 21 CURVE SMOOTH",
"20 21 OFFCURVE",
"20 18 OFFCURVE",
"20 8 CURVE SMOOTH",
"20 3 OFFCURVE",
"20 -1 OFFCURVE",
"22 -3 CURVE"
);
},
{
closed = 1;
nodes = (
"166 33 OFFCURVE",
"159 39 OFFCURVE",
"159 64 CURVE SMOOTH",
"159 193 LINE",
"168 196 OFFCURVE",
"177 197 OFFCURVE",
"197 197 CURVE SMOOTH",
"251 197 OFFCURVE",
"283 166 OFFCURVE",
"283 112 CURVE SMOOTH",
"283 61 OFFCURVE",
"252 33 OFFCURVE",
"195 33 CURVE SMOOTH"
);
},
{
closed = 1;
nodes = (
"175 233 OFFCURVE",
"166 233 OFFCURVE",
"159 235 CURVE",
"159 369 LINE SMOOTH",
"159 377 OFFCURVE",
"169 381 OFFCURVE",
"187 381 CURVE SMOOTH",
"228 381 OFFCURVE",
"254 353 OFFCURVE",
"254 307 CURVE SMOOTH",
"254 257 OFFCURVE",
"233 233 OFFCURVE",
"191 233 CURVE SMOOTH"
);
}
);
width = 405;
}
);
unicode = 0042;
},
{
glyphname = C;
lastChange = "2018-12-16 21:30:42 +0000";
layers = (
{
anchors = (
{
name = bottom;
position = "{214, 0}";
},
{
name = top;
position = "{214, 413}";
}
);
layerId = master01;
paths = (
{
closed = 1;
nodes = (
"294 -4 OFFCURVE",
"327 4 OFFCURVE",
"371 21 CURVE",
"376 24 OFFCURVE",
"395 92 OFFCURVE",
"395 113 CURVE",
"394 117 OFFCURVE",
"384 119 OFFCURVE",
"366 119 CURVE",
"360 98 OFFCURVE",
"352 79 OFFCURVE",
"339 64 CURVE SMOOTH",
"321 43 OFFCURVE",
"295 30 OFFCURVE",
"259 30 CURVE SMOOTH",
"182 30 OFFCURVE",
"131 103 OFFCURVE",
"131 216 CURVE SMOOTH",
"131 323 OFFCURVE",
"172 383 OFFCURVE",
"252 383 CURVE SMOOTH",
"305 383 OFFCURVE",
"349 354 OFFCURVE",
"364 300 CURVE",
"376 297 OFFCURVE",
"386 298 OFFCURVE",
"393 301 CURVE",
"391 326 OFFCURVE",
"386 379 OFFCURVE",
"378 400 CURVE",
"335 412 OFFCURVE",
"287 419 OFFCURVE",
"254 419 CURVE SMOOTH",
"129 419 OFFCURVE",
"28 330 OFFCURVE",
"28 202 CURVE SMOOTH",
"28 77 OFFCURVE",
"122 -4 OFFCURVE",
"254 -4 CURVE SMOOTH"
);
}
);
width = 412;
}
);
unicode = 0043;
},
{
glyphname = D;
lastChange = "2018-12-16 21:30:42 +0000";
layers = (
{
anchors = (
{
name = bottom;
position = "{231, 0}";
},
{
name = center;
position = "{231, 207}";
},
{
name = stroke;
position = "{141, 207}";
},
{
name = top;
position = "{231, 413}";
}
);
layerId = master01;
paths = (
{
closed = 1;
nodes = (
"54 -1 OFFCURVE",
"86 1 OFFCURVE",
"116 1 CURVE SMOOTH",
"224 -2 LINE SMOOTH",
"354 -2 OFFCURVE",
"443 85 OFFCURVE",
"443 211 CURVE SMOOTH",
"443 329 OFFCURVE",
"352 414 OFFCURVE",
"218 414 CURVE SMOOTH",
"115 414 LINE SMOOTH",
"87 414 OFFCURVE",
"56 415 OFFCURVE",
"21 417 CURVE",
"20 416 OFFCURVE",
"19 412 OFFCURVE",
"19 405 CURVE SMOOTH",
"19 398 OFFCURVE",
"20 394 OFFCURVE",
"21 394 CURVE SMOOTH",
"32 394 OFFCURVE",
"62 381 OFFCURVE",
"63 376 CURVE",
"66 366 OFFCURVE",
"67 350 OFFCURVE",
"67 327 CURVE SMOOTH",
"67 90 LINE SMOOTH",
"67 64 OFFCURVE",
"66 45 OFFCURVE",
"63 35 CURVE",
"62 30 OFFCURVE",
"35 21 OFFCURVE",
"22 21 CURVE SMOOTH",
"20 21 OFFCURVE",
"20 17 OFFCURVE",
"20 8 CURVE SMOOTH",
"20 3 OFFCURVE",
"20 -1 OFFCURVE",
"22 -3 CURVE"
);
},
{
closed = 1;
nodes = (
"196 34 OFFCURVE",
"175 36 OFFCURVE",
"165 42 CURVE",
"161 42 OFFCURVE",
"159 57 OFFCURVE",
"159 85 CURVE SMOOTH",
"159 328 LINE SMOOTH",
"159 347 OFFCURVE",
"162 360 OFFCURVE",
"168 368 CURVE SMOOTH",
"173 375 OFFCURVE",
"192 378 OFFCURVE",
"214 378 CURVE SMOOTH",
"297 378 OFFCURVE",
"340 311 OFFCURVE",
"340 214 CURVE SMOOTH",
"340 98 OFFCURVE",
"302 34 OFFCURVE",
"220 34 CURVE SMOOTH"
);
}
);
width = 471;
}
);
unicode = 0044;
},
{
glyphname = E;
lastChange = "2018-12-16 21:30:42 +0000";
layers = (
{
anchors = (
{
name = bottom;
position = "{192, 0}";
},
{
name = ogonek;
position = "{342, 6}";
},
{
name = top;
position = "{192, 413}";
},
{
name = topleft;
position = "{15, 413}";
}
);
layerId = master01;
paths = (
{
closed = 1;
nodes = (
"116 1 LINE",
"145 1 OFFCURVE",
"182 1 OFFCURVE",
"229 0 CURVE SMOOTH",
"276 0 OFFCURVE",
"309 -1 OFFCURVE",
"331 -1 CURVE",
"333 13 OFFCURVE",
"342 44 OFFCURVE",
"365 107 CURVE",
"362 110 OFFCURVE",
"356 111 OFFCURVE",
"345 111 CURVE SMOOTH",
"340 111 OFFCURVE",
"337 110 OFFCURVE",
"337 107 CURVE",
"328 86 OFFCURVE",
"308 61 OFFCURVE",
"291 52 CURVE SMOOTH",
"269 40 OFFCURVE",
"246 35 OFFCURVE",
"222 35 CURVE SMOOTH",
"207 35 LINE SMOOTH",
"181 35 OFFCURVE",
"166 38 OFFCURVE",
"164 45 CURVE",
"162 55 OFFCURVE",
"159 69 OFFCURVE",
"159 88 CURVE SMOOTH",
"159 185 LINE SMOOTH",
"159 189 OFFCURVE",
"174 191 OFFCURVE",
"205 191 CURVE SMOOTH",
"240 191 OFFCURVE",
"254 187 OFFCURVE",
"260 178 CURVE",
"262 174 OFFCURVE",
"267 159 OFFCURVE",
"269 149 CURVE",
"270 146 OFFCURVE",
"273 144 OFFCURVE",
"279 144 CURVE SMOOTH",
"286 144 OFFCURVE",
"291 145 OFFCURVE",
"292 147 CURVE",
"292 266 LINE",
"291 268 OFFCURVE",
"285 269 OFFCURVE",
"278 269 CURVE SMOOTH",
"273 269 OFFCURVE",
"269 268 OFFCURVE",
"269 264 CURVE",
"268 252 OFFCURVE",
"263 234 OFFCURVE",
"260 230 CURVE",
"258 227 OFFCURVE",
"242 226 OFFCURVE",
"218 226 CURVE SMOOTH",
"186 226 LINE SMOOTH",
"168 226 OFFCURVE",
"159 227 OFFCURVE",
"159 230 CURVE SMOOTH",
"159 326 LINE SMOOTH",
"159 348 OFFCURVE",
"161 364 OFFCURVE",
"163 374 CURVE",
"163 380 OFFCURVE",
"176 383 OFFCURVE",
"201 383 CURVE SMOOTH",
"223 383 LINE SMOOTH",
"267 383 OFFCURVE",
"292 366 OFFCURVE",
"313 324 CURVE",
"314 321 OFFCURVE",
"317 320 OFFCURVE",
"322 320 CURVE SMOOTH",
"329 320 OFFCURVE",
"335 321 OFFCURVE",
"336 323 CURVE",
"325 376 OFFCURVE",
"318 415 OFFCURVE",
"318 417 CURVE",
"299 417 OFFCURVE",
"263 416 OFFCURVE",
"220 416 CURVE SMOOTH",
"160 416 OFFCURVE",
"130 414 OFFCURVE",
"115 414 CURVE SMOOTH",
"87 414 OFFCURVE",
"56 415 OFFCURVE",
"21 417 CURVE",
"20 416 OFFCURVE",
"19 412 OFFCURVE",
"19 405 CURVE SMOOTH",
"19 398 OFFCURVE",
"20 394 OFFCURVE",
"21 394 CURVE SMOOTH",
"33 394 OFFCURVE",
"62 381 OFFCURVE",
"63 376 CURVE",
"66 366 OFFCURVE",
"67 350 OFFCURVE",
"67 327 CURVE SMOOTH",
"67 90 LINE SMOOTH",
"67 64 OFFCURVE",
"66 45 OFFCURVE",
"63 35 CURVE",
"62 30 OFFCURVE",
"36 21 OFFCURVE",
"22 21 CURVE SMOOTH",
"20 21 OFFCURVE",
"20 17 OFFCURVE",
"20 8 CURVE SMOOTH",
"20 3 OFFCURVE",
"20 -1 OFFCURVE",
"22 -3 CURVE"
);
}
);
width = 384;
}
);
unicode = 0045;
},
{
glyphname = F;
lastChange = "2018-12-16 21:30:42 +0000";
layers = (
{
anchors = (
{
name = bottom;
position = "{178, 0}";
},
{
name = top;
position = "{178, 413}";
}
);
layerId = master01;
paths = (
{
closed = 1;
nodes = (
"54 -1 OFFCURVE",
"85 1 OFFCURVE",
"116 1 CURVE SMOOTH",
"131 1 OFFCURVE",
"164 0 OFFCURVE",
"215 -3 CURVE",
"216 0 OFFCURVE",
"216 4 OFFCURVE",
"216 9 CURVE SMOOTH",
"216 17 OFFCURVE",
"216 21 OFFCURVE",
"214 21 CURVE SMOOTH",
"193 21 OFFCURVE",
"166 30 OFFCURVE",
"164 38 CURVE SMOOTH",
"161 51 OFFCURVE",
"159 68 OFFCURVE",
"159 89 CURVE SMOOTH",
"159 185 LINE SMOOTH",
"159 189 OFFCURVE",
"174 191 OFFCURVE",
"205 191 CURVE SMOOTH",
"232 191 OFFCURVE",
"252 190 OFFCURVE",
"260 179 CURVE",
"261 176 OFFCURVE",
"265 165 OFFCURVE",
"269 150 CURVE",
"270 147 OFFCURVE",
"273 145 OFFCURVE",
"279 145 CURVE SMOOTH",
"286 145 OFFCURVE",
"291 145 OFFCURVE",
"293 147 CURVE",
"293 265 LINE",
"291 267 OFFCURVE",
"286 269 OFFCURVE",
"278 269 CURVE SMOOTH",
"273 269 OFFCURVE",
"270 267 OFFCURVE",
"268 264 CURVE",
"267 253 OFFCURVE",
"265 231 OFFCURVE",
"261 229 CURVE",
"259 227 OFFCURVE",
"245 226 OFFCURVE",
"218 226 CURVE SMOOTH",
"186 226 LINE SMOOTH",
"168 226 OFFCURVE",
"159 227 OFFCURVE",
"159 230 CURVE SMOOTH",
"159 326 LINE SMOOTH",
"159 348 OFFCURVE",
"161 364 OFFCURVE",
"163 374 CURVE",
"163 380 OFFCURVE",
"176 383 OFFCURVE",
"201 383 CURVE SMOOTH",
"223 383 LINE SMOOTH",
"270 383 OFFCURVE",
"292 364 OFFCURVE",
"313 324 CURVE",
"314 321 OFFCURVE",
"317 320 OFFCURVE",
"322 320 CURVE SMOOTH",
"329 320 OFFCURVE",
"335 321 OFFCURVE",
"336 323 CURVE",
"323 387 OFFCURVE",
"318 416 OFFCURVE",
"318 417 CURVE",
"296 417 OFFCURVE",
"265 416 OFFCURVE",
"222 416 CURVE SMOOTH",
"179 415 OFFCURVE",
"143 414 OFFCURVE",
"115 414 CURVE SMOOTH",
"92 414 OFFCURVE",
"61 415 OFFCURVE",
"21 417 CURVE",
"20 416 OFFCURVE",
"19 412 OFFCURVE",
"19 405 CURVE SMOOTH",
"19 398 OFFCURVE",
"20 394 OFFCURVE",
"21 394 CURVE SMOOTH",
"32 394 OFFCURVE",
"62 381 OFFCURVE",
"63 376 CURVE",
"66 366 OFFCURVE",
"67 350 OFFCURVE",
"67 327 CURVE SMOOTH",
"67 90 LINE SMOOTH",
"67 63 OFFCURVE",
"66 44 OFFCURVE",
"63 35 CURVE",
"62 30 OFFCURVE",
"35 21 OFFCURVE",
"22 21 CURVE SMOOTH",
"20 21 OFFCURVE",
"20 17 OFFCURVE",
"20 8 CURVE SMOOTH",
"20 2 OFFCURVE",
"20 -1 OFFCURVE",
"22 -3 CURVE"
);
}
);
width = 357;
}
);
unicode = 0046;
},
{
glyphname = G;
lastChange = "2018-12-16 21:30:42 +0000";
layers = (
{
anchors = (
{
name = bottom;
position = "{234, 0}";
},
{
name = top;
position = "{234, 413}";
}
);
layerId = master01;
paths = (
{
closed = 1;
nodes = (
"296 -4 OFFCURVE",
"347 12 OFFCURVE",
"383 31 CURVE",
"392 35 OFFCURVE",
"396 42 OFFCURVE",
"396 49 CURVE SMOOTH",
"396 50 OFFCURVE",
"395 52 OFFCURVE",
"394 55 CURVE",
"393 59 OFFCURVE",
"393 64 OFFCURVE",
"393 71 CURVE SMOOTH",
"393 107 LINE SMOOTH",
"393 137 OFFCURVE",
"396 154 OFFCURVE",
"404 157 CURVE",
"417 164 OFFCURVE",
"427 167 OFFCURVE",
"437 167 CURVE SMOOTH",
"438 167 OFFCURVE",
"439 170 OFFCURVE",
"439 178 CURVE SMOOTH",
"439 183 OFFCURVE",
"438 187 OFFCURVE",
"437 191 CURVE",
"386 189 OFFCURVE",
"357 187 OFFCURVE",
"351 187 CURVE SMOOTH",
"332 187 OFFCURVE",
"277 190 OFFCURVE",
"255 191 CURVE",
"254 190 OFFCURVE",
"253 185 OFFCURVE",
"253 180 CURVE SMOOTH",
"253 173 OFFCURVE",
"254 167 OFFCURVE",
"256 167 CURVE SMOOTH",
"282 167 OFFCURVE",
"293 162 OFFCURVE",
"296 150 CURVE SMOOTH",
"299 139 OFFCURVE",
"301 123 OFFCURVE",
"301 102 CURVE SMOOTH",
"301 60 LINE SMOOTH",
"301 51 OFFCURVE",
"298 44 OFFCURVE",
"293 40 CURVE",
"286 33 OFFCURVE",
"274 30 OFFCURVE",
"259 30 CURVE SMOOTH",
"182 30 OFFCURVE",
"131 103 OFFCURVE",
"129 217 CURVE SMOOTH",
"128 330 OFFCURVE",
"180 383 OFFCURVE",
"252 383 CURVE SMOOTH",
"305 383 OFFCURVE",
"349 354 OFFCURVE",
"365 300 CURVE",
"369 298 OFFCURVE",
"386 298 OFFCURVE",
"393 301 CURVE",
"393 326 OFFCURVE",
"386 379 OFFCURVE",
"377 400 CURVE",
"335 412 OFFCURVE",
"287 419 OFFCURVE",
"254 419 CURVE SMOOTH",
"129 419 OFFCURVE",
"28 330 OFFCURVE",
"28 202 CURVE SMOOTH",
"28 77 OFFCURVE",
"122 -4 OFFCURVE",
"255 -4 CURVE SMOOTH"
);
}
);
width = 460;
}
);
unicode = 0047;
},
{
glyphname = H;
lastChange = "2018-12-16 21:30:42 +0000";
layers = (
{
anchors = (
{
name = bottom;
position = "{234, 0}";
},
{
name = stroke;
position = "{233, 313}";
},
{
name = top;
position = "{234, 413}";
},
{
name = topleft;
position = "{17, 413}";
}
);
layerId = master01;
paths = (
{
closed = 1;
nodes = (
"61 0 OFFCURVE",
"100 3 OFFCURVE",
"113 3 CURVE SMOOTH",
"138 3 OFFCURVE",
"159 0 OFFCURVE",
"204 -3 CURVE",
"206 0 OFFCURVE",
"206 4 OFFCURVE",
"206 9 CURVE SMOOTH",
"206 16 OFFCURVE",
"205 21 OFFCURVE",
"203 21 CURVE SMOOTH",
"193 21 OFFCURVE",
"166 33 OFFCURVE",
"164 37 CURVE",
"161 50 OFFCURVE",
"159 68 OFFCURVE",
"159 89 CURVE SMOOTH",
"159 192 LINE",
"160 193 LINE",
"170 193 OFFCURVE",
"182 195 OFFCURVE",
"233 195 CURVE SMOOTH",
"255 195 OFFCURVE",
"279 195 OFFCURVE",
"304 194 CURVE",
"306 191 LINE",
"306 87 LINE SMOOTH",
"306 64 OFFCURVE",
"304 47 OFFCURVE",
"302 38 CURVE",
"300 32 OFFCURVE",
"272 21 OFFCURVE",
"260 21 CURVE SMOOTH",
"259 21 OFFCURVE",
"257 16 OFFCURVE",
"257 9 CURVE SMOOTH",
"257 5 OFFCURVE",
"259 -1 OFFCURVE",
"260 -3 CURVE",
"287 0 OFFCURVE",
"340 3 OFFCURVE",
"356 3 CURVE SMOOTH",
"373 3 OFFCURVE",
"414 -1 OFFCURVE",
"442 -3 CURVE",
"443 1 OFFCURVE",
"444 5 OFFCURVE",
"444 8 CURVE SMOOTH",
"444 17 OFFCURVE",
"443 22 OFFCURVE",
"442 22 CURVE SMOOTH",
"431 22 OFFCURVE",
"404 32 OFFCURVE",
"403 37 CURVE SMOOTH",
"400 50 OFFCURVE",
"398 67 OFFCURVE",
"398 89 CURVE SMOOTH",
"398 324 LINE SMOOTH",
"398 347 OFFCURVE",
"400 364 OFFCURVE",
"403 377 CURVE SMOOTH",
"404 381 OFFCURVE",
"432 392 OFFCURVE",
"442 392 CURVE SMOOTH",
"444 392 OFFCURVE",
"446 396 OFFCURVE",
"446 404 CURVE SMOOTH",
"446 408 OFFCURVE",
"445 412 OFFCURVE",
"444 416 CURVE",
"390 413 OFFCURVE",
"362 412 OFFCURVE",
"357 412 CURVE SMOOTH",
"354 412 OFFCURVE",
"324 413 OFFCURVE",
"261 416 CURVE",
"260 415 OFFCURVE",
"259 409 OFFCURVE",
"259 404 CURVE SMOOTH",
"259 397 OFFCURVE",
"260 392 OFFCURVE",
"262 392 CURVE SMOOTH",
"273 392 OFFCURVE",
"299 381 OFFCURVE",
"301 375 CURVE",
"304 364 OFFCURVE",
"306 348 OFFCURVE",
"306 326 CURVE SMOOTH",
"306 236 LINE",
"304 233 LINE",
"267 233 OFFCURVE",
"243 232 OFFCURVE",
"233 232 CURVE SMOOTH",
"226 232 OFFCURVE",
"201 233 OFFCURVE",
"161 233 CURVE",
"159 235 LINE",
"159 324 LINE SMOOTH",
"159 351 OFFCURVE",
"161 368 OFFCURVE",
"164 376 CURVE SMOOTH",
"166 381 OFFCURVE",
"195 392 OFFCURVE",
"204 392 CURVE SMOOTH",
"206 392 OFFCURVE",
"207 395 OFFCURVE",
"207 402 CURVE SMOOTH",
"207 409 OFFCURVE",
"206 414 OFFCURVE",
"205 416 CURVE",
"154 413 OFFCURVE",
"122 412 OFFCURVE",
"111 412 CURVE",
"22 416 LINE",
"22 415 OFFCURVE",
"21 411 OFFCURVE",
"21 405 CURVE SMOOTH",
"21 396 OFFCURVE",
"22 392 OFFCURVE",
"23 392 CURVE SMOOTH",
"38 392 OFFCURVE",
"59 382 OFFCURVE",
"63 374 CURVE SMOOTH",
"66 368 OFFCURVE",
"67 352 OFFCURVE",
"67 326 CURVE SMOOTH",
"67 87 LINE SMOOTH",
"67 65 OFFCURVE",
"66 48 OFFCURVE",
"63 37 CURVE",
"61 31 OFFCURVE",
"34 21 OFFCURVE",
"21 21 CURVE SMOOTH",
"20 21 OFFCURVE",
"20 17 OFFCURVE",
"20 8 CURVE SMOOTH",
"20 2 OFFCURVE",
"20 -1 OFFCURVE",
"22 -3 CURVE"
);
}
);
width = 465;
}
);
unicode = 0048;
},
{
glyphname = I;
lastChange = "2018-12-16 21:30:42 +0000";
layers = (
{
anchors = (
{
name = bottom;
position = "{114, 0}";
},
{
name = ogonek;
position = "{179, 6}";
},
{
name = top;
position = "{114, 413}";
},
{
name = topleft;
position = "{17, 413}";
}
);
layerId = master01;
paths = (
{
closed = 1;
nodes = (
"32 -2 OFFCURVE",
"91 3 OFFCURVE",
"115 3 CURVE SMOOTH",
"135 3 OFFCURVE",
"183 -1 OFFCURVE",
"204 -3 CURVE",
"205 0 OFFCURVE",
"206 4 OFFCURVE",
"206 9 CURVE SMOOTH",
"206 17 OFFCURVE",
"205 21 OFFCURVE",
"203 21 CURVE SMOOTH",
"196 21 OFFCURVE",
"166 32 OFFCURVE",
"164 37 CURVE",
"160 57 OFFCURVE",
"159 76 OFFCURVE",
"159 92 CURVE SMOOTH",
"159 334 LINE SMOOTH",
"159 345 OFFCURVE",
"161 367 OFFCURVE",
"164 377 CURVE",
"165 382 OFFCURVE",
"197 392 OFFCURVE",
"204 392 CURVE SMOOTH",
"206 392 OFFCURVE",
"207 396 OFFCURVE",
"207 404 CURVE SMOOTH",
"207 408 OFFCURVE",
"206 412 OFFCURVE",
"205 416 CURVE",
"153 413 OFFCURVE",
"122 412 OFFCURVE",
"115 412 CURVE SMOOTH",
"83 412 OFFCURVE",
"51 414 OFFCURVE",
"22 416 CURVE",
"22 415 OFFCURVE",
"21 411 OFFCURVE",
"21 403 CURVE SMOOTH",
"21 396 OFFCURVE",
"22 392 OFFCURVE",
"23 392 CURVE SMOOTH",
"33 392 OFFCURVE",
"57 383 OFFCURVE",
"62 376 CURVE",
"65 371 OFFCURVE",
"67 355 OFFCURVE",
"67 328 CURVE SMOOTH",
"67 87 LINE SMOOTH",
"67 65 OFFCURVE",
"66 49 OFFCURVE",
"63 37 CURVE",
"60 31 OFFCURVE",
"31 21 OFFCURVE",
"21 21 CURVE SMOOTH",
"20 21 OFFCURVE",
"20 17 OFFCURVE",
"20 8 CURVE SMOOTH",
"20 2 OFFCURVE",
"20 -1 OFFCURVE",
"22 -3 CURVE"
);
}
);
width = 226;
}
);
unicode = 0049;
},
{
glyphname = J;
lastChange = "2018-12-16 21:30:42 +0000";
layers = (
{
anchors = (
{
name = bottom;
position = "{61, 0}";
},
{
name = top;
position = "{113, 413}";
}
);
layerId = master01;
paths = (
{
closed = 1;
nodes = (
"80 -136 OFFCURVE",
"158 -53 OFFCURVE",
"158 95 CURVE SMOOTH",
"158 324 LINE SMOOTH",
"158 348 OFFCURVE",
"159 366 OFFCURVE",
"162 377 CURVE",
"164 382 OFFCURVE",
"196 392 OFFCURVE",
"203 392 CURVE SMOOTH",
"205 392 OFFCURVE",
"206 396 OFFCURVE",
"206 404 CURVE SMOOTH",
"206 408 OFFCURVE",
"205 412 OFFCURVE",
"204 416 CURVE",
"149 413 OFFCURVE",
"121 412 OFFCURVE",
"114 412 CURVE",
"21 416 LINE",
"20 415 OFFCURVE",
"20 411 OFFCURVE",
"20 403 CURVE SMOOTH",
"20 396 OFFCURVE",
"20 392 OFFCURVE",
"22 392 CURVE SMOOTH",
"31 392 OFFCURVE",
"56 383 OFFCURVE",
"61 376 CURVE",
"64 371 OFFCURVE",
"66 355 OFFCURVE",
"66 328 CURVE SMOOTH",
"66 90 LINE SMOOTH",
"66 29 OFFCURVE",
"63 -16 OFFCURVE",
"59 -46 CURVE SMOOTH",
"54 -77 OFFCURVE",
"41 -91 OFFCURVE",
"22 -91 CURVE SMOOTH",
"16 -91 OFFCURVE",
"7 -85 OFFCURVE",
"-5 -72 CURVE",
"-16 -58 OFFCURVE",
"-27 -52 OFFCURVE",
"-37 -52 CURVE SMOOTH",
"-58 -52 OFFCURVE",
"-77 -70 OFFCURVE",
"-77 -91 CURVE SMOOTH",
"-77 -116 OFFCURVE",
"-56 -136 OFFCURVE",
"-19 -136 CURVE SMOOTH"
);
}
);
width = 222;
}
);
unicode = 004A;
},
{
glyphname = K;
lastChange = "2018-12-16 21:30:42 +0000";
layers = (
{
anchors = (
{
name = bottom;
position = "{239, 0}";
},
{
name = top;
position = "{239, 413}";
}
);
layerId = master01;
paths = (
{
closed = 1;
nodes = (
"31 -2 OFFCURVE",
"92 3 OFFCURVE",
"115 3 CURVE SMOOTH",
"130 3 OFFCURVE",
"180 -1 OFFCURVE",
"204 -3 CURVE",
"205 0 OFFCURVE",
"206 4 OFFCURVE",
"206 9 CURVE SMOOTH",
"206 18 OFFCURVE",
"205 21 OFFCURVE",
"203 21 CURVE SMOOTH",
"196 21 OFFCURVE",
"166 32 OFFCURVE",
"164 37 CURVE",
"160 50 OFFCURVE",
"159 68 OFFCURVE",
"159 92 CURVE SMOOTH",
"159 180 LINE",
"174 180 LINE SMOOTH",
"181 180 OFFCURVE",
"186 179 OFFCURVE",
"193 170 CURVE SMOOTH",
"280 64 LINE SMOOTH",
"290 52 OFFCURVE",
"296 41 OFFCURVE",
"296 35 CURVE SMOOTH",
"296 27 OFFCURVE",
"276 21 OFFCURVE",
"266 21 CURVE SMOOTH",
"264 21 OFFCURVE",
"264 18 OFFCURVE",
"264 11 CURVE SMOOTH",
"264 4 OFFCURVE",
"264 -1 OFFCURVE",
"266 -3 CURVE",
"306 1 OFFCURVE",
"334 3 OFFCURVE",
"356 3 CURVE SMOOTH",
"374 3 OFFCURVE",
"440 -1 OFFCURVE",
"456 -3 CURVE",
"458 1 OFFCURVE",
"459 5 OFFCURVE",
"459 9 CURVE SMOOTH",
"459 18 OFFCURVE",
"458 21 OFFCURVE",
"456 21 CURVE SMOOTH",
"447 21 OFFCURVE",
"424 25 OFFCURVE",
"415 36 CURVE SMOOTH",
"257 229 LINE",
"255 231 OFFCURVE",
"254 234 OFFCURVE",
"254 237 CURVE SMOOTH",
"254 240 OFFCURVE",
"255 244 OFFCURVE",
"258 247 CURVE",
"367 367 LINE SMOOTH",
"380 382 OFFCURVE",
"406 391 OFFCURVE",
"442 393 CURVE",
"443 394 OFFCURVE",
"445 400 OFFCURVE",
"445 406 CURVE SMOOTH",
"445 411 OFFCURVE",
"444 414 OFFCURVE",
"443 416 CURVE",
"388 413 OFFCURVE",
"361 412 OFFCURVE",
"358 412 CURVE SMOOTH",
"349 412 OFFCURVE",
"322 413 OFFCURVE",
"271 416 CURVE",
"271 411 LINE SMOOTH",
"271 403 OFFCURVE",
"273 393 OFFCURVE",
"276 393 CURVE SMOOTH",
"287 393 OFFCURVE",
"313 390 OFFCURVE",
"313 382 CURVE SMOOTH",
"313 376 OFFCURVE",
"313 370 OFFCURVE",
"303 360 CURVE",
"195 244 LINE",
"179 228 OFFCURVE",
"170 220 OFFCURVE",
"168 220 CURVE SMOOTH",
"159 220 LINE",
"159 324 LINE SMOOTH",
"159 348 OFFCURVE",
"160 366 OFFCURVE",
"164 377 CURVE",
"165 382 OFFCURVE",
"197 392 OFFCURVE",
"204 392 CURVE SMOOTH",
"206 392 OFFCURVE",
"207 395 OFFCURVE",
"207 404 CURVE SMOOTH",
"207 408 OFFCURVE",
"206 412 OFFCURVE",
"205 416 CURVE",
"151 413 OFFCURVE",
"122 412 OFFCURVE",
"115 412 CURVE",
"22 416 LINE",
"22 415 OFFCURVE",
"21 411 OFFCURVE",
"21 403 CURVE SMOOTH",
"21 396 OFFCURVE",
"22 392 OFFCURVE",
"23 392 CURVE SMOOTH",
"33 392 OFFCURVE",
"57 383 OFFCURVE",
"62 376 CURVE",
"65 371 OFFCURVE",
"67 355 OFFCURVE",
"67 328 CURVE SMOOTH",
"67 87 LINE SMOOTH",
"67 65 OFFCURVE",
"66 49 OFFCURVE",
"63 37 CURVE",
"60 31 OFFCURVE",
"31 21 OFFCURVE",
"21 21 CURVE SMOOTH",
"20 21 OFFCURVE",
"20 17 OFFCURVE",
"20 8 CURVE SMOOTH",
"20 2 OFFCURVE",
"20 -1 OFFCURVE",
"22 -3 CURVE"
);
}
);
width = 459;
}
);
unicode = 004B;
},
{
glyphname = L;
lastChange = "2018-12-16 21:30:42 +0000";
layers = (
{
anchors = (
{
name = bottom;
position = "{193, 0}";
},
{
name = center;
position = "{126, 207}";
},
{
name = dotacc;
position = "{264, 207}";
},
{
name = top;
position = "{193, 413}";
},
{
name = topright;
position = "{247, 276}";
}
);
layerId = master01;
paths = (
{
closed = 1;
nodes = (
"47 -1 OFFCURVE",
"84 1 OFFCURVE",
"116 1 CURVE SMOOTH",
"133 1 OFFCURVE",
"166 1 OFFCURVE",
"218 0 CURVE SMOOTH",
"269 0 OFFCURVE",
"307 -1 OFFCURVE",
"331 -1 CURVE",
"333 13 OFFCURVE",
"342 43 OFFCURVE",
"365 107 CURVE",
"362 110 OFFCURVE",
"356 111 OFFCURVE",
"345 111 CURVE SMOOTH",
"340 111 OFFCURVE",
"337 110 OFFCURVE",
"337 107 CURVE",
"318 61 OFFCURVE",
"277 35 OFFCURVE",
"222 35 CURVE SMOOTH",
"207 35 LINE SMOOTH",
"180 35 OFFCURVE",
"166 38 OFFCURVE",
"164 45 CURVE SMOOTH",
"161 57 OFFCURVE",
"159 74 OFFCURVE",
"159 89 CURVE SMOOTH",
"159 327 LINE SMOOTH",
"159 355 OFFCURVE",
"161 368 OFFCURVE",
"164 377 CURVE",
"165 381 OFFCURVE",
"194 392 OFFCURVE",
"204 392 CURVE SMOOTH",
"206 392 OFFCURVE",
"207 395 OFFCURVE",
"207 404 CURVE SMOOTH",
"207 408 OFFCURVE",
"206 412 OFFCURVE",
"205 416 CURVE",
"157 413 OFFCURVE",
"124 412 OFFCURVE",
"115 412 CURVE",
"22 416 LINE",
"22 415 OFFCURVE",
"21 409 OFFCURVE",
"21 403 CURVE SMOOTH",
"21 395 OFFCURVE",
"22 392 OFFCURVE",
"23 392 CURVE SMOOTH",
"34 392 OFFCURVE",
"58 382 OFFCURVE",
"62 376 CURVE",
"65 371 OFFCURVE",
"67 353 OFFCURVE",
"67 330 CURVE SMOOTH",
"67 90 LINE SMOOTH",
"67 64 OFFCURVE",
"66 45 OFFCURVE",
"63 35 CURVE",
"62 29 OFFCURVE",
"37 21 OFFCURVE",
"22 21 CURVE SMOOTH",
"20 21 OFFCURVE",
"20 18 OFFCURVE",
"20 8 CURVE SMOOTH",
"20 2 OFFCURVE",
"20 -1 OFFCURVE",
"22 -3 CURVE"
);
}
);
width = 361;
}
);
unicode = 004C;
},
{
glyphname = M;
lastChange = "2018-12-16 21:30:42 +0000";
layers = (
{
anchors = (
{
name = bottom;
position = "{268, 0}";
},
{
name = top;
position = "{268, 413}";
}
);
layerId = master01;
paths = (
{
closed = 1;
nodes = (
"39 0 OFFCURVE",
"55 3 OFFCURVE",
"80 3 CURVE SMOOTH",
"89 3 OFFCURVE",
"116 3 OFFCURVE",
"172 -3 CURVE",
"173 0 OFFCURVE",
"173 4 OFFCURVE",
"173 8 CURVE SMOOTH",
"173 17 OFFCURVE",
"173 21 OFFCURVE",
"171 21 CURVE SMOOTH",
"163 21 OFFCURVE",
"110 36 OFFCURVE",
"108 48 CURVE",
"107 50 OFFCURVE",
"107 57 OFFCURVE",
"107 69 CURVE",
"118 331 LINE",
"107 328 LINE",
"249 13 LINE",
"254 3 OFFCURVE",
"259 -1 OFFCURVE",
"265 -1 CURVE SMOOTH",
"273 -1 OFFCURVE",
"280 3 OFFCURVE",
"287 20 CURVE SMOOTH",
"414 343 LINE",
"392 312 LINE",
"393 307 OFFCURVE",
"398 294 OFFCURVE",
"399 264 CURVE SMOOTH",
"406 67 LINE",
"406 52 OFFCURVE",
"404 47 OFFCURVE",
"401 40 CURVE SMOOTH",
"397 31 OFFCURVE",
"372 21 OFFCURVE",
"362 21 CURVE SMOOTH",
"361 21 OFFCURVE",
"360 17 OFFCURVE",
"360 7 CURVE SMOOTH",
"360 3 OFFCURVE",
"362 -1 OFFCURVE",
"363 -3 CURVE",
"378 0 OFFCURVE",
"429 3 OFFCURVE",
"454 3 CURVE SMOOTH",
"478 3 OFFCURVE",
"532 -2 OFFCURVE",
"537 -3 CURVE",
"538 0 OFFCURVE",
"538 4 OFFCURVE",
"538 8 CURVE SMOOTH",
"538 17 OFFCURVE",
"538 21 OFFCURVE",
"536 21 CURVE SMOOTH",
"528 21 OFFCURVE",
"503 31 OFFCURVE",
"500 39 CURVE SMOOTH",
"495 52 OFFCURVE",
"492 70 OFFCURVE",
"491 96 CURVE SMOOTH",
"477 361 LINE",
"477 372 OFFCURVE",
"480 380 OFFCURVE",
"486 385 CURVE",
"493 390 OFFCURVE",
"501 392 OFFCURVE",
"512 392 CURVE SMOOTH",
"514 392 OFFCURVE",
"515 396 OFFCURVE",
"515 406 CURVE SMOOTH",
"515 410 OFFCURVE",
"514 413 OFFCURVE",
"512 416 CURVE",
"480 412 OFFCURVE",
"446 412 OFFCURVE",
"432 412 CURVE SMOOTH",
"403 412 OFFCURVE",
"386 412 OFFCURVE",
"381 413 CURVE",
"376 391 OFFCURVE",
"363 346 OFFCURVE",
"354 323 CURVE SMOOTH",
"289 154 LINE",
"288 152 OFFCURVE",
"288 151 OFFCURVE",
"286 151 CURVE SMOOTH",
"285 151 OFFCURVE",
"284 153 OFFCURVE",
"281 160 CURVE SMOOTH",
"205 328 LINE SMOOTH",
"190 362 OFFCURVE",
"173 402 OFFCURVE",
"168 416 CURVE",
"153 414 OFFCURVE",
"110 412 OFFCURVE",
"100 412 CURVE SMOOTH",
"84 412 OFFCURVE",
"47 414 OFFCURVE",
"28 416 CURVE",
"26 414 OFFCURVE",
"25 411 OFFCURVE",
"25 406 CURVE SMOOTH",
"25 397 OFFCURVE",
"26 393 OFFCURVE",
"28 393 CURVE SMOOTH",
"38 393 OFFCURVE",
"71 386 OFFCURVE",
"74 379 CURVE",
"75 377 OFFCURVE",
"76 373 OFFCURVE",
"75 349 CURVE SMOOTH",
"74 326 OFFCURVE",
"72 255 OFFCURVE",
"68 174 CURVE SMOOTH",
"67 132 OFFCURVE",
"65 96 OFFCURVE",
"62 58 CURVE SMOOTH",
"61 48 OFFCURVE",
"58 45 OFFCURVE",
"52 39 CURVE",
"37 29 OFFCURVE",
"8 21 OFFCURVE",
"-3 21 CURVE SMOOTH",
"-4 21 OFFCURVE",
"-4 17 OFFCURVE",
"-4 8 CURVE SMOOTH",
"-4 2 OFFCURVE",
"-4 -1 OFFCURVE",
"-2 -3 CURVE"
);
}
);
width = 557;
}
);
unicode = 004D;
},
{
glyphname = N;
lastChange = "2018-12-16 21:30:42 +0000";
layers = (
{
anchors = (
{
name = bottom;
position = "{235, 0}";
},
{
name = top;
position = "{235, 413}";
}
);
layerId = master01;
paths = (
{
closed = 1;
nodes = (
"45 -1 OFFCURVE",
"64 3 OFFCURVE",
"86 3 CURVE SMOOTH",
"107 3 OFFCURVE",
"125 0 OFFCURVE",
"173 -3 CURVE",
"174 -1 OFFCURVE",
"175 3 OFFCURVE",
"175 8 CURVE SMOOTH",
"175 14 OFFCURVE",
"173 22 OFFCURVE",
"172 22 CURVE SMOOTH",
"159 22 OFFCURVE",
"123 30 OFFCURVE",
"114 46 CURVE",
"111 52 OFFCURVE",
"109 66 OFFCURVE",
"109 89 CURVE SMOOTH",
"109 354 LINE",
"91 347 LINE",
"366 11 LINE",
"375 2 OFFCURVE",
"381 -3 OFFCURVE",
"386 -3 CURVE SMOOTH",
"395 -3 OFFCURVE",
"400 -3 OFFCURVE",
"402 -1 CURVE",
"400 44 OFFCURVE",
"399 74 OFFCURVE",
"399 87 CURVE SMOOTH",
"399 326 LINE SMOOTH",
"399 349 OFFCURVE",
"403 364 OFFCURVE",
"409 370 CURVE",
"422 385 OFFCURVE",
"436 392 OFFCURVE",
"461 392 CURVE SMOOTH",
"463 392 OFFCURVE",
"464 396 OFFCURVE",
"464 404 CURVE SMOOTH",
"464 409 OFFCURVE",
"464 413 OFFCURVE",
"462 416 CURVE",
"453 415 OFFCURVE",
"404 411 OFFCURVE",
"383 411 CURVE SMOOTH",
"366 411 OFFCURVE",
"341 412 OFFCURVE",
"299 416 CURVE",
"297 415 OFFCURVE",
"298 411 OFFCURVE",
"298 407 CURVE SMOOTH",
"298 400 OFFCURVE",
"299 392 OFFCURVE",
"301 392 CURVE SMOOTH",
"311 392 OFFCURVE",
"341 383 OFFCURVE",
"350 373 CURVE",
"356 367 OFFCURVE",
"358 353 OFFCURVE",
"358 329 CURVE SMOOTH",
"358 188 LINE SMOOTH",
"358 162 OFFCURVE",
"356 155 OFFCURVE",
"355 148 CURVE",
"375 140 LINE",
"201 355 LINE SMOOTH",
"180 380 OFFCURVE",
"166 401 OFFCURVE",
"159 416 CURVE",
"130 412 OFFCURVE",
"105 410 OFFCURVE",
"91 410 CURVE SMOOTH",
"76 410 OFFCURVE",
"21 414 OFFCURVE",
"7 416 CURVE",
"6 415 OFFCURVE",
"5 410 OFFCURVE",
"5 406 CURVE SMOOTH",
"5 399 OFFCURVE",
"7 392 OFFCURVE",
"9 392 CURVE SMOOTH",
"21 392 OFFCURVE",
"54 387 OFFCURVE",
"58 381 CURVE",
"65 374 OFFCURVE",
"68 359 OFFCURVE",
"68 337 CURVE SMOOTH",
"68 90 LINE SMOOTH",
"68 67 OFFCURVE",
"67 53 OFFCURVE",
"62 46 CURVE",
"50 27 OFFCURVE",
"21 21 OFFCURVE",
"8 21 CURVE SMOOTH",
"7 21 OFFCURVE",
"6 17 OFFCURVE",
"6 9 CURVE SMOOTH",
"6 3 OFFCURVE",
"7 -1 OFFCURVE",
"8 -3 CURVE"
);
}
);
width = 468;
}
);
unicode = 004E;
},
{
glyphname = O;
lastChange = "2018-12-16 21:30:42 +0000";
layers = (
{
anchors = (
{
name = bottom;
position = "{231, 0}";
},
{
name = center;
position = "{231, 207}";
},
{
name = ogonek;
position = "{404, 6}";
},
{
name = top;
position = "{231, 413}";
},
{
name = topleft;
position = "{26, 413}";
},
{
name = topright;
position = "{435, 413}";
}
);
layerId = master01;
paths = (
{
closed = 1;
nodes = (
"342 -6 OFFCURVE",
"432 88 OFFCURVE",
"432 206 CURVE SMOOTH",
"432 324 OFFCURVE",
"341 420 OFFCURVE",
"230 420 CURVE SMOOTH",
"118 420 OFFCURVE",
"28 324 OFFCURVE",
"28 206 CURVE SMOOTH",
"28 88 OFFCURVE",
"118 -6 OFFCURVE",
"230 -6 CURVE SMOOTH"
);
},
{
closed = 1;
nodes = (
"172 30 OFFCURVE",
"130 118 OFFCURVE",
"130 219 CURVE SMOOTH",
"130 312 OFFCURVE",
"165 383 OFFCURVE",
"220 383 CURVE SMOOTH",
"287 383 OFFCURVE",
"329 295 OFFCURVE",
"329 195 CURVE SMOOTH",
"329 103 OFFCURVE",
"295 30 OFFCURVE",
"238 30 CURVE SMOOTH"
);
}
);
width = 460;
}
);
unicode = 004F;
},
{
glyphname = P;
lastChange = "2018-12-16 21:30:42 +0000";
layers = (
{
anchors = (
{
name = bottom;
position = "{184, 0}";
},
{
name = top;
position = "{184, 413}";
}
);
layerId = master01;
paths = (
{
closed = 1;
nodes = (
"54 -1 OFFCURVE",
"84 1 OFFCURVE",
"116 1 CURVE SMOOTH",
"130 1 OFFCURVE",
"163 0 OFFCURVE",
"221 -3 CURVE",
"222 0 OFFCURVE",
"222 4 OFFCURVE",
"222 9 CURVE SMOOTH",
"222 17 OFFCURVE",
"222 21 OFFCURVE",
"220 21 CURVE SMOOTH",
"192 21 OFFCURVE",
"165 30 OFFCURVE",
"164 37 CURVE",
"161 51 OFFCURVE",
"159 68 OFFCURVE",
"159 88 CURVE SMOOTH",
"159 313 LINE SMOOTH",
"159 351 OFFCURVE",
"162 371 OFFCURVE",
"167 374 CURVE",
"170 377 OFFCURVE",
"179 379 OFFCURVE",
"186 379 CURVE SMOOTH",
"229 379 OFFCURVE",
"249 351 OFFCURVE",
"249 294 CURVE SMOOTH",
"249 238 OFFCURVE",
"233 209 OFFCURVE",
"199 209 CURVE SMOOTH",
"186 209 OFFCURVE",
"177 211 OFFCURVE",
"172 214 CURVE",
"171 213 OFFCURVE",
"170 209 OFFCURVE",
"170 205 CURVE SMOOTH",
"170 199 OFFCURVE",
"174 193 OFFCURVE",
"174 192 CURVE",
"180 182 OFFCURVE",
"202 176 OFFCURVE",
"220 176 CURVE SMOOTH",
"288 176 OFFCURVE",
"349 225 OFFCURVE",
"349 294 CURVE SMOOTH",
"349 376 OFFCURVE",
"282 416 OFFCURVE",
"193 416 CURVE SMOOTH",
"176 416 OFFCURVE",
"141 414 OFFCURVE",
"115 414 CURVE SMOOTH",
"92 414 OFFCURVE",
"60 415 OFFCURVE",
"21 417 CURVE",
"20 416 OFFCURVE",
"19 412 OFFCURVE",
"19 405 CURVE SMOOTH",
"19 398 OFFCURVE",
"20 394 OFFCURVE",
"21 394 CURVE SMOOTH",
"32 394 OFFCURVE",
"62 381 OFFCURVE",
"63 376 CURVE",
"66 366 OFFCURVE",
"67 350 OFFCURVE",
"67 327 CURVE SMOOTH",
"67 90 LINE SMOOTH",
"67 64 OFFCURVE",
"66 45 OFFCURVE",
"63 35 CURVE",
"62 30 OFFCURVE",
"35 21 OFFCURVE",
"22 21 CURVE SMOOTH",
"20 21 OFFCURVE",
"20 16 OFFCURVE",
"20 8 CURVE SMOOTH",
"20 2 OFFCURVE",
"20 -1 OFFCURVE",
"22 -3 CURVE"
);
}
);
width = 369;
}
);
unicode = 0050;
},
{
glyphname = Q;
lastChange = "2018-12-16 21:30:42 +0000";
layers = (
{
anchors = (
{
name = bottom;
position = "{230, 0}";
},
{
name = top;
position = "{230, 413}";
}
);
layerId = master01;
paths = (
{
closed = 1;
nodes = (
"393 -90 OFFCURVE",
"446 -75 OFFCURVE",
"483 -55 CURVE",
"483 -52 LINE SMOOTH",
"483 -44 OFFCURVE",
"480 -39 OFFCURVE",
"475 -39 CURVE SMOOTH",
"471 -39 OFFCURVE",
"442 -46 OFFCURVE",
"427 -46 CURVE SMOOTH",
"396 -46 OFFCURVE",
"370 -40 OFFCURVE",
"358 -34 CURVE SMOOTH",
"341 -26 OFFCURVE",
"312 -8 OFFCURVE",
"289 3 CURVE",
"360 23 OFFCURVE",
"432 99 OFFCURVE",
"432 206 CURVE SMOOTH",
"432 324 OFFCURVE",
"341 420 OFFCURVE",
"230 420 CURVE SMOOTH",
"118 420 OFFCURVE",
"28 323 OFFCURVE",
"28 206 CURVE SMOOTH",
"28 151 OFFCURVE",
"50 96 OFFCURVE",
"81 63 CURVE SMOOTH",
"111 30 OFFCURVE",
"144 9 OFFCURVE",
"174 0 CURVE SMOOTH",
"207 -10 OFFCURVE",
"260 -51 OFFCURVE",
"297 -73 CURVE SMOOTH",
"317 -85 OFFCURVE",
"337 -90 OFFCURVE",
"357 -90 CURVE SMOOTH"
);
},
{
closed = 1;
nodes = (
"172 30 OFFCURVE",
"130 118 OFFCURVE",
"130 219 CURVE SMOOTH",
"130 312 OFFCURVE",
"165 383 OFFCURVE",
"220 383 CURVE SMOOTH",
"287 383 OFFCURVE",
"329 295 OFFCURVE",
"329 195 CURVE SMOOTH",
"329 103 OFFCURVE",
"295 30 OFFCURVE",
"238 30 CURVE SMOOTH"
);
}
);
width = 460;
}
);
unicode = 0051;
},
{
glyphname = R;
lastChange = "2018-12-16 21:30:42 +0000";
layers = (
{
anchors = (
{
name = bottom;
position = "{229, 0}";
},
{
name = top;
position = "{229, 413}";
}
);
layerId = master01;
paths = (
{
closed = 1;
nodes = (
"413 -5 OFFCURVE",
"421 -4 OFFCURVE",
"427 -3 CURVE",
"429 1 OFFCURVE",
"429 5 OFFCURVE",
"429 10 CURVE SMOOTH",
"429 16 OFFCURVE",
"429 19 OFFCURVE",
"427 21 CURVE",
"392 21 OFFCURVE",
"362 58 OFFCURVE",
"330 100 CURVE SMOOTH",
"303 136 OFFCURVE",
"280 171 OFFCURVE",
"254 200 CURVE",
"253 189 LINE",
"326 215 OFFCURVE",
"349 255 OFFCURVE",
"349 311 CURVE SMOOTH",
"349 372 OFFCURVE",
"299 414 OFFCURVE",
"217 414 CURVE SMOOTH",
"115 414 LINE SMOOTH",
"92 414 OFFCURVE",
"61 415 OFFCURVE",
"21 417 CURVE",
"20 416 OFFCURVE",
"19 412 OFFCURVE",
"19 405 CURVE SMOOTH",
"19 398 OFFCURVE",
"20 394 OFFCURVE",
"21 394 CURVE SMOOTH",
"31 394 OFFCURVE",
"61 382 OFFCURVE",
"63 376 CURVE SMOOTH",
"66 366 OFFCURVE",
"67 350 OFFCURVE",
"67 327 CURVE SMOOTH",
"67 90 LINE SMOOTH",
"67 64 OFFCURVE",
"66 45 OFFCURVE",
"63 35 CURVE SMOOTH",
"61 28 OFFCURVE",
"32 21 OFFCURVE",
"22 21 CURVE SMOOTH",
"20 21 OFFCURVE",
"20 16 OFFCURVE",
"20 8 CURVE SMOOTH",
"20 2 OFFCURVE",
"20 -1 OFFCURVE",
"22 -3 CURVE",
"54 -1 OFFCURVE",
"85 1 OFFCURVE",
"116 1 CURVE SMOOTH",
"130 1 OFFCURVE",
"163 0 OFFCURVE",
"214 -3 CURVE",
"214 0 OFFCURVE",
"215 4 OFFCURVE",
"215 9 CURVE SMOOTH",
"215 17 OFFCURVE",
"214 21 OFFCURVE",
"213 21 CURVE SMOOTH",
"200 21 OFFCURVE",
"166 27 OFFCURVE",
"164 37 CURVE SMOOTH",
"161 51 OFFCURVE",
"159 68 OFFCURVE",
"159 88 CURVE SMOOTH",
"159 182 LINE",
"161 183 OFFCURVE",
"162 183 OFFCURVE",
"163 183 CURVE SMOOTH",
"167 183 OFFCURVE",
"171 179 OFFCURVE",
"173 177 CURVE",
"236 83 LINE SMOOTH",
"276 23 OFFCURVE",
"315 -5 OFFCURVE",
"404 -5 CURVE SMOOTH"
);
},
{
closed = 1;
nodes = (
"171 218 OFFCURVE",
"164 219 OFFCURVE",
"159 220 CURVE",
"159 310 LINE SMOOTH",
"159 349 OFFCURVE",
"161 371 OFFCURVE",
"165 374 CURVE SMOOTH",
"169 377 OFFCURVE",
"175 379 OFFCURVE",
"188 379 CURVE SMOOTH",
"225 379 OFFCURVE",
"248 352 OFFCURVE",
"248 298 CURVE SMOOTH",
"248 249 OFFCURVE",
"227 218 OFFCURVE",
"180 218 CURVE SMOOTH",
"178 218 LINE SMOOTH"
);
}
);
width = 418;
}
);
unicode = 0052;
},
{
glyphname = S;
lastChange = "2018-12-16 21:30:42 +0000";
layers = (
{
anchors = (
{
name = bottom;
position = "{156, 0}";
},
{
name = top;
position = "{156, 413}";
}
);
layerId = master01;
paths = (
{
closed = 1;
nodes = (
"217 -6 OFFCURVE",
"291 37 OFFCURVE",
"291 115 CURVE SMOOTH",
"291 168 OFFCURVE",
"272 193 OFFCURVE",
"190 242 CURVE SMOOTH",
"124 282 OFFCURVE",
"109 305 OFFCURVE",
"109 334 CURVE SMOOTH",
"109 367 OFFCURVE",
"131 385 OFFCURVE",
"160 385 CURVE SMOOTH",
"202 385 OFFCURVE",
"226 354 OFFCURVE",
"241 295 CURVE",
"241 292 OFFCURVE",
"246 291 OFFCURVE",
"255 291 CURVE SMOOTH",
"263 291 OFFCURVE",
"268 293 OFFCURVE",
"270 297 CURVE",
"270 325 OFFCURVE",
"268 360 OFFCURVE",
"264 404 CURVE",
"226 416 OFFCURVE",
"191 421 OFFCURVE",
"171 421 CURVE SMOOTH",
"85 421 OFFCURVE",
"21 365 OFFCURVE",
"21 305 CURVE SMOOTH",
"21 254 OFFCURVE",
"37 228 OFFCURVE",
"115 179 CURVE SMOOTH",
"181 138 OFFCURVE",
"199 117 OFFCURVE",
"199 85 CURVE SMOOTH",
"199 53 OFFCURVE",
"180 30 OFFCURVE",
"143 30 CURVE SMOOTH",
"88 30 OFFCURVE",
"57 71 OFFCURVE",
"45 118 CURVE",
"45 120 OFFCURVE",
"39 121 OFFCURVE",
"29 121 CURVE SMOOTH",
"19 121 OFFCURVE",
"15 119 OFFCURVE",
"13 115 CURVE",
"13 95 OFFCURVE",
"21 34 OFFCURVE",
"27 10 CURVE",
"75 0 OFFCURVE",
"99 -6 OFFCURVE",
"134 -6 CURVE SMOOTH"
);
}
);
width = 311;
}
);
unicode = 0053;
},
{
glyphname = T;
lastChange = "2018-12-16 21:30:42 +0000";
layers = (
{
anchors = (
{
name = bottom;
position = "{209, 0}";
},
{
name = stroke;
position = "{209, 207}";
},
{
name = top;
position = "{209, 413}";
}
);
layerId = master01;
paths = (
{
closed = 1;
nodes = (
"131 -1 OFFCURVE",
"184 3 OFFCURVE",
"208 3 CURVE SMOOTH",
"242 3 OFFCURVE",
"280 -1 OFFCURVE",
"310 -3 CURVE",
"311 0 OFFCURVE",
"311 4 OFFCURVE",
"311 9 CURVE SMOOTH",
"311 17 OFFCURVE",
"311 21 OFFCURVE",
"309 21 CURVE SMOOTH",
"287 21 OFFCURVE",
"259 33 OFFCURVE",
"258 37 CURVE",
"254 50 OFFCURVE",
"253 67 OFFCURVE",
"253 87 CURVE SMOOTH",
"253 314 LINE SMOOTH",
"253 339 OFFCURVE",
"254 360 OFFCURVE",
"258 372 CURVE",
"259 380 OFFCURVE",
"283 381 OFFCURVE",
"316 381 CURVE SMOOTH",
"349 381 OFFCURVE",
"372 358 OFFCURVE",
"383 318 CURVE",
"383 316 OFFCURVE",
"385 314 OFFCURVE",
"389 314 CURVE SMOOTH",
"399 314 OFFCURVE",
"405 316 OFFCURVE",
"408 319 CURVE",
"396 424 LINE",
"380 420 OFFCURVE",
"366 417 OFFCURVE",
"352 417 CURVE",
"313 414 OFFCURVE",
"246 413 OFFCURVE",
"207 413 CURVE SMOOTH",
"168 413 OFFCURVE",
"102 414 OFFCURVE",
"63 417 CURVE",
"49 417 OFFCURVE",
"35 420 OFFCURVE",
"19 424 CURVE",
"7 320 LINE",
"10 316 OFFCURVE",
"16 315 OFFCURVE",
"26 315 CURVE SMOOTH",
"30 315 OFFCURVE",
"32 316 OFFCURVE",
"32 318 CURVE",
"43 360 OFFCURVE",
"65 381 OFFCURVE",
"99 381 CURVE SMOOTH",
"134 381 OFFCURVE",
"151 381 OFFCURVE",
"155 372 CURVE",
"158 366 OFFCURVE",
"160 344 OFFCURVE",
"160 312 CURVE SMOOTH",
"160 85 LINE SMOOTH",
"160 65 OFFCURVE",
"159 49 OFFCURVE",
"156 37 CURVE",
"154 32 OFFCURVE",
"127 21 OFFCURVE",
"102 21 CURVE SMOOTH",
"101 21 OFFCURVE",
"100 17 OFFCURVE",
"100 8 CURVE SMOOTH",
"100 2 OFFCURVE",
"101 -1 OFFCURVE",
"103 -3 CURVE"
);
}
);
width = 413;
}
);
unicode = 0054;
},
{
glyphname = U;
lastChange = "2018-12-16 21:30:42 +0000";
layers = (
{
anchors = (
{
name = bottom;
position = "{242, 0}";
},
{
name = ogonek;
position = "{328, 6}";
},
{
name = top;
position = "{242, 413}";
},
{
name = topright;
position = "{467, 413}";
}
);
layerId = master01;
paths = (
{
closed = 1;
nodes = (
"337 -4 OFFCURVE",
"398 60 OFFCURVE",
"398 176 CURVE SMOOTH",
"398 326 LINE SMOOTH",
"398 349 OFFCURVE",
"401 364 OFFCURVE",
"407 370 CURVE SMOOTH",
"421 385 OFFCURVE",
"435 392 OFFCURVE",
"460 392 CURVE SMOOTH",
"462 392 OFFCURVE",
"463 396 OFFCURVE",
"463 404 CURVE SMOOTH",
"463 409 OFFCURVE",
"462 413 OFFCURVE",
"460 416 CURVE",
"451 415 OFFCURVE",
"403 411 OFFCURVE",
"381 411 CURVE SMOOTH",
"364 411 OFFCURVE",
"336 413 OFFCURVE",
"297 416 CURVE",
"297 415 OFFCURVE",
"296 412 OFFCURVE",
"296 407 CURVE SMOOTH",
"296 398 OFFCURVE",
"298 392 OFFCURVE",
"300 392 CURVE SMOOTH",
"314 392 OFFCURVE",
"342 381 OFFCURVE",
"348 373 CURVE",
"354 367 OFFCURVE",
"357 353 OFFCURVE",
"357 329 CURVE SMOOTH",
"357 179 LINE SMOOTH",
"357 88 OFFCURVE",
"319 49 OFFCURVE",
"261 49 CURVE SMOOTH",
"193 49 OFFCURVE",
"157 86 OFFCURVE",
"157 160 CURVE SMOOTH",
"157 324 LINE SMOOTH",
"157 348 OFFCURVE",
"158 366 OFFCURVE",
"161 377 CURVE SMOOTH",
"162 381 OFFCURVE",
"192 392 OFFCURVE",
"202 392 CURVE SMOOTH",
"204 392 OFFCURVE",
"204 396 OFFCURVE",
"204 404 CURVE SMOOTH",
"204 408 OFFCURVE",
"204 412 OFFCURVE",
"203 416 CURVE",
"151 413 OFFCURVE",
"121 412 OFFCURVE",
"113 412 CURVE SMOOTH",
"97 412 OFFCURVE",
"73 413 OFFCURVE",
"20 416 CURVE",
"19 415 OFFCURVE",
"18 411 OFFCURVE",
"18 403 CURVE SMOOTH",
"18 396 OFFCURVE",
"19 392 OFFCURVE",
"21 392 CURVE SMOOTH",
"31 392 OFFCURVE",
"55 382 OFFCURVE",
"59 376 CURVE",
"63 371 OFFCURVE",
"65 355 OFFCURVE",
"65 328 CURVE SMOOTH",
"65 182 LINE SMOOTH",
"65 53 OFFCURVE",
"125 -4 OFFCURVE",
"242 -4 CURVE SMOOTH"
);
}
);
width = 463;
}
);
unicode = 0055;
},
{
glyphname = V;
lastChange = "2018-12-16 21:30:42 +0000";
layers = (
{
anchors = (
{
name = bottom;
position = "{221, 0}";
},
{
name = top;
position = "{221, 413}";
}
);
layerId = master01;
paths = (
{
closed = 1;
nodes = (
"226 -6 OFFCURVE",
"235 2 OFFCURVE",
"239 12 CURVE SMOOTH",
"379 331 LINE SMOOTH",
"391 359 OFFCURVE",
"399 373 OFFCURVE",
"401 374 CURVE",
"415 384 OFFCURVE",
"441 393 OFFCURVE",
"449 393 CURVE SMOOTH",
"450 393 OFFCURVE",
"450 397 OFFCURVE",
"450 406 CURVE SMOOTH",
"450 411 OFFCURVE",
"450 414 OFFCURVE",
"448 416 CURVE",
"407 414 OFFCURVE",
"384 411 OFFCURVE",
"375 411 CURVE SMOOTH",
"366 411 OFFCURVE",
"354 412 OFFCURVE",
"301 416 CURVE",
"301 413 OFFCURVE",
"300 409 OFFCURVE",
"300 402 CURVE SMOOTH",
"300 396 OFFCURVE",
"301 393 OFFCURVE",
"302 392 CURVE",
"329 392 OFFCURVE",
"347 382 OFFCURVE",
"347 370 CURVE SMOOTH",
"347 361 OFFCURVE",
"342 346 OFFCURVE",
"334 328 CURVE SMOOTH",
"237 102 LINE",
"256 102 LINE",
"164 329 LINE SMOOTH",
"155 352 OFFCURVE",
"150 365 OFFCURVE",
"150 369 CURVE SMOOTH",
"150 384 OFFCURVE",
"177 392 OFFCURVE",
"192 392 CURVE SMOOTH",
"194 392 OFFCURVE",
"194 395 OFFCURVE",
"194 403 CURVE SMOOTH",
"194 410 OFFCURVE",
"194 414 OFFCURVE",
"192 416 CURVE",
"129 412 OFFCURVE",
"104 410 OFFCURVE",
"92 410 CURVE SMOOTH",
"82 410 OFFCURVE",
"27 413 OFFCURVE",
"2 416 CURVE",
"1 415 OFFCURVE",
"1 410 OFFCURVE",
"1 403 CURVE SMOOTH",
"1 396 OFFCURVE",
"1 392 OFFCURVE",
"3 392 CURVE SMOOTH",
"15 392 OFFCURVE",
"45 384 OFFCURVE",
"50 370 CURVE",
"50 368 OFFCURVE",
"57 352 OFFCURVE",
"70 320 CURVE SMOOTH",
"196 8 LINE",
"200 -3 OFFCURVE",
"208 -6 OFFCURVE",
"216 -6 CURVE SMOOTH"
);
}
);
width = 440;
}
);
unicode = 0056;
},
{
glyphname = W;
lastChange = "2018-12-16 21:30:42 +0000";
layers = (
{
anchors = (
{
name = bottom;
position = "{350, 0}";
},
{
name = top;
position = "{350, 413}";
}
);
layerId = master01;
paths = (
{
closed = 1;
nodes = (
"257 -9 OFFCURVE",
"264 -2 OFFCURVE",
"272 12 CURVE SMOOTH",
"447 321 LINE",
"458 343 OFFCURVE",
"470 361 OFFCURVE",
"482 374 CURVE SMOOTH",
"490 383 OFFCURVE",
"515 393 OFFCURVE",
"528 393 CURVE SMOOTH",
"529 393 OFFCURVE",
"530 396 OFFCURVE",
"530 400 CURVE SMOOTH",
"530 406 OFFCURVE",
"528 413 OFFCURVE",
"528 416 CURVE",
"476 413 OFFCURVE",
"448 412 OFFCURVE",
"448 412 CURVE SMOOTH",
"438 412 OFFCURVE",
"414 413 OFFCURVE",
"373 416 CURVE",
"372 415 OFFCURVE",
"370 409 OFFCURVE",
"370 404 CURVE SMOOTH",
"370 399 OFFCURVE",
"372 393 OFFCURVE",
"373 393 CURVE SMOOTH",
"384 393 OFFCURVE",
"420 388 OFFCURVE",
"420 373 CURVE SMOOTH",
"420 369 OFFCURVE",
"415 358 OFFCURVE",
"407 340 CURVE",
"278 116 LINE",
"283 116 LINE",
"163 354 LINE",
"160 359 OFFCURVE",
"157 365 OFFCURVE",
"157 371 CURVE SMOOTH",
"157 386 OFFCURVE",
"165 392 OFFCURVE",
"185 392 CURVE",
"187 393 OFFCURVE",
"187 396 OFFCURVE",
"187 400 CURVE SMOOTH",
"187 406 OFFCURVE",
"186 413 OFFCURVE",
"185 416 CURVE",
"134 413 OFFCURVE",
"104 412 OFFCURVE",
"97 412 CURVE SMOOTH",
"92 412 OFFCURVE",
"66 413 OFFCURVE",
"7 416 CURVE",
"7 415 OFFCURVE",
"6 411 OFFCURVE",
"6 404 CURVE SMOOTH",
"6 396 OFFCURVE",
"7 392 OFFCURVE",
"8 392 CURVE SMOOTH",
"19 392 OFFCURVE",
"39 387 OFFCURVE",
"46 379 CURVE",
"54 369 OFFCURVE",
"63 354 OFFCURVE",
"74 332 CURVE SMOOTH",
"246 -6 LINE",
"246 -7 OFFCURVE",
"248 -9 OFFCURVE",
"251 -9 CURVE SMOOTH"
);
},
{
closed = 1;
nodes = (
"439 -9 OFFCURVE",
"446 -2 OFFCURVE",
"454 12 CURVE",
"611 321 LINE SMOOTH",
"624 345 OFFCURVE",
"636 363 OFFCURVE",
"648 375 CURVE SMOOTH",
"656 383 OFFCURVE",
"680 393 OFFCURVE",
"693 393 CURVE SMOOTH",
"694 393 OFFCURVE",
"695 395 OFFCURVE",
"695 399 CURVE SMOOTH",
"695 407 OFFCURVE",
"694 413 OFFCURVE",
"693 416 CURVE",
"612 412 LINE",
"603 412 OFFCURVE",
"577 413 OFFCURVE",
"536 416 CURVE",
"535 415 OFFCURVE",
"534 409 OFFCURVE",
"534 404 CURVE SMOOTH",
"534 399 OFFCURVE",
"535 393 OFFCURVE",
"537 393 CURVE SMOOTH",
"552 393 OFFCURVE",
"583 387 OFFCURVE",
"583 373 CURVE SMOOTH",
"583 367 OFFCURVE",
"579 357 OFFCURVE",
"571 342 CURVE SMOOTH",
"457 122 LINE",
"462 119 LINE",
"342 356 LINE SMOOTH",
"340 360 OFFCURVE",
"336 367 OFFCURVE",
"336 373 CURVE SMOOTH",
"336 387 OFFCURVE",
"351 392 OFFCURVE",
"365 392 CURVE",
"366 393 OFFCURVE",
"367 396 OFFCURVE",
"367 400 CURVE SMOOTH",
"367 406 OFFCURVE",
"365 413 OFFCURVE",
"365 416 CURVE",
"313 413 OFFCURVE",
"284 412 OFFCURVE",
"279 412 CURVE SMOOTH",
"275 412 OFFCURVE",
"250 413 OFFCURVE",
"194 416 CURVE",
"193 415 OFFCURVE",
"192 411 OFFCURVE",
"192 404 CURVE SMOOTH",
"192 396 OFFCURVE",
"193 392 OFFCURVE",
"195 392 CURVE SMOOTH",
"206 392 OFFCURVE",
"217 387 OFFCURVE",
"229 376 CURVE",
"233 372 OFFCURVE",
"242 358 OFFCURVE",
"256 332 CURVE SMOOTH",
"426 -6 LINE",
"427 -7 OFFCURVE",
"429 -9 OFFCURVE",
"432 -9 CURVE SMOOTH"
);
}
);
width = 700;
}
);
unicode = 0057;
},
{
glyphname = X;
lastChange = "2018-12-16 21:30:42 +0000";
layers = (
{
anchors = (
{
name = bottom;
position = "{227, 0}";
},
{
name = top;
position = "{227, 413}";
}
);
layerId = master01;
paths = (
{
closed = 1;
nodes = (
"55 0 OFFCURVE",
"82 1 OFFCURVE",
"84 1 CURVE SMOOTH",
"99 1 OFFCURVE",
"130 0 OFFCURVE",
"172 -3 CURVE",
"172 -1 OFFCURVE",
"173 3 OFFCURVE",
"173 8 CURVE SMOOTH",
"173 17 OFFCURVE",
"172 21 OFFCURVE",
"170 21 CURVE SMOOTH",
"148 21 OFFCURVE",
"123 29 OFFCURVE",
"123 42 CURVE SMOOTH",
"123 49 OFFCURVE",
"127 56 OFFCURVE",
"137 70 CURVE SMOOTH",
"206 167 LINE",
"281 53 LINE",
"286 46 OFFCURVE",
"288 41 OFFCURVE",
"288 39 CURVE SMOOTH",
"288 29 OFFCURVE",
"263 21 OFFCURVE",
"253 21 CURVE SMOOTH",
"251 21 OFFCURVE",
"249 14 OFFCURVE",
"249 7 CURVE SMOOTH",
"249 3 OFFCURVE",
"250 -1 OFFCURVE",
"251 -3 CURVE",
"268 -1 OFFCURVE",
"334 1 OFFCURVE",
"351 1 CURVE SMOOTH",
"363 1 OFFCURVE",
"395 0 OFFCURVE",
"446 -3 CURVE",
"448 0 OFFCURVE",
"448 3 OFFCURVE",
"448 7 CURVE SMOOTH",
"448 17 OFFCURVE",
"448 21 OFFCURVE",
"447 21 CURVE SMOOTH",
"438 21 OFFCURVE",
"406 28 OFFCURVE",
"382 63 CURVE SMOOTH",
"275 223 LINE",
"383 367 LINE SMOOTH",
"397 386 OFFCURVE",
"426 392 OFFCURVE",
"438 392 CURVE SMOOTH",
"440 392 OFFCURVE",
"440 395 OFFCURVE",
"440 402 CURVE SMOOTH",
"440 409 OFFCURVE",
"440 414 OFFCURVE",
"438 416 CURVE",
"387 413 OFFCURVE",
"359 412 OFFCURVE",
"353 412 CURVE SMOOTH",
"349 412 OFFCURVE",
"325 413 OFFCURVE",
"278 416 CURVE",
"277 415 OFFCURVE",
"275 409 OFFCURVE",
"275 404 CURVE SMOOTH",
"275 398 OFFCURVE",
"277 392 OFFCURVE",
"278 392 CURVE SMOOTH",
"301 392 OFFCURVE",
"325 384 OFFCURVE",
"325 376 CURVE SMOOTH",
"325 367 OFFCURVE",
"319 358 OFFCURVE",
"306 339 CURVE SMOOTH",
"250 261 LINE",
"181 366 LINE",
"178 371 OFFCURVE",
"176 375 OFFCURVE",
"176 380 CURVE",
"177 387 OFFCURVE",
"197 392 OFFCURVE",
"209 392 CURVE SMOOTH",
"210 392 OFFCURVE",
"211 399 OFFCURVE",
"211 406 CURVE SMOOTH",
"211 411 OFFCURVE",
"211 414 OFFCURVE",
"210 416 CURVE",
"159 413 OFFCURVE",
"128 412 OFFCURVE",
"118 412 CURVE SMOOTH",
"103 412 OFFCURVE",
"53 414 OFFCURVE",
"29 416 CURVE",
"27 414 OFFCURVE",
"26 410 OFFCURVE",
"26 403 CURVE SMOOTH",
"26 396 OFFCURVE",
"27 392 OFFCURVE",
"29 392 CURVE SMOOTH",
"42 392 OFFCURVE",
"53 389 OFFCURVE",
"62 383 CURVE",
"65 380 OFFCURVE",
"76 363 OFFCURVE",
"94 336 CURVE SMOOTH",
"180 205 LINE",
"59 43 LINE SMOOTH",
"50 31 OFFCURVE",
"14 21 OFFCURVE",
"3 21 CURVE SMOOTH",
"2 21 OFFCURVE",
"1 16 OFFCURVE",
"1 6 CURVE",
"4 -3 LINE"
);
}
);
width = 451;
}
);
unicode = 0058;
},
{
glyphname = Y;
lastChange = "2018-12-16 21:30:42 +0000";
layers = (
{
anchors = (
{
name = bottom;
position = "{197, 0}";
},
{
name = top;
position = "{197, 413}";
},
{
name = topleft;
position = "{-2, 413}";
}
);
layerId = master01;
paths = (
{
closed = 1;
nodes = (
"122 -1 OFFCURVE",
"176 3 OFFCURVE",
"200 3 CURVE SMOOTH",
"214 3 OFFCURVE",
"276 -1 OFFCURVE",
"290 -3 CURVE",
"290 1 OFFCURVE",
"291 6 OFFCURVE",
"291 9 CURVE SMOOTH",
"291 18 OFFCURVE",
"290 21 OFFCURVE",
"289 21 CURVE SMOOTH",
"279 21 OFFCURVE",
"251 33 OFFCURVE",
"250 37 CURVE SMOOTH",
"246 52 OFFCURVE",
"245 71 OFFCURVE",
"245 92 CURVE SMOOTH",
"245 192 LINE SMOOTH",
"245 197 OFFCURVE",
"249 207 OFFCURVE",
"257 220 CURVE SMOOTH",
"336 345 LINE",
"343 355 OFFCURVE",
"350 364 OFFCURVE",
"354 369 CURVE",
"364 383 OFFCURVE",
"384 392 OFFCURVE",
"402 392 CURVE SMOOTH",
"404 392 OFFCURVE",
"405 396 OFFCURVE",
"405 404 CURVE SMOOTH",
"405 408 OFFCURVE",
"404 412 OFFCURVE",
"403 416 CURVE",
"365 413 OFFCURVE",
"342 412 OFFCURVE",
"331 412 CURVE SMOOTH",
"317 412 OFFCURVE",
"292 413 OFFCURVE",
"255 416 CURVE",
"254 415 OFFCURVE",
"253 409 OFFCURVE",
"253 404 CURVE SMOOTH",
"253 397 OFFCURVE",
"254 392 OFFCURVE",
"256 392 CURVE SMOOTH",
"284 392 OFFCURVE",
"296 388 OFFCURVE",
"296 379 CURVE SMOOTH",
"296 373 OFFCURVE",
"293 363 OFFCURVE",
"289 357 CURVE",
"234 266 LINE",
"231 260 OFFCURVE",
"228 257 OFFCURVE",
"226 257 CURVE SMOOTH",
"224 257 OFFCURVE",
"224 258 OFFCURVE",
"221 262 CURVE",
"161 366 LINE",
"158 372 OFFCURVE",
"157 377 OFFCURVE",
"157 380 CURVE SMOOTH",
"157 386 OFFCURVE",
"173 392 OFFCURVE",
"189 392 CURVE SMOOTH",
"191 392 OFFCURVE",
"192 399 OFFCURVE",
"192 406 CURVE SMOOTH",
"192 410 OFFCURVE",
"191 414 OFFCURVE",
"191 416 CURVE",
"143 413 OFFCURVE",
"111 412 OFFCURVE",
"100 412 CURVE SMOOTH",
"87 412 OFFCURVE",
"47 414 OFFCURVE",
"9 416 CURVE",
"7 414 OFFCURVE",
"6 411 OFFCURVE",
"6 403 CURVE SMOOTH",
"6 395 OFFCURVE",
"7 392 OFFCURVE",
"9 392 CURVE SMOOTH",
"21 392 OFFCURVE",
"30 389 OFFCURVE",
"41 383 CURVE",
"49 379 OFFCURVE",
"58 366 OFFCURVE",
"75 336 CURVE SMOOTH",
"142 221 LINE SMOOTH",
"147 212 OFFCURVE",
"152 200 OFFCURVE",
"152 198 CURVE SMOOTH",
"152 87 LINE SMOOTH",
"152 63 OFFCURVE",
"151 47 OFFCURVE",
"148 37 CURVE",
"146 32 OFFCURVE",
"119 21 OFFCURVE",
"106 21 CURVE SMOOTH",
"105 21 OFFCURVE",
"105 17 OFFCURVE",
"105 8 CURVE SMOOTH",
"105 3 OFFCURVE",
"105 -1 OFFCURVE",
"107 -3 CURVE"
);
}
);
width = 402;
}
);
unicode = 0059;
},
{
glyphname = Z;
lastChange = "2018-12-16 21:30:42 +0000";
layers = (
{
anchors = (
{
name = bottom;
position = "{204, 0}";
},
{
name = center;
position = "{204, 207}";
},
{
name = top;
position = "{204, 413}";
}
);
layerId = master01;
paths = (
{
closed = 1;
nodes = (
"353 0 LINE",
"355 21 OFFCURVE",
"381 91 OFFCURVE",
"388 110 CURVE",
"385 112 OFFCURVE",
"378 113 OFFCURVE",
"368 113 CURVE SMOOTH",
"363 113 OFFCURVE",
"361 112 OFFCURVE",
"360 109 CURVE SMOOTH",
"346 69 OFFCURVE",
"307 36 OFFCURVE",
"247 36 CURVE SMOOTH",
"127 36 LINE",
"127 20 LINE",
"376 398 LINE",
"376 404 OFFCURVE",
"372 418 OFFCURVE",
"370 418 CURVE",
"312 414 OFFCURVE",
"262 412 OFFCURVE",
"222 412 CURVE SMOOTH",
"154 412 LINE SMOOTH",
"91 412 OFFCURVE",
"62 413 OFFCURVE",
"51 415 CURVE",
"49 394 OFFCURVE",
"43 356 OFFCURVE",
"33 302 CURVE",
"35 300 OFFCURVE",
"41 300 OFFCURVE",
"54 300 CURVE SMOOTH",
"58 300 OFFCURVE",
"61 301 OFFCURVE",
"62 304 CURVE SMOOTH",
"82 363 OFFCURVE",
"100 376 OFFCURVE",
"150 376 CURVE SMOOTH",
"282 376 LINE",
"270 399 LINE",
"24 27 LINE",
"22 25 OFFCURVE",
"21 21 OFFCURVE",
"21 16 CURVE SMOOTH",
"21 9 OFFCURVE",
"23 4 OFFCURVE",
"27 0 CURVE"
);
}
);
width = 408;
}
);
unicode = 005A;
},
{
glyphname = a;
lastChange = "2018-12-16 21:30:42 +0000";
layers = (
{
anchors = (
{
name = bottom;
position = "{157, 0}";
},
{
name = ogonek;
position = "{247, 6}";
},
{
name = top;
position = "{157, 276}";
}
);
layerId = master01;
paths = (
{
closed = 1;
nodes = (
"130 -4 OFFCURVE",
"156 12 OFFCURVE",
"187 48 CURVE",
"167 41 LINE",
"185 13 OFFCURVE",
"199 -4 OFFCURVE",
"228 -4 CURVE SMOOTH",
"250 -4 OFFCURVE",
"283 9 OFFCURVE",
"297 23 CURVE",
"300 28 OFFCURVE",
"302 36 OFFCURVE",
"302 48 CURVE SMOOTH",
"302 52 OFFCURVE",
"300 56 OFFCURVE",
"297 58 CURVE",
"290 52 OFFCURVE",
"283 50 OFFCURVE",
"276 50 CURVE SMOOTH",
"261 50 OFFCURVE",
"255 62 OFFCURVE",
"255 87 CURVE SMOOTH",
"255 199 LINE SMOOTH",
"255 262 OFFCURVE",
"226 282 OFFCURVE",
"174 282 CURVE SMOOTH",
"110 282 OFFCURVE",
"24 231 OFFCURVE",
"24 196 CURVE SMOOTH",
"24 184 OFFCURVE",
"34 172 OFFCURVE",
"62 172 CURVE SMOOTH",
"86 172 OFFCURVE",
"100 184 OFFCURVE",
"102 202 CURVE SMOOTH",
"106 234 OFFCURVE",
"117 246 OFFCURVE",
"140 246 CURVE SMOOTH",
"159 246 OFFCURVE",
"169 232 OFFCURVE",
"169 210 CURVE SMOOTH",
"169 171 LINE SMOOTH",
"169 166 OFFCURVE",
"167 163 OFFCURVE",
"164 162 CURVE SMOOTH",
"81 136 LINE SMOOTH",
"41 123 OFFCURVE",
"18 97 OFFCURVE",
"18 62 CURVE SMOOTH",
"18 22 OFFCURVE",
"52 -4 OFFCURVE",
"97 -4 CURVE SMOOTH"
);
},
{
closed = 1;
nodes = (
"117 46 OFFCURVE",
"104 61 OFFCURVE",
"104 81 CURVE SMOOTH",
"104 99 OFFCURVE",
"114 112 OFFCURVE",
"132 118 CURVE SMOOTH",
"169 131 LINE",
"169 63 LINE SMOOTH",
"169 51 OFFCURVE",
"154 46 OFFCURVE",
"139 46 CURVE SMOOTH"
);
}
);
width = 307;
}
);
unicode = 0061;
},
{
glyphname = b;
lastChange = "2018-12-16 21:30:42 +0000";
layers = (
{
anchors = (
{
name = bottom;
position = "{169, 0}";
},
{
name = top;
position = "{169, 413}";
}
);
layerId = master01;
paths = (
{
closed = 1;
nodes = (
"76 -1 OFFCURVE",
"91 7 OFFCURVE",
"103 7 CURVE SMOOTH",
"123 7 OFFCURVE",
"144 -5 OFFCURVE",
"183 -5 CURVE SMOOTH",
"261 -5 OFFCURVE",
"335 66 OFFCURVE",
"335 141 CURVE SMOOTH",
"335 221 OFFCURVE",
"273 281 OFFCURVE",
"199 281 CURVE SMOOTH",
"181 281 OFFCURVE",
"161 277 OFFCURVE",
"134 258 CURVE",
"134 361 LINE SMOOTH",
"134 384 OFFCURVE",
"137 406 OFFCURVE",
"141 426 CURVE",
"140 432 OFFCURVE",
"136 437 OFFCURVE",
"133 437 CURVE",
"86 424 OFFCURVE",
"46 416 OFFCURVE",
"6 412 CURVE",
"4 412 OFFCURVE",
"3 408 OFFCURVE",
"3 400 CURVE SMOOTH",
"3 391 OFFCURVE",
"4 386 OFFCURVE",
"6 386 CURVE SMOOTH",
"12 386 LINE SMOOTH",
"31 386 OFFCURVE",
"43 383 OFFCURVE",
"45 376 CURVE",
"47 364 OFFCURVE",
"48 349 OFFCURVE",
"48 331 CURVE SMOOTH",
"48 80 LINE SMOOTH",
"48 57 OFFCURVE",
"43 13 OFFCURVE",
"44 10 CURVE",
"48 3 OFFCURVE",
"58 -5 OFFCURVE",
"65 -6 CURVE"
);
},
{
closed = 1;
nodes = (
"155 30 OFFCURVE",
"134 50 OFFCURVE",
"134 76 CURVE SMOOTH",
"134 210 LINE SMOOTH",
"134 223 OFFCURVE",
"142 234 OFFCURVE",
"163 234 CURVE SMOOTH",
"207 234 OFFCURVE",
"239 185 OFFCURVE",
"239 120 CURVE SMOOTH",
"239 56 OFFCURVE",
"217 30 OFFCURVE",
"180 30 CURVE SMOOTH"
);
}
);
width = 350;
}
);
unicode = 0062;
},
{
glyphname = c;
lastChange = "2018-12-16 21:30:42 +0000";
layers = (
{
anchors = (
{
name = bottom;
position = "{147, 0}";
},
{
name = top;
position = "{147, 276}";
}
);
layerId = master01;
paths = (
{
closed = 1;
nodes = (
"211 -4 OFFCURVE",
"253 25 OFFCURVE",
"269 58 CURVE",
"271 61 OFFCURVE",
"271 65 OFFCURVE",
"271 72 CURVE SMOOTH",
"271 77 OFFCURVE",
"269 81 OFFCURVE",
"265 84 CURVE",
"243 62 OFFCURVE",
"220 55 OFFCURVE",
"192 55 CURVE SMOOTH",
"143 55 OFFCURVE",
"109 91 OFFCURVE",
"109 162 CURVE SMOOTH",
"109 210 OFFCURVE",
"128 246 OFFCURVE",
"161 246 CURVE SMOOTH",
"177 246 OFFCURVE",
"187 238 OFFCURVE",
"194 220 CURVE SMOOTH",
"202 198 OFFCURVE",
"216 187 OFFCURVE",
"235 187 CURVE SMOOTH",
"257 187 OFFCURVE",
"272 204 OFFCURVE",
"272 224 CURVE SMOOTH",
"272 255 OFFCURVE",
"237 282 OFFCURVE",
"171 282 CURVE SMOOTH",
"83 282 OFFCURVE",
"15 221 OFFCURVE",
"15 136 CURVE SMOOTH",
"15 55 OFFCURVE",
"76 -4 OFFCURVE",
"157 -4 CURVE SMOOTH"
);
}
);
width = 288;
}
);
unicode = 0063;
},
{
glyphname = d;
lastChange = "2018-12-16 21:30:42 +0000";
layers = (
{
anchors = (
{
name = bottom;
position = "{180, 0}";
},
{
name = center;
position = "{180, 136}";
},
{
name = stroke;
position = "{229, 333}";
},
{
name = top;
position = "{180, 413}";
},
{
name = topright;
position = "{319, 276}";
}
);
layerId = master01;
paths = (
{
closed = 1;
nodes = (
"158 -4 OFFCURVE",
"187 8 OFFCURVE",
"215 29 CURVE",
"215 6 LINE SMOOTH",
"215 0 OFFCURVE",
"218 -4 OFFCURVE",
"223 -4 CURVE",
"250 1 OFFCURVE",
"315 11 OFFCURVE",
"340 13 CURVE",
"342 13 OFFCURVE",
"344 18 OFFCURVE",
"344 29 CURVE SMOOTH",
"344 34 OFFCURVE",
"343 37 OFFCURVE",
"342 38 CURVE",
"335 38 LINE SMOOTH",
"319 38 OFFCURVE",
"306 42 OFFCURVE",
"304 49 CURVE",
"302 61 OFFCURVE",
"301 76 OFFCURVE",
"301 94 CURVE SMOOTH",
"301 361 LINE SMOOTH",
"301 382 OFFCURVE",
"303 403 OFFCURVE",
"308 426 CURVE",
"306 432 OFFCURVE",
"303 437 OFFCURVE",
"299 437 CURVE SMOOTH",
"298 437 LINE",
"291 435 LINE SMOOTH",
"250 424 OFFCURVE",
"208 416 OFFCURVE",
"170 412 CURVE",
"167 412 OFFCURVE",
"166 408 OFFCURVE",
"166 400 CURVE SMOOTH",
"166 391 OFFCURVE",
"167 386 OFFCURVE",
"170 386 CURVE SMOOTH",
"176 386 LINE SMOOTH",
"198 386 OFFCURVE",
"209 383 OFFCURVE",
"211 376 CURVE",
"213 364 OFFCURVE",
"215 349 OFFCURVE",
"215 331 CURVE SMOOTH",
"215 273 LINE",
"195 279 OFFCURVE",
"182 281 OFFCURVE",
"169 281 CURVE SMOOTH",
"86 281 OFFCURVE",
"15 209 OFFCURVE",
"15 127 CURVE SMOOTH",
"15 56 OFFCURVE",
"71 -4 OFFCURVE",
"135 -4 CURVE SMOOTH"
);
},
{
closed = 1;
nodes = (
"138 49 OFFCURVE",
"109 94 OFFCURVE",
"109 151 CURVE SMOOTH",
"109 207 OFFCURVE",
"135 244 OFFCURVE",
"170 244 CURVE SMOOTH",
"194 244 OFFCURVE",
"215 229 OFFCURVE",
"215 210 CURVE SMOOTH",
"215 84 LINE SMOOTH",
"215 65 OFFCURVE",
"200 49 OFFCURVE",
"182 49 CURVE SMOOTH"
);
}
);
width = 350;
}
);
unicode = 0064;
},
{
glyphname = e;
lastChange = "2018-12-16 21:30:42 +0000";
layers = (
{
anchors = (
{
name = bottom;
position = "{147, 0}";
},
{
name = ogonek;
position = "{248, 6}";
},
{
name = top;
position = "{147, 276}";
}
);
layerId = master01;
paths = (
{
closed = 1;
nodes = (
"217 -4 OFFCURVE",
"259 26 OFFCURVE",
"275 58 CURVE",
"276 61 OFFCURVE",
"277 66 OFFCURVE",
"277 72 CURVE SMOOTH",
"277 77 OFFCURVE",
"274 81 OFFCURVE",
"271 84 CURVE",
"256 64 OFFCURVE",
"229 55 OFFCURVE",
"203 55 CURVE SMOOTH",
"139 55 OFFCURVE",
"106 91 OFFCURVE",
"106 169 CURVE SMOOTH",
"106 218 OFFCURVE",
"124 246 OFFCURVE",
"154 246 CURVE SMOOTH",
"179 246 OFFCURVE",
"195 219 OFFCURVE",
"195 185 CURVE SMOOTH",
"195 177 OFFCURVE",
"192 173 OFFCURVE",
"186 173 CURVE SMOOTH",
"95 173 LINE",
"94 137 LINE",
"259 137 LINE SMOOTH",
"275 137 OFFCURVE",
"281 143 OFFCURVE",
"281 160 CURVE SMOOTH",
"281 229 OFFCURVE",
"228 282 OFFCURVE",
"157 282 CURVE SMOOTH",
"85 282 OFFCURVE",
"15 228 OFFCURVE",
"15 136 CURVE SMOOTH",
"15 55 OFFCURVE",
"76 -4 OFFCURVE",
"160 -4 CURVE SMOOTH"
);
}
);
width = 293;
}
);
unicode = 0065;
},
{
glyphname = f;
lastChange = "2018-12-16 21:30:42 +0000";
layers = (
{
anchors = (
{
name = bottom;
position = "{98, 0}";
},
{
name = top;
position = "{105, 413}";
}
);
layerId = master01;
paths = (
{
closed = 1;
nodes = (
"34 -1 OFFCURVE",
"87 3 OFFCURVE",
"98 3 CURVE SMOOTH",
"119 3 OFFCURVE",
"184 -2 OFFCURVE",
"190 -3 CURVE",
"191 7 LINE",
"191 14 OFFCURVE",
"190 21 OFFCURVE",
"188 21 CURVE SMOOTH",
"178 21 OFFCURVE",
"146 33 OFFCURVE",
"145 37 CURVE SMOOTH",
"142 48 OFFCURVE",
"141 67 OFFCURVE",
"141 95 CURVE SMOOTH",
"141 237 LINE",
"140 256 LINE",
"140 298 LINE SMOOTH",
"140 366 OFFCURVE",
"156 408 OFFCURVE",
"181 408 CURVE SMOOTH",
"207 408 OFFCURVE",
"206 353 OFFCURVE",
"239 353 CURVE SMOOTH",
"258 353 OFFCURVE",
"271 367 OFFCURVE",
"271 385 CURVE SMOOTH",
"271 415 OFFCURVE",
"240 437 OFFCURVE",
"196 437 CURVE SMOOTH",
"125 437 OFFCURVE",
"55 361 OFFCURVE",
"55 286 CURVE SMOOTH",
"55 84 LINE SMOOTH",
"55 65 OFFCURVE",
"54 49 OFFCURVE",
"51 37 CURVE",
"50 32 OFFCURVE",
"20 21 OFFCURVE",
"9 21 CURVE SMOOTH",
"7 21 OFFCURVE",
"7 18 OFFCURVE",
"7 11 CURVE SMOOTH",
"7 4 OFFCURVE",
"7 -1 OFFCURVE",
"9 -3 CURVE"
);
},
{
closed = 1;
nodes = (
"209 232 LINE",
"214 242 OFFCURVE",
"217 254 OFFCURVE",
"217 267 CURVE SMOOTH",
"217 270 OFFCURVE",
"216 271 OFFCURVE",
"214 271 CURVE SMOOTH",
"33 271 LINE SMOOTH",
"22 271 OFFCURVE",
"7 251 OFFCURVE",
"7 236 CURVE SMOOTH",
"7 233 OFFCURVE",
"7 232 OFFCURVE",
"9 232 CURVE SMOOTH"
);
}
);
width = 210;
}
);
unicode = 0066;
},
{
glyphname = g;
lastChange = "2018-12-16 21:30:42 +0000";
layers = (
{
anchors = (
{
name = bottom;
position = "{153, -140}";
},
{
name = top;
position = "{153, 276}";
}
);
layerId = master01;
paths = (
{
closed = 1;
nodes = (
"212 -143 OFFCURVE",
"299 -82 OFFCURVE",
"296 -16 CURVE SMOOTH",
"295 2 OFFCURVE",
"285 15 OFFCURVE",
"265 26 CURVE SMOOTH",
"245 37 OFFCURVE",
"204 47 OFFCURVE",
"159 47 CURVE SMOOTH",
"109 46 OFFCURVE",
"86 53 OFFCURVE",
"86 71 CURVE SMOOTH",
"86 76 OFFCURVE",
"91 89 OFFCURVE",
"107 99 CURVE",
"87 106 LINE",
"46 84 OFFCURVE",
"25 59 OFFCURVE",
"25 36 CURVE SMOOTH",
"25 13 OFFCURVE",
"55 -13 OFFCURVE",
"84 -14 CURVE SMOOTH",
"99 -15 LINE",
"196 -14 OFFCURVE",
"227 -24 OFFCURVE",
"227 -53 CURVE SMOOTH",
"227 -88 OFFCURVE",
"194 -113 OFFCURVE",
"151 -113 CURVE SMOOTH",
"116 -113 OFFCURVE",
"81 -88 OFFCURVE",
"81 -58 CURVE SMOOTH",
"81 -39 OFFCURVE",
"92 -21 OFFCURVE",
"122 -11 CURVE",
"96 -8 LINE",
"48 -22 OFFCURVE",
"16 -49 OFFCURVE",
"16 -77 CURVE SMOOTH",
"16 -113 OFFCURVE",
"66 -143 OFFCURVE",
"142 -143 CURVE SMOOTH"
);
},
{
closed = 1;
nodes = (
"124 118 OFFCURVE",
"108 151 OFFCURVE",
"108 195 CURVE SMOOTH",
"108 232 OFFCURVE",
"118 252 OFFCURVE",
"137 252 CURVE SMOOTH",
"157 252 OFFCURVE",
"174 217 OFFCURVE",
"174 175 CURVE SMOOTH",
"174 139 OFFCURVE",
"163 118 OFFCURVE",
"145 118 CURVE SMOOTH"
);
},
{
closed = 1;
nodes = (
"204 87 OFFCURVE",
"253 134 OFFCURVE",
"253 191 CURVE SMOOTH",
"253 214 OFFCURVE",
"245 226 OFFCURVE",
"229 245 CURVE",
"227 231 LINE",
"287 231 LINE SMOOTH",
"290 231 OFFCURVE",
"294 241 OFFCURVE",
"294 249 CURVE SMOOTH",
"294 257 OFFCURVE",
"292 267 OFFCURVE",
"290 268 CURVE",
"239 268 LINE SMOOTH",
"210 268 OFFCURVE",
"173 283 OFFCURVE",
"141 283 CURVE SMOOTH",
"72 283 OFFCURVE",
"26 244 OFFCURVE",
"26 184 CURVE SMOOTH",
"26 124 OFFCURVE",
"86 87 OFFCURVE",
"136 87 CURVE SMOOTH"
);
}
);
width = 306;
}
);
unicode = 0067;
},
{
glyphname = h;
lastChange = "2018-12-16 21:30:42 +0000";
layers = (
{
anchors = (
{
name = bottom;
position = "{187, 0}";
},
{
name = center;
position = "{187, 207}";
},
{
name = stroke;
position = "{125, 333}";
},
{
name = top;
position = "{187, 413}";
}
);
layerId = master01;
paths = (
{
closed = 1;
nodes = (
"13 -2 OFFCURVE",
"74 3 OFFCURVE",
"96 3 CURVE SMOOTH",
"118 3 OFFCURVE",
"173 -2 OFFCURVE",
"179 -3 CURVE",
"180 -1 OFFCURVE",
"181 3 OFFCURVE",
"181 7 CURVE SMOOTH",
"181 14 OFFCURVE",
"179 21 OFFCURVE",
"178 21 CURVE SMOOTH",
"169 21 OFFCURVE",
"145 33 OFFCURVE",
"144 37 CURVE SMOOTH",
"141 48 OFFCURVE",
"140 67 OFFCURVE",
"140 95 CURVE",
"139 183 LINE",
"139 208 OFFCURVE",
"162 225 OFFCURVE",
"188 225 CURVE SMOOTH",
"214 225 OFFCURVE",
"236 207 OFFCURVE",
"236 152 CURVE SMOOTH",
"236 86 LINE SMOOTH",
"236 66 OFFCURVE",
"235 50 OFFCURVE",
"232 37 CURVE",
"230 32 OFFCURVE",
"205 21 OFFCURVE",
"196 21 CURVE SMOOTH",
"194 21 OFFCURVE",
"193 18 OFFCURVE",
"193 11 CURVE SMOOTH",
"193 4 OFFCURVE",
"194 -1 OFFCURVE",
"196 -3 CURVE",
"202 -2 OFFCURVE",
"258 3 OFFCURVE",
"279 3 CURVE SMOOTH",
"299 3 OFFCURVE",
"361 -2 OFFCURVE",
"367 -3 CURVE",
"368 -1 OFFCURVE",
"369 3 OFFCURVE",
"369 7 CURVE SMOOTH",
"369 14 OFFCURVE",
"367 21 OFFCURVE",
"366 21 CURVE SMOOTH",
"359 21 OFFCURVE",
"328 32 OFFCURVE",
"326 37 CURVE SMOOTH",
"322 48 OFFCURVE",
"322 67 OFFCURVE",
"322 95 CURVE SMOOTH",
"322 152 LINE SMOOTH",
"322 251 OFFCURVE",
"283 281 OFFCURVE",
"233 281 CURVE SMOOTH",
"197 281 OFFCURVE",
"167 261 OFFCURVE",
"140 235 CURVE",
"140 361 LINE SMOOTH",
"140 384 OFFCURVE",
"142 406 OFFCURVE",
"147 426 CURVE",
"147 430 OFFCURVE",
"142 436 OFFCURVE",
"138 437 CURVE",
"98 425 OFFCURVE",
"56 417 OFFCURVE",
"12 412 CURVE",
"10 412 OFFCURVE",
"8 408 OFFCURVE",
"8 401 CURVE SMOOTH",
"8 391 OFFCURVE",
"10 387 OFFCURVE",
"12 387 CURVE SMOOTH",
"18 387 LINE SMOOTH",
"24 387 OFFCURVE",
"43 384 OFFCURVE",
"47 378 CURVE SMOOTH",
"52 370 OFFCURVE",
"54 353 OFFCURVE",
"54 324 CURVE SMOOTH",
"54 86 LINE SMOOTH",
"54 66 OFFCURVE",
"52 50 OFFCURVE",
"49 37 CURVE",
"47 32 OFFCURVE",
"17 21 OFFCURVE",
"8 21 CURVE SMOOTH",
"6 21 OFFCURVE",
"6 18 OFFCURVE",
"6 11 CURVE SMOOTH",
"6 4 OFFCURVE",
"6 -1 OFFCURVE",
"8 -3 CURVE"
);
}
);
width = 374;
}
);
unicode = 0068;
},
{
glyphname = i;
lastChange = "2018-12-16 21:54:13 +0000";
layers = (
{
layerId = master01;
paths = (
{
closed = 1;
nodes = (
"126 347 OFFCURVE",
"147 367 OFFCURVE",
"147 395 CURVE",
"147 423 OFFCURVE",
"126 443 OFFCURVE",
"99 443 CURVE",
"71 443 OFFCURVE",
"50 423 OFFCURVE",
"50 395 CURVE",
"50 367 OFFCURVE",
"71 347 OFFCURVE",
"99 347 CURVE"
);
},
{
closed = 1;
nodes = (
"17 -2 OFFCURVE",
"78 3 OFFCURVE",
"99 3 CURVE",
"120 3 OFFCURVE",
"180 -2 OFFCURVE",
"187 -3 CURVE",
"188 -1 OFFCURVE",
"188 3 OFFCURVE",
"188 7 CURVE",
"188 14 OFFCURVE",
"187 21 OFFCURVE",
"186 21 CURVE",
"177 21 OFFCURVE",
"148 33 OFFCURVE",
"147 37 CURVE",
"143 46 OFFCURVE",
"142 62 OFFCURVE",
"142 95 CURVE",
"142 174 LINE SMOOTH",
"142 216 OFFCURVE",
"148 256 OFFCURVE",
"148 271 CURVE",
"148 275 OFFCURVE",
"144 279 OFFCURVE",
"140 279 CURVE",
"135 279 OFFCURVE",
"130 278 OFFCURVE",
"126 277 CURVE",
"103 270 OFFCURVE",
"46 257 OFFCURVE",
"16 254 CURVE",
"14 255 OFFCURVE",
"12 245 OFFCURVE",
"12 231 CURVE",
"25 229 OFFCURVE",
"37 224 OFFCURVE",
"45 216 CURVE",
"52 208 OFFCURVE",
"56 192 OFFCURVE",
"56 167 CURVE",
"56 86 LINE SMOOTH",
"56 64 OFFCURVE",
"55 49 OFFCURVE",
"52 37 CURVE",
"50 32 OFFCURVE",
"22 21 OFFCURVE",
"11 21 CURVE",
"9 21 OFFCURVE",
"8 19 OFFCURVE",
"8 11 CURVE",
"8 3 OFFCURVE",
"9 -1 OFFCURVE",
"11 -3 CURVE"
);
}
);
width = 196;
}
);
unicode = 0069;
changeCount = 3;
},
{
glyphname = j;
lastChange = "2018-12-16 21:55:39 +0000";
layers = (
{
layerId = master01;
paths = (
{
closed = 1;
nodes = (
"51 45 LINE SMOOTH",
"51 -57 OFFCURVE",
"29 -99 OFFCURVE",
"-21 -121 CURVE",
"-21 -128 OFFCURVE",
"-16 -142 OFFCURVE",
"-10 -144 CURVE",
"108 -102 OFFCURVE",
"137 -55 OFFCURVE",
"137 64 CURVE SMOOTH",
"137 174 LINE SMOOTH",
"137 216 OFFCURVE",
"142 256 OFFCURVE",
"142 271 CURVE SMOOTH",
"142 275 OFFCURVE",
"138 279 OFFCURVE",
"134 279 CURVE SMOOTH",
"130 279 OFFCURVE",
"122 277 OFFCURVE",
"120 277 CURVE",
"97 270 OFFCURVE",
"40 257 OFFCURVE",
"10 254 CURVE",
"8 255 OFFCURVE",
"7 245 OFFCURVE",
"7 231 CURVE",
"19 229 OFFCURVE",
"31 224 OFFCURVE",
"39 216 CURVE SMOOTH",
"47 208 OFFCURVE",
"51 192 OFFCURVE",
"51 167 CURVE SMOOTH"
);
},
{
closed = 1;
nodes = (
"121 347 OFFCURVE",
"142 367 OFFCURVE",
"142 395 CURVE SMOOTH",
"142 423 OFFCURVE",
"121 443 OFFCURVE",
"94 443 CURVE SMOOTH",
"66 443 OFFCURVE",
"45 423 OFFCURVE",
"45 395 CURVE SMOOTH",
"45 367 OFFCURVE",
"66 347 OFFCURVE",
"94 347 CURVE SMOOTH"
);
}
);
width = 185;
}
);
unicode = 006A;
changeCount = 4;
},
{
glyphname = k;
lastChange = "2018-12-16 21:30:42 +0000";
layers = (
{
anchors = (
{
name = bottom;
position = "{197, 0}";
},
{
name = top;
position = "{197, 413}";
}
);
layerId = master01;
paths = (
{
closed = 1;
nodes = (
"15 -2 OFFCURVE",
"76 3 OFFCURVE",
"96 3 CURVE SMOOTH",
"116 3 OFFCURVE",
"171 -2 OFFCURVE",
"176 -3 CURVE",
"177 -1 OFFCURVE",
"178 3 OFFCURVE",
"178 7 CURVE SMOOTH",
"178 14 OFFCURVE",
"176 21 OFFCURVE",
"175 21 CURVE",
"168 22 OFFCURVE",
"145 33 OFFCURVE",
"144 37 CURVE SMOOTH",
"141 49 OFFCURVE",
"139 68 OFFCURVE",
"140 95 CURVE",
"140 127 LINE",
"147 129 LINE",
"222 36 LINE",
"224 34 OFFCURVE",
"225 32 OFFCURVE",
"225 29 CURVE SMOOTH",
"225 25 OFFCURVE",
"210 21 OFFCURVE",
"199 21 CURVE SMOOTH",
"197 21 OFFCURVE",
"196 18 OFFCURVE",
"196 11 CURVE SMOOTH",
"196 4 OFFCURVE",
"197 -1 OFFCURVE",
"198 -3 CURVE",
"232 -1 OFFCURVE",
"275 2 OFFCURVE",
"287 2 CURVE SMOOTH",
"295 2 OFFCURVE",
"321 1 OFFCURVE",
"369 -2 CURVE",
"369 0 OFFCURVE",
"370 3 OFFCURVE",
"370 9 CURVE SMOOTH",
"370 18 OFFCURVE",
"369 21 OFFCURVE",
"367 21 CURVE",
"344 24 OFFCURVE",
"330 34 OFFCURVE",
"316 51 CURVE SMOOTH",
"215 172 LINE",
"195 147 LINE",
"262 209 LINE",
"285 232 OFFCURVE",
"313 246 OFFCURVE",
"340 246 CURVE SMOOTH",
"342 246 OFFCURVE",
"343 252 OFFCURVE",
"343 257 CURVE SMOOTH",
"343 263 OFFCURVE",
"341 270 OFFCURVE",
"340 272 CURVE",
"320 271 OFFCURVE",
"301 270 OFFCURVE",
"275 270 CURVE SMOOTH",
"257 270 OFFCURVE",
"232 270 OFFCURVE",
"200 271 CURVE",
"198 270 OFFCURVE",
"198 267 OFFCURVE",
"198 261 CURVE SMOOTH",
"198 255 OFFCURVE",
"198 250 OFFCURVE",
"199 247 CURVE",
"225 245 OFFCURVE",
"228 242 OFFCURVE",
"228 237 CURVE SMOOTH",
"228 230 OFFCURVE",
"224 225 OFFCURVE",
"218 219 CURVE SMOOTH",
"162 165 LINE SMOOTH",
"159 162 OFFCURVE",
"151 160 OFFCURVE",
"140 156 CURVE",
"140 361 LINE SMOOTH",
"140 384 OFFCURVE",
"142 406 OFFCURVE",
"147 426 CURVE",
"147 430 OFFCURVE",
"142 436 OFFCURVE",
"138 437 CURVE",
"98 425 OFFCURVE",
"56 417 OFFCURVE",
"12 412 CURVE",
"10 412 OFFCURVE",
"8 408 OFFCURVE",
"8 401 CURVE SMOOTH",
"8 391 OFFCURVE",
"10 387 OFFCURVE",
"12 387 CURVE SMOOTH",
"18 387 LINE SMOOTH",
"24 387 OFFCURVE",
"42 384 OFFCURVE",
"46 379 CURVE SMOOTH",
"52 372 OFFCURVE",
"54 353 OFFCURVE",
"54 324 CURVE SMOOTH",
"54 86 LINE SMOOTH",
"54 66 OFFCURVE",
"52 50 OFFCURVE",
"49 37 CURVE",
"47 32 OFFCURVE",
"17 21 OFFCURVE",
"8 21 CURVE SMOOTH",
"6 21 OFFCURVE",
"6 18 OFFCURVE",
"6 11 CURVE SMOOTH",
"6 4 OFFCURVE",
"6 -1 OFFCURVE",
"7 -3 CURVE"
);
}
);
width = 364;
}
);
unicode = 006B;
},
{
glyphname = l;
lastChange = "2018-12-16 21:30:42 +0000";
layers = (
{
anchors = (
{
name = bottom;
position = "{97, 0}";
},
{
name = center;
position = "{97, 207}";
},
{
name = dotacc;
position = "{207, 207}";
},
{
name = top;
position = "{97, 413}";
},
{
name = topright;
position = "{158, 276}";
}
);
layerId = master01;
paths = (
{
closed = 1;
nodes = (
"29 -1 OFFCURVE",
"76 3 OFFCURVE",
"96 3 CURVE SMOOTH",
"116 3 OFFCURVE",
"164 -1 OFFCURVE",
"186 -3 CURVE",
"186 -1 OFFCURVE",
"187 3 OFFCURVE",
"187 7 CURVE SMOOTH",
"187 14 OFFCURVE",
"186 21 OFFCURVE",
"184 21 CURVE SMOOTH",
"177 21 OFFCURVE",
"146 32 OFFCURVE",
"145 37 CURVE",
"142 49 OFFCURVE",
"140 67 OFFCURVE",
"140 95 CURVE SMOOTH",
"140 361 LINE SMOOTH",
"140 384 OFFCURVE",
"142 406 OFFCURVE",
"147 426 CURVE",
"147 430 OFFCURVE",
"142 436 OFFCURVE",
"138 437 CURVE",
"98 425 OFFCURVE",
"56 417 OFFCURVE",
"12 412 CURVE",
"10 412 OFFCURVE",
"8 408 OFFCURVE",
"8 401 CURVE SMOOTH",
"8 391 OFFCURVE",
"10 387 OFFCURVE",
"12 387 CURVE SMOOTH",
"18 387 LINE SMOOTH",
"24 387 OFFCURVE",
"43 384 OFFCURVE",
"47 378 CURVE SMOOTH",
"52 370 OFFCURVE",
"54 353 OFFCURVE",
"54 324 CURVE SMOOTH",
"54 86 LINE SMOOTH",
"54 66 OFFCURVE",
"52 50 OFFCURVE",
"49 37 CURVE",
"47 32 OFFCURVE",
"17 21 OFFCURVE",
"8 21 CURVE SMOOTH",
"6 21 OFFCURVE",
"6 18 OFFCURVE",
"6 11 CURVE SMOOTH",
"6 4 OFFCURVE",
"6 -1 OFFCURVE",
"8 -3 CURVE"
);
}
);
width = 189;
}
);
unicode = 006C;
},
{
glyphname = m;
lastChange = "2018-12-16 21:30:42 +0000";
layers = (
{
anchors = (
{
name = bottom;
position = "{273, 0}";
},
{
name = top;
position = "{273, 276}";
}
);
layerId = master01;
paths = (
{
closed = 1;
nodes = (
"16 -2 OFFCURVE",
"77 3 OFFCURVE",
"98 3 CURVE SMOOTH",
"119 3 OFFCURVE",
"171 -2 OFFCURVE",
"178 -3 CURVE",
"178 -1 OFFCURVE",
"179 3 OFFCURVE",
"179 7 CURVE SMOOTH",
"179 14 OFFCURVE",
"178 21 OFFCURVE",
"176 21 CURVE",
"168 23 OFFCURVE",
"147 33 OFFCURVE",
"146 37 CURVE",
"143 46 OFFCURVE",
"142 62 OFFCURVE",
"142 95 CURVE SMOOTH",
"142 184 LINE SMOOTH",
"142 208 OFFCURVE",
"163 225 OFFCURVE",
"187 225 CURVE SMOOTH",
"211 225 OFFCURVE",
"233 209 OFFCURVE",
"233 156 CURVE SMOOTH",
"233 86 LINE SMOOTH",
"233 64 OFFCURVE",
"232 49 OFFCURVE",
"228 37 CURVE",
"226 32 OFFCURVE",
"206 23 OFFCURVE",
"196 21 CURVE",
"194 21 OFFCURVE",
"194 19 OFFCURVE",
"194 11 CURVE SMOOTH",
"194 3 OFFCURVE",
"194 -1 OFFCURVE",
"196 -3 CURVE",
"203 -2 OFFCURVE",
"255 3 OFFCURVE",
"276 3 CURVE SMOOTH",
"296 3 OFFCURVE",
"349 -2 OFFCURVE",
"355 -3 CURVE",
"356 -1 OFFCURVE",
"356 4 OFFCURVE",
"356 7 CURVE SMOOTH",
"356 14 OFFCURVE",
"355 21 OFFCURVE",
"354 21 CURVE",
"344 23 OFFCURVE",
"324 33 OFFCURVE",
"323 37 CURVE SMOOTH",
"321 46 OFFCURVE",
"319 62 OFFCURVE",
"319 95 CURVE SMOOTH",
"319 156 LINE SMOOTH",
"319 253 OFFCURVE",
"280 281 OFFCURVE",
"232 281 CURVE SMOOTH",
"199 281 OFFCURVE",
"169 261 OFFCURVE",
"141 235 CURVE",
"142 252 OFFCURVE",
"145 264 OFFCURVE",
"145 272 CURVE SMOOTH",
"145 276 OFFCURVE",
"142 279 OFFCURVE",
"138 279 CURVE SMOOTH",
"133 279 OFFCURVE",
"128 278 OFFCURVE",
"124 277 CURVE",
"101 270 OFFCURVE",
"45 254 OFFCURVE",
"15 254 CURVE",
"13 255 OFFCURVE",
"12 245 OFFCURVE",
"12 231 CURVE",
"24 229 OFFCURVE",
"36 224 OFFCURVE",
"44 216 CURVE SMOOTH",
"52 208 OFFCURVE",
"56 192 OFFCURVE",
"56 167 CURVE SMOOTH",
"56 86 LINE SMOOTH",
"56 64 OFFCURVE",
"54 49 OFFCURVE",
"51 37 CURVE",
"49 32 OFFCURVE",
"21 21 OFFCURVE",
"10 21 CURVE SMOOTH",
"8 21 OFFCURVE",
"7 19 OFFCURVE",
"7 11 CURVE SMOOTH",
"7 3 OFFCURVE",
"8 -1 OFFCURVE",
"10 -3 CURVE"
);
},
{
closed = 1;
nodes = (
"380 -2 OFFCURVE",
"431 3 OFFCURVE",
"452 3 CURVE SMOOTH",
"472 3 OFFCURVE",
"531 -2 OFFCURVE",
"537 -3 CURVE",
"538 7 LINE",
"538 14 OFFCURVE",
"537 21 OFFCURVE",
"535 21 CURVE SMOOTH",
"526 21 OFFCURVE",
"500 33 OFFCURVE",
"499 37 CURVE SMOOTH",
"497 46 OFFCURVE",
"495 62 OFFCURVE",
"495 95 CURVE SMOOTH",
"495 156 LINE SMOOTH",
"495 253 OFFCURVE",
"456 281 OFFCURVE",
"409 281 CURVE SMOOTH",
"369 281 OFFCURVE",
"333 257 OFFCURVE",
"300 226 CURVE",
"314 185 LINE",
"314 207 OFFCURVE",
"336 225 OFFCURVE",
"361 225 CURVE SMOOTH",
"387 225 OFFCURVE",
"409 209 OFFCURVE",
"409 156 CURVE SMOOTH",
"409 86 LINE SMOOTH",
"409 64 OFFCURVE",
"408 49 OFFCURVE",
"405 37 CURVE",
"403 32 OFFCURVE",
"383 21 OFFCURVE",
"374 21 CURVE SMOOTH",
"372 21 OFFCURVE",
"371 19 OFFCURVE",
"371 11 CURVE SMOOTH",
"371 3 OFFCURVE",
"372 -1 OFFCURVE",
"374 -3 CURVE"
);
}
);
width = 545;
}
);
unicode = 006D;
},
{
glyphname = n;
lastChange = "2018-12-16 21:30:42 +0000";
layers = (
{
anchors = (
{
name = bottom;
position = "{188, 0}";
},
{
name = top;
position = "{188, 276}";
}
);
layerId = master01;
paths = (
{
closed = 1;
nodes = (
"15 -2 OFFCURVE",
"76 3 OFFCURVE",
"98 3 CURVE SMOOTH",
"118 3 OFFCURVE",
"174 -2 OFFCURVE",
"181 -3 CURVE",
"181 -1 OFFCURVE",
"182 3 OFFCURVE",
"182 7 CURVE SMOOTH",
"182 14 OFFCURVE",
"181 21 OFFCURVE",
"179 21 CURVE SMOOTH",
"171 21 OFFCURVE",
"146 33 OFFCURVE",
"145 37 CURVE SMOOTH",
"143 46 OFFCURVE",
"141 62 OFFCURVE",
"141 95 CURVE SMOOTH",
"141 183 LINE SMOOTH",
"141 208 OFFCURVE",
"163 225 OFFCURVE",
"189 225 CURVE SMOOTH",
"216 225 OFFCURVE",
"237 207 OFFCURVE",
"237 152 CURVE SMOOTH",
"237 86 LINE SMOOTH",
"237 64 OFFCURVE",
"236 49 OFFCURVE",
"233 37 CURVE",
"231 32 OFFCURVE",
"207 21 OFFCURVE",
"197 21 CURVE SMOOTH",
"195 21 OFFCURVE",
"195 19 OFFCURVE",
"195 11 CURVE SMOOTH",
"195 3 OFFCURVE",
"195 -1 OFFCURVE",
"197 -3 CURVE",
"204 -2 OFFCURVE",
"259 3 OFFCURVE",
"280 3 CURVE SMOOTH",
"300 3 OFFCURVE",
"363 -2 OFFCURVE",
"369 -3 CURVE",
"370 7 LINE",
"370 14 OFFCURVE",
"369 21 OFFCURVE",
"367 21 CURVE SMOOTH",
"358 21 OFFCURVE",
"329 33 OFFCURVE",
"328 37 CURVE",
"325 46 OFFCURVE",
"323 62 OFFCURVE",
"323 95 CURVE SMOOTH",
"323 152 LINE SMOOTH",
"323 251 OFFCURVE",
"284 281 OFFCURVE",
"234 281 CURVE SMOOTH",
"198 281 OFFCURVE",
"168 261 OFFCURVE",
"140 235 CURVE",
"141 252 OFFCURVE",
"144 264 OFFCURVE",
"144 272 CURVE SMOOTH",
"144 276 OFFCURVE",
"141 279 OFFCURVE",
"137 279 CURVE SMOOTH",
"133 279 OFFCURVE",
"128 278 OFFCURVE",
"123 277 CURVE",
"100 270 OFFCURVE",
"44 254 OFFCURVE",
"14 254 CURVE",
"12 255 OFFCURVE",
"11 245 OFFCURVE",
"11 231 CURVE",
"23 229 OFFCURVE",
"36 224 OFFCURVE",
"43 216 CURVE",
"51 208 OFFCURVE",
"55 192 OFFCURVE",
"55 167 CURVE SMOOTH",
"55 86 LINE SMOOTH",
"55 64 OFFCURVE",
"54 49 OFFCURVE",
"51 37 CURVE",
"49 32 OFFCURVE",
"20 21 OFFCURVE",
"9 21 CURVE SMOOTH",
"7 21 OFFCURVE",
"7 19 OFFCURVE",
"7 11 CURVE SMOOTH",
"7 3 OFFCURVE",
"7 -1 OFFCURVE",
"10 -3 CURVE"
);
}
);
width = 376;
}
);
unicode = 006E;
},
{
glyphname = o;
lastChange = "2018-12-16 21:30:42 +0000";
layers = (
{
anchors = (
{
name = bottom;
position = "{165, 0}";
},
{
name = center;
position = "{165, 136}";
},
{
name = ogonek;
position = "{297, 6}";
},
{
name = top;
position = "{165, 276}";
},
{
name = topright;
position = "{317, 271}";
}
);
layerId = master01;
paths = (
{
closed = 1;
nodes = (
"250 -4 OFFCURVE",
"313 56 OFFCURVE",
"313 139 CURVE SMOOTH",
"313 217 OFFCURVE",
"246 282 OFFCURVE",
"162 282 CURVE SMOOTH",
"79 282 OFFCURVE",
"15 220 OFFCURVE",
"15 139 CURVE SMOOTH",
"15 56 OFFCURVE",
"78 -4 OFFCURVE",
"166 -4 CURVE SMOOTH"
);
},
{
closed = 1;
nodes = (
"139 32 OFFCURVE",
"109 89 OFFCURVE",
"109 151 CURVE SMOOTH",
"109 215 OFFCURVE",
"124 245 OFFCURVE",
"153 245 CURVE SMOOTH",
"187 245 OFFCURVE",
"220 190 OFFCURVE",
"220 129 CURVE SMOOTH",
"220 65 OFFCURVE",
"205 32 OFFCURVE",
"176 32 CURVE SMOOTH"
);
}
);
width = 329;
}
);
unicode = 006F;
},
{
glyphname = p;
lastChange = "2018-12-16 21:30:42 +0000";
layers = (
{
anchors = (
{
name = bottom;
position = "{178, 0}";
},
{
name = top;
position = "{178, 276}";
}
);
layerId = master01;
paths = (
{
closed = 1;
nodes = (
"22 -135 OFFCURVE",
"69 -131 OFFCURVE",
"97 -131 CURVE SMOOTH",
"124 -131 OFFCURVE",
"171 -135 OFFCURVE",
"185 -136 CURVE",
"186 -135 OFFCURVE",
"186 -131 OFFCURVE",
"186 -126 CURVE SMOOTH",
"186 -119 OFFCURVE",
"185 -112 OFFCURVE",
"184 -112 CURVE SMOOTH",
"176 -112 OFFCURVE",
"146 -102 OFFCURVE",
"144 -96 CURVE SMOOTH",
"140 -85 OFFCURVE",
"140 -66 OFFCURVE",
"140 -39 CURVE SMOOTH",
"140 3 LINE",
"150 -2 OFFCURVE",
"178 -5 OFFCURVE",
"189 -5 CURVE SMOOTH",
"266 -5 OFFCURVE",
"340 66 OFFCURVE",
"340 141 CURVE SMOOTH",
"340 221 OFFCURVE",
"278 281 OFFCURVE",
"204 281 CURVE SMOOTH",
"186 281 OFFCURVE",
"166 277 OFFCURVE",
"140 249 CURVE",
"140 262 OFFCURVE",
"142 269 OFFCURVE",
"142 272 CURVE SMOOTH",
"142 278 OFFCURVE",
"140 279 OFFCURVE",
"137 279 CURVE SMOOTH",
"132 279 OFFCURVE",
"127 278 OFFCURVE",
"122 277 CURVE",
"99 270 OFFCURVE",
"43 254 OFFCURVE",
"13 254 CURVE",
"11 255 OFFCURVE",
"10 245 OFFCURVE",
"10 231 CURVE",
"22 229 OFFCURVE",
"34 224 OFFCURVE",
"42 216 CURVE SMOOTH",
"50 208 OFFCURVE",
"54 192 OFFCURVE",
"54 167 CURVE SMOOTH",
"54 -48 LINE SMOOTH",
"54 -68 OFFCURVE",
"52 -84 OFFCURVE",
"49 -96 CURVE",
"47 -102 OFFCURVE",
"18 -112 OFFCURVE",
"8 -112 CURVE SMOOTH",
"6 -112 OFFCURVE",
"6 -116 OFFCURVE",
"6 -123 CURVE SMOOTH",
"6 -131 OFFCURVE",
"6 -134 OFFCURVE",
"8 -136 CURVE"
);
},
{
closed = 1;
nodes = (
"160 30 OFFCURVE",
"140 50 OFFCURVE",
"140 76 CURVE SMOOTH",
"140 194 LINE SMOOTH",
"140 220 OFFCURVE",
"156 234 OFFCURVE",
"174 234 CURVE SMOOTH",
"213 234 OFFCURVE",
"245 185 OFFCURVE",
"245 120 CURVE SMOOTH",
"245 56 OFFCURVE",
"223 30 OFFCURVE",
"186 30 CURVE SMOOTH"
);
}
);
width = 355;
}
);
unicode = 0070;
},
{
glyphname = q;
lastChange = "2018-12-16 21:30:42 +0000";
layers = (
{
anchors = (
{
name = bottom;
position = "{162, 0}";
},
{
name = top;
position = "{162, 276}";
}
);
layerId = master01;
paths = (
{
closed = 1;
nodes = (
"183 -135 OFFCURVE",
"230 -131 OFFCURVE",
"257 -131 CURVE SMOOTH",
"285 -131 OFFCURVE",
"332 -135 OFFCURVE",
"346 -136 CURVE",
"347 -135 OFFCURVE",
"347 -131 OFFCURVE",
"347 -126 CURVE SMOOTH",
"347 -119 OFFCURVE",
"346 -112 OFFCURVE",
"345 -112 CURVE SMOOTH",
"337 -112 OFFCURVE",
"307 -102 OFFCURVE",
"305 -96 CURVE SMOOTH",
"301 -85 OFFCURVE",
"301 -66 OFFCURVE",
"301 -39 CURVE SMOOTH",
"301 196 LINE SMOOTH",
"301 220 OFFCURVE",
"306 264 OFFCURVE",
"305 266 CURVE SMOOTH",
"301 274 OFFCURVE",
"291 282 OFFCURVE",
"284 282 CURVE",
"273 277 OFFCURVE",
"258 270 OFFCURVE",
"246 270 CURVE SMOOTH",
"226 270 OFFCURVE",
"208 281 OFFCURVE",
"169 281 CURVE SMOOTH",
"86 281 OFFCURVE",
"15 209 OFFCURVE",
"15 127 CURVE SMOOTH",
"15 56 OFFCURVE",
"71 -4 OFFCURVE",
"135 -4 CURVE SMOOTH",
"158 -4 OFFCURVE",
"187 8 OFFCURVE",
"215 29 CURVE",
"215 -48 LINE SMOOTH",
"215 -68 OFFCURVE",
"213 -84 OFFCURVE",
"210 -96 CURVE",
"208 -102 OFFCURVE",
"178 -112 OFFCURVE",
"169 -112 CURVE SMOOTH",
"167 -112 OFFCURVE",
"167 -116 OFFCURVE",
"167 -123 CURVE SMOOTH",
"167 -131 OFFCURVE",
"167 -134 OFFCURVE",
"169 -136 CURVE"
);
},
{
closed = 1;
nodes = (
"138 49 OFFCURVE",
"109 94 OFFCURVE",
"109 151 CURVE SMOOTH",
"109 207 OFFCURVE",
"135 244 OFFCURVE",
"170 244 CURVE SMOOTH",
"194 244 OFFCURVE",
"215 229 OFFCURVE",
"215 210 CURVE SMOOTH",
"215 84 LINE SMOOTH",
"215 65 OFFCURVE",
"200 49 OFFCURVE",
"182 49 CURVE SMOOTH"
);
}
);
width = 349;
}
);
unicode = 0071;
},
{
glyphname = r;
lastChange = "2018-12-16 21:30:42 +0000";
layers = (
{
anchors = (
{
name = bottom;
position = "{98, 0}";
},
{
name = top;
position = "{140, 276}";
}
);
layerId = master01;
paths = (
{
closed = 1;
nodes = (
"34 -1 OFFCURVE",
"73 3 OFFCURVE",
"98 3 CURVE SMOOTH",
"123 3 OFFCURVE",
"177 -2 OFFCURVE",
"184 -3 CURVE",
"185 -1 OFFCURVE",
"186 3 OFFCURVE",
"186 7 CURVE SMOOTH",
"186 14 OFFCURVE",
"185 21 OFFCURVE",
"183 21 CURVE SMOOTH",
"173 21 OFFCURVE",
"146 32 OFFCURVE",
"145 37 CURVE",
"142 49 OFFCURVE",
"141 68 OFFCURVE",
"141 94 CURVE SMOOTH",
"141 140 LINE SMOOTH",
"141 190 OFFCURVE",
"154 221 OFFCURVE",
"176 221 CURVE SMOOTH",
"200 221 OFFCURVE",
"212 191 OFFCURVE",
"232 191 CURVE SMOOTH",
"256 191 OFFCURVE",
"270 209 OFFCURVE",
"270 237 CURVE SMOOTH",
"270 265 OFFCURVE",
"253 282 OFFCURVE",
"221 282 CURVE SMOOTH",
"190 282 OFFCURVE",
"162 264 OFFCURVE",
"140 229 CURVE",
"140 246 OFFCURVE",
"144 265 OFFCURVE",
"144 272 CURVE SMOOTH",
"144 276 OFFCURVE",
"141 279 OFFCURVE",
"137 279 CURVE SMOOTH",
"134 279 OFFCURVE",
"129 278 OFFCURVE",
"123 277 CURVE",
"102 270 OFFCURVE",
"46 254 OFFCURVE",
"14 254 CURVE",
"12 255 OFFCURVE",
"11 245 OFFCURVE",
"11 231 CURVE",
"24 229 OFFCURVE",
"36 224 OFFCURVE",
"43 216 CURVE",
"51 208 OFFCURVE",
"55 192 OFFCURVE",
"55 167 CURVE SMOOTH",
"55 86 LINE SMOOTH",
"55 66 OFFCURVE",
"54 50 OFFCURVE",
"51 37 CURVE",
"49 32 OFFCURVE",
"21 21 OFFCURVE",
"9 21 CURVE SMOOTH",
"7 21 OFFCURVE",
"7 18 OFFCURVE",
"7 11 CURVE SMOOTH",
"7 4 OFFCURVE",
"7 -1 OFFCURVE",
"9 -3 CURVE"
);
}
);
width = 271;
}
);
unicode = 0072;
},
{
glyphname = s;
lastChange = "2018-12-16 21:30:42 +0000";
layers = (
{
anchors = (
{
name = bottom;
position = "{130, 0}";
},
{
name = top;
position = "{130, 276}";
}
);
layerId = master01;
paths = (
{
closed = 1;
nodes = (
"193 -6 OFFCURVE",
"237 46 OFFCURVE",
"237 85 CURVE SMOOTH",
"237 117 OFFCURVE",
"210 145 OFFCURVE",
"150 175 CURVE SMOOTH",
"115 192 OFFCURVE",
"103 203 OFFCURVE",
"103 220 CURVE SMOOTH",
"103 237 OFFCURVE",
"117 247 OFFCURVE",
"138 247 CURVE SMOOTH",
"169 247 OFFCURVE",
"186 229 OFFCURVE",
"195 189 CURVE",
"195 186 OFFCURVE",
"203 184 OFFCURVE",
"210 184 CURVE SMOOTH",
"222 184 OFFCURVE",
"225 186 OFFCURVE",
"225 190 CURVE SMOOTH",
"225 224 OFFCURVE",
"223 250 OFFCURVE",
"219 270 CURVE",
"195 278 OFFCURVE",
"173 283 OFFCURVE",
"149 283 CURVE SMOOTH",
"79 283 OFFCURVE",
"25 244 OFFCURVE",
"25 193 CURVE SMOOTH",
"25 157 OFFCURVE",
"44 130 OFFCURVE",
"95 108 CURVE SMOOTH",
"148 85 OFFCURVE",
"159 70 OFFCURVE",
"159 58 CURVE SMOOTH",
"159 40 OFFCURVE",
"145 30 OFFCURVE",
"124 30 CURVE SMOOTH",
"82 30 OFFCURVE",
"61 49 OFFCURVE",
"53 93 CURVE",
"53 97 OFFCURVE",
"45 99 OFFCURVE",
"35 99 CURVE SMOOTH",
"27 99 OFFCURVE",
"23 98 OFFCURVE",
"22 96 CURVE",
"22 74 OFFCURVE",
"24 49 OFFCURVE",
"27 11 CURVE",
"48 6 OFFCURVE",
"87 -6 OFFCURVE",
"121 -6 CURVE SMOOTH"
);
}
);
width = 250;
}
);
unicode = 0073;
},
{
glyphname = t;
lastChange = "2018-12-16 21:30:42 +0000";
layers = (
{
anchors = (
{
name = bottom;
position = "{133, 0}";
},
{
name = center;
position = "{107, 169}";
},
{
name = top;
position = "{91, 321}";
},
{
name = topright;
position = "{152, 276}";
}
);
layerId = master01;
paths = (
{
closed = 1;
nodes = (
"169 -4 OFFCURVE",
"203 15 OFFCURVE",
"218 31 CURVE",
"218 36 OFFCURVE",
"213 50 OFFCURVE",
"209 55 CURVE",
"208 53 OFFCURVE",
"187 45 OFFCURVE",
"174 45 CURVE SMOOTH",
"148 45 OFFCURVE",
"134 69 OFFCURVE",
"134 105 CURVE SMOOTH",
"134 232 LINE",
"213 232 LINE",
"217 240 OFFCURVE",
"219 251 OFFCURVE",
"219 264 CURVE SMOOTH",
"219 268 OFFCURVE",
"217 270 OFFCURVE",
"214 270 CURVE SMOOTH",
"134 270 LINE",
"134 331 LINE",
"131 335 OFFCURVE",
"116 343 OFFCURVE",
"110 343 CURVE",
"79 314 OFFCURVE",
"48 282 OFFCURVE",
"3 260 CURVE",
"2 258 OFFCURVE",
"1 256 OFFCURVE",
"1 252 CURVE SMOOTH",
"1 239 OFFCURVE",
"3 232 OFFCURVE",
"7 232 CURVE SMOOTH",
"48 232 LINE",
"48 76 LINE SMOOTH",
"48 30 OFFCURVE",
"78 -4 OFFCURVE",
"136 -4 CURVE SMOOTH"
);
}
);
width = 227;
}
);
unicode = 0074;
},
{
glyphname = u;
lastChange = "2018-12-16 21:30:42 +0000";
layers = (
{
anchors = (
{
name = bottom;
position = "{183, 0}";
},
{
name = ogonek;
position = "{347, 6}";
},
{
name = top;
position = "{183, 276}";
},
{
name = topright;
position = "{365, 271}";
}
);
layerId = master01;
paths = (
{
closed = 1;
nodes = (
"173 -4 OFFCURVE",
"203 15 OFFCURVE",
"231 41 CURVE",
"230 24 OFFCURVE",
"227 13 OFFCURVE",
"227 4 CURVE SMOOTH",
"227 0 OFFCURVE",
"230 -3 OFFCURVE",
"234 -3 CURVE SMOOTH",
"239 -3 OFFCURVE",
"244 -1 OFFCURVE",
"248 0 CURVE SMOOTH",
"271 6 OFFCURVE",
"327 23 OFFCURVE",
"357 22 CURVE SMOOTH",
"359 22 OFFCURVE",
"360 31 OFFCURVE",
"360 45 CURVE",
"348 48 OFFCURVE",
"336 52 OFFCURVE",
"328 60 CURVE",
"320 69 OFFCURVE",
"317 85 OFFCURVE",
"317 109 CURVE SMOOTH",
"317 174 LINE SMOOTH",
"317 216 OFFCURVE",
"322 256 OFFCURVE",
"322 271 CURVE SMOOTH",
"322 275 OFFCURVE",
"318 279 OFFCURVE",
"314 279 CURVE SMOOTH",
"310 279 OFFCURVE",
"305 278 OFFCURVE",
"300 277 CURVE",
"277 270 OFFCURVE",
"220 254 OFFCURVE",
"190 254 CURVE",
"188 255 OFFCURVE",
"187 245 OFFCURVE",
"187 231 CURVE",
"199 229 OFFCURVE",
"211 224 OFFCURVE",
"219 216 CURVE SMOOTH",
"227 208 OFFCURVE",
"231 192 OFFCURVE",
"231 167 CURVE SMOOTH",
"231 94 LINE SMOOTH",
"231 68 OFFCURVE",
"209 52 OFFCURVE",
"182 52 CURVE SMOOTH",
"157 52 OFFCURVE",
"137 70 OFFCURVE",
"137 111 CURVE SMOOTH",
"137 174 LINE SMOOTH",
"137 216 OFFCURVE",
"143 256 OFFCURVE",
"143 271 CURVE SMOOTH",
"143 275 OFFCURVE",
"138 279 OFFCURVE",
"134 279 CURVE SMOOTH",
"130 279 OFFCURVE",
"125 278 OFFCURVE",
"120 277 CURVE",
"98 270 OFFCURVE",
"40 257 OFFCURVE",
"10 254 CURVE",
"8 255 OFFCURVE",
"7 245 OFFCURVE",
"7 231 CURVE",
"19 229 OFFCURVE",
"31 224 OFFCURVE",
"39 216 CURVE SMOOTH",
"47 208 OFFCURVE",
"51 192 OFFCURVE",
"51 167 CURVE SMOOTH",
"51 111 LINE SMOOTH",
"51 26 OFFCURVE",
"88 -4 OFFCURVE",
"138 -4 CURVE SMOOTH"
);
}
);
width = 370;
}
);
unicode = 0075;
},
{
glyphname = v;
lastChange = "2018-12-16 21:30:42 +0000";
layers = (
{
anchors = (
{
name = bottom;
position = "{171, 0}";
},
{
name = top;
position = "{171, 276}";
}
);
layerId = master01;
paths = (
{
closed = 1;
nodes = (
"164 -7 OFFCURVE",
"170 0 OFFCURVE",
"177 12 CURVE",
"289 229 LINE SMOOTH",
"296 242 OFFCURVE",
"310 251 OFFCURVE",
"339 255 CURVE",
"341 255 OFFCURVE",
"342 259 OFFCURVE",
"342 268 CURVE SMOOTH",
"342 274 OFFCURVE",
"341 277 OFFCURVE",
"339 279 CURVE",
"315 277 OFFCURVE",
"282 274 OFFCURVE",
"265 274 CURVE SMOOTH",
"249 274 OFFCURVE",
"219 277 OFFCURVE",
"195 279 CURVE",
"194 276 OFFCURVE",
"193 272 OFFCURVE",
"193 265 CURVE SMOOTH",
"193 259 OFFCURVE",
"194 256 OFFCURVE",
"195 255 CURVE",
"230 251 OFFCURVE",
"238 246 OFFCURVE",
"238 236 CURVE SMOOTH",
"238 228 OFFCURVE",
"236 221 OFFCURVE",
"233 215 CURVE SMOOTH",
"185 116 LINE",
"140 223 LINE",
"138 229 OFFCURVE",
"137 234 OFFCURVE",
"137 237 CURVE SMOOTH",
"137 246 OFFCURVE",
"147 251 OFFCURVE",
"179 255 CURVE",
"181 255 OFFCURVE",
"182 258 OFFCURVE",
"182 266 CURVE SMOOTH",
"182 273 OFFCURVE",
"181 277 OFFCURVE",
"179 279 CURVE",
"166 278 OFFCURVE",
"110 274 OFFCURVE",
"91 274 CURVE SMOOTH",
"72 274 OFFCURVE",
"21 277 OFFCURVE",
"-1 279 CURVE",
"-3 277 OFFCURVE",
"-4 273 OFFCURVE",
"-4 268 CURVE SMOOTH",
"-4 260 OFFCURVE",
"-3 255 OFFCURVE",
"-1 255 CURVE SMOOTH",
"18 255 OFFCURVE",
"39 244 OFFCURVE",
"43 233 CURVE",
"146 3 LINE SMOOTH",
"149 -4 OFFCURVE",
"152 -7 OFFCURVE",
"158 -7 CURVE SMOOTH"
);
}
);
width = 328;
}
);
unicode = 0076;
},
{
glyphname = w;
lastChange = "2018-12-16 21:30:42 +0000";
layers = (
{
anchors = (
{
name = bottom;
position = "{258, 0}";
},
{
name = top;
position = "{258, 276}";
}
);
layerId = master01;
paths = (
{
closed = 1;
nodes = (
"350 -7 OFFCURVE",
"356 0 OFFCURVE",
"363 12 CURVE",
"475 229 LINE SMOOTH",
"482 242 OFFCURVE",
"496 255 OFFCURVE",
"526 255 CURVE SMOOTH",
"528 255 OFFCURVE",
"528 259 OFFCURVE",
"528 268 CURVE SMOOTH",
"528 274 OFFCURVE",
"528 277 OFFCURVE",
"525 279 CURVE",
"502 277 OFFCURVE",
"468 274 OFFCURVE",
"452 274 CURVE SMOOTH",
"435 274 OFFCURVE",
"405 277 OFFCURVE",
"382 279 CURVE",
"381 276 OFFCURVE",
"380 272 OFFCURVE",
"380 265 CURVE SMOOTH",
"380 259 OFFCURVE",
"381 256 OFFCURVE",
"382 255 CURVE",
"416 251 OFFCURVE",
"424 246 OFFCURVE",
"424 236 CURVE SMOOTH",
"424 228 OFFCURVE",
"422 221 OFFCURVE",
"419 215 CURVE SMOOTH",
"371 116 LINE",
"325 223 LINE",
"323 229 OFFCURVE",
"322 234 OFFCURVE",
"322 237 CURVE SMOOTH",
"322 246 OFFCURVE",
"332 255 OFFCURVE",
"364 255 CURVE SMOOTH",
"366 255 OFFCURVE",
"367 258 OFFCURVE",
"367 266 CURVE SMOOTH",
"367 273 OFFCURVE",
"366 277 OFFCURVE",
"364 279 CURVE",
"351 278 OFFCURVE",
"295 274 OFFCURVE",
"276 274 CURVE SMOOTH",
"257 274 OFFCURVE",
"201 277 OFFCURVE",
"192 279 CURVE",
"191 277 OFFCURVE",
"190 273 OFFCURVE",
"190 268 CURVE SMOOTH",
"190 260 OFFCURVE",
"191 256 OFFCURVE",
"192 255 CURVE",
"210 249 OFFCURVE",
"223 244 OFFCURVE",
"228 233 CURVE SMOOTH",
"331 3 LINE SMOOTH",
"334 -4 OFFCURVE",
"337 -7 OFFCURVE",
"343 -7 CURVE SMOOTH"
);
},
{
closed = 1;
nodes = (
"165 -7 OFFCURVE",
"172 0 OFFCURVE",
"178 12 CURVE SMOOTH",
"292 233 LINE",
"249 237 LINE",
"186 116 LINE",
"141 223 LINE",
"139 229 OFFCURVE",
"138 234 OFFCURVE",
"138 237 CURVE SMOOTH",
"138 246 OFFCURVE",
"153 255 OFFCURVE",
"171 255 CURVE SMOOTH",
"173 255 OFFCURVE",
"174 258 OFFCURVE",
"174 266 CURVE SMOOTH",
"174 273 OFFCURVE",
"173 277 OFFCURVE",
"171 279 CURVE",
"158 278 OFFCURVE",
"111 274 OFFCURVE",
"92 274 CURVE SMOOTH",
"73 274 OFFCURVE",
"22 277 OFFCURVE",
"0 279 CURVE",
"-2 277 OFFCURVE",
"-3 273 OFFCURVE",
"-3 268 CURVE SMOOTH",
"-3 260 OFFCURVE",
"-2 255 OFFCURVE",
"0 255 CURVE SMOOTH",
"18 255 OFFCURVE",
"39 244 OFFCURVE",
"44 233 CURVE SMOOTH",
"147 3 LINE SMOOTH",
"150 -4 OFFCURVE",
"153 -7 OFFCURVE",
"159 -7 CURVE SMOOTH"
);
}
);
width = 516;
}
);
unicode = 0077;
},
{
glyphname = x;
lastChange = "2018-12-16 21:30:42 +0000";
layers = (
{
anchors = (
{
name = bottom;
position = "{175, 0}";
},
{
name = top;
position = "{175, 276}";
}
);
layerId = master01;
paths = (
{
closed = 1;
nodes = (
"193 -1 OFFCURVE",
"244 3 OFFCURVE",
"263 3 CURVE SMOOTH",
"281 3 OFFCURVE",
"330 -1 OFFCURVE",
"349 -3 CURVE",
"351 -1 OFFCURVE",
"352 2 OFFCURVE",
"352 6 CURVE SMOOTH",
"352 15 OFFCURVE",
"351 20 OFFCURVE",
"349 20 CURVE",
"330 24 OFFCURVE",
"314 36 OFFCURVE",
"299 54 CURVE SMOOTH",
"143 232 LINE",
"141 234 OFFCURVE",
"140 237 OFFCURVE",
"140 239 CURVE SMOOTH",
"140 248 OFFCURVE",
"157 255 OFFCURVE",
"169 255 CURVE SMOOTH",
"171 255 OFFCURVE",
"172 259 OFFCURVE",
"172 267 CURVE SMOOTH",
"172 273 OFFCURVE",
"171 277 OFFCURVE",
"170 279 CURVE",
"83 274 LINE",
"78 274 OFFCURVE",
"55 276 OFFCURVE",
"-1 279 CURVE",
"-2 276 OFFCURVE",
"-3 272 OFFCURVE",
"-3 267 CURVE SMOOTH",
"-3 258 OFFCURVE",
"-1 254 OFFCURVE",
"1 254 CURVE SMOOTH",
"14 254 OFFCURVE",
"30 245 OFFCURVE",
"42 231 CURVE SMOOTH",
"197 52 LINE",
"201 47 OFFCURVE",
"203 42 OFFCURVE",
"203 39 CURVE SMOOTH",
"203 31 OFFCURVE",
"187 23 OFFCURVE",
"174 21 CURVE",
"172 21 OFFCURVE",
"172 16 OFFCURVE",
"172 5 CURVE SMOOTH",
"172 4 OFFCURVE",
"172 2 OFFCURVE",
"173 -3 CURVE"
);
},
{
closed = 1;
nodes = (
"17 -1 OFFCURVE",
"63 3 OFFCURVE",
"80 3 CURVE SMOOTH",
"103 3 OFFCURVE",
"151 -2 OFFCURVE",
"155 -3 CURVE",
"157 -1 OFFCURVE",
"158 3 OFFCURVE",
"158 10 CURVE SMOOTH",
"158 15 OFFCURVE",
"157 20 OFFCURVE",
"157 21 CURVE",
"124 27 OFFCURVE",
"116 30 OFFCURVE",
"116 38 CURVE SMOOTH",
"116 43 OFFCURVE",
"118 46 OFFCURVE",
"120 50 CURVE",
"161 100 LINE",
"138 133 LINE",
"54 43 LINE SMOOTH",
"46 35 OFFCURVE",
"21 24 OFFCURVE",
"1 21 CURVE",
"-1 21 OFFCURVE",
"-2 17 OFFCURVE",
"-2 10 CURVE SMOOTH",
"-2 5 OFFCURVE",
"-1 1 OFFCURVE",
"0 -3 CURVE"
);
},
{
closed = 1;
nodes = (
"288 238 LINE",
"295 246 OFFCURVE",
"314 252 OFFCURVE",
"344 255 CURVE",
"345 255 OFFCURVE",
"346 259 OFFCURVE",
"346 267 CURVE SMOOTH",
"346 273 OFFCURVE",
"345 277 OFFCURVE",
"344 279 CURVE",
"297 276 OFFCURVE",
"271 274 OFFCURVE",
"267 274 CURVE",
"186 279 LINE",
"184 277 OFFCURVE",
"183 272 OFFCURVE",
"183 267 CURVE SMOOTH",
"183 259 OFFCURVE",
"184 255 OFFCURVE",
"186 255 CURVE SMOOTH",
"212 255 OFFCURVE",
"225 250 OFFCURVE",
"225 242 CURVE SMOOTH",
"225 239 OFFCURVE",
"222 233 OFFCURVE",
"217 226 CURVE",
"179 177 LINE",
"204 149 LINE"
);
}
);
width = 349;
}
);
unicode = 0078;
},
{
glyphname = y;
lastChange = "2018-12-16 21:30:42 +0000";
layers = (
{
anchors = (
{
name = bottom;
position = "{227, 0}";
},
{
name = top;
position = "{165, 276}";
}
);
layerId = master01;
paths = (
{
closed = 1;
nodes = (
"79 -136 OFFCURVE",
"118 -100 OFFCURVE",
"161 -17 CURVE SMOOTH",
"289 229 LINE SMOOTH",
"296 243 OFFCURVE",
"312 251 OFFCURVE",
"339 255 CURVE",
"341 255 OFFCURVE",
"342 259 OFFCURVE",
"342 268 CURVE SMOOTH",
"342 273 OFFCURVE",
"341 277 OFFCURVE",
"339 279 CURVE",
"318 277 OFFCURVE",
"275 274 OFFCURVE",
"265 274 CURVE SMOOTH",
"245 274 OFFCURVE",
"204 278 OFFCURVE",
"194 279 CURVE",
"194 275 OFFCURVE",
"193 270 OFFCURVE",
"193 267 CURVE SMOOTH",
"193 258 OFFCURVE",
"194 255 OFFCURVE",
"196 255 CURVE",
"229 251 OFFCURVE",
"238 247 OFFCURVE",
"238 236 CURVE SMOOTH",
"238 230 OFFCURVE",
"236 221 OFFCURVE",
"233 215 CURVE SMOOTH",
"173 91 LINE",
"149 49 LINE",
"106 -23 LINE SMOOTH",
"92 -47 OFFCURVE",
"75 -56 OFFCURVE",
"19 -68 CURVE SMOOTH",
"0 -72 OFFCURVE",
"-11 -84 OFFCURVE",
"-11 -103 CURVE SMOOTH",
"-11 -122 OFFCURVE",
"8 -136 OFFCURVE",
"32 -136 CURVE SMOOTH"
);
},
{
closed = 1;
nodes = (
"191 101 LINE",
"140 223 LINE",
"138 229 OFFCURVE",
"137 234 OFFCURVE",
"137 237 CURVE SMOOTH",
"137 247 OFFCURVE",
"148 251 OFFCURVE",
"179 255 CURVE",
"181 255 OFFCURVE",
"182 258 OFFCURVE",
"182 266 CURVE SMOOTH",
"182 274 OFFCURVE",
"181 277 OFFCURVE",
"179 279 CURVE",
"156 277 OFFCURVE",
"106 274 OFFCURVE",
"91 274 CURVE SMOOTH",
"79 274 OFFCURVE",
"45 276 OFFCURVE",
"-1 279 CURVE",
"-3 277 OFFCURVE",
"-4 274 OFFCURVE",
"-4 268 CURVE SMOOTH",
"-4 259 OFFCURVE",
"-3 255 OFFCURVE",
"-1 255 CURVE SMOOTH",
"17 255 OFFCURVE",
"39 245 OFFCURVE",
"43 233 CURVE",
"145 5 LINE"
);
}
);
width = 328;
}
);
unicode = 0079;
},
{
glyphname = z;
lastChange = "2018-12-16 21:30:42 +0000";
layers = (
{
anchors = (
{
name = bottom;
position = "{140, 0}";
},
{
name = center;
position = "{140, 136}";
},
{
name = top;
position = "{140, 276}";
}
);
layerId = master01;
paths = (
{
closed = 1;
nodes = (
"262 92 LINE",
"260 93 OFFCURVE",
"254 95 OFFCURVE",
"249 95 CURVE SMOOTH",
"242 95 OFFCURVE",
"239 94 OFFCURVE",
"238 90 CURVE",
"225 50 OFFCURVE",
"208 35 OFFCURVE",
"176 35 CURVE SMOOTH",
"108 35 LINE",
"111 28 LINE",
"259 261 LINE",
"259 269 OFFCURVE",
"259 274 OFFCURVE",
"257 276 CURVE",
"230 273 OFFCURVE",
"202 271 OFFCURVE",
"176 271 CURVE SMOOTH",
"83 271 LINE SMOOTH",
"68 271 OFFCURVE",
"48 272 OFFCURVE",
"24 274 CURVE",
"23 263 OFFCURVE",
"21 248 OFFCURVE",
"18 224 CURVE SMOOTH",
"15 200 OFFCURVE",
"14 188 OFFCURVE",
"14 185 CURVE SMOOTH",
"14 183 OFFCURVE",
"18 181 OFFCURVE",
"24 181 CURVE SMOOTH",
"31 181 OFFCURVE",
"36 182 OFFCURVE",
"37 185 CURVE",
"46 221 OFFCURVE",
"60 236 OFFCURVE",
"88 236 CURVE SMOOTH",
"171 236 LINE",
"160 254 LINE",
"16 17 LINE",
"15 16 OFFCURVE",
"15 16 OFFCURVE",
"15 14 CURVE SMOOTH",
"15 9 OFFCURVE",
"17 5 OFFCURVE",
"21 0 CURVE",
"190 0 LINE SMOOTH",
"205 0 OFFCURVE",
"220 -1 OFFCURVE",
"252 -3 CURVE"
);
}
);
width = 275;
}
);
unicode = 007A;
},
{
glyphname = Aogonek;
layers = (
{
anchors = (
{
name = bottom;
position = "{218, 0}";
},
{
name = top;
position = "{218, 413}";
}
);
layerId = master01;
paths = (
{
closed = 1;
nodes = (
"397 -136 OFFCURVE",
"430 -110 OFFCURVE",
"444 -93 CURVE",
"447 -90 OFFCURVE",
"448 -85 OFFCURVE",
"448 -79 CURVE",
"448 -71 OFFCURVE",
"447 -67 OFFCURVE",
"445 -67 CURVE",
"435 -75 OFFCURVE",
"410 -87 OFFCURVE",
"395 -87 CURVE",
"381 -87 OFFCURVE",
"369 -80 OFFCURVE",
"369 -68 CURVE",
"369 -46 OFFCURVE",
"393 -25 OFFCURVE",
"447 -3 CURVE",
"447 -2 OFFCURVE",
"448 3 OFFCURVE",
"448 11 CURVE",
"448 18 OFFCURVE",
"447 21 OFFCURVE",
"445 21 CURVE",
"433 21 OFFCURVE",
"404 29 OFFCURVE",
"398 42 CURVE",
"393 58 OFFCURVE",
"385 75 OFFCURVE",
"377 94 CURVE",
"248 412 LINE SMOOTH",
"245 418 OFFCURVE",
"239 420 OFFCURVE",
"232 420 CURVE",
"222 420 OFFCURVE",
"213 414 OFFCURVE",
"209 404 CURVE",
"64 75 LINE SMOOTH",
"60 68 OFFCURVE",
"52 52 OFFCURVE",
"47 42 CURVE",
"41 32 OFFCURVE",
"8 21 OFFCURVE",
"-2 21 CURVE",
"-3 21 OFFCURVE",
"-3 16 OFFCURVE",
"-3 7 CURVE",
"-3 2 OFFCURVE",
"-3 -1 OFFCURVE",
"-1 -3 CURVE",
"40 1 OFFCURVE",
"62 3 OFFCURVE",
"74 3 CURVE",
"82 3 OFFCURVE",
"99 2 OFFCURVE",
"146 -3 CURVE",
"147 0 OFFCURVE",
"148 5 OFFCURVE",
"148 11 CURVE",
"148 18 OFFCURVE",
"147 21 OFFCURVE",
"146 21 CURVE",
"128 21 OFFCURVE",
"119 24 OFFCURVE",
"108 31 CURVE",
"103 34 OFFCURVE",
"99 40 OFFCURVE",
"99 45 CURVE",
"99 55 OFFCURVE",
"105 66 OFFCURVE",
"112 82 CURVE",
"133 131 LINE",
"146 131 OFFCURVE",
"170 131 OFFCURVE",
"198 131 CURVE",
"232 131 OFFCURVE",
"256 131 OFFCURVE",
"263 130 CURVE",
"282 86 LINE SMOOTH",
"294 57 OFFCURVE",
"298 48 OFFCURVE",
"298 42 CURVE",
"298 37 OFFCURVE",
"294 32 OFFCURVE",
"288 29 CURVE",
"279 24 OFFCURVE",
"266 21 OFFCURVE",
"255 21 CURVE",
"253 21 OFFCURVE",
"253 18 OFFCURVE",
"253 11 CURVE",
"253 4 OFFCURVE",
"253 -1 OFFCURVE",
"255 -3 CURVE",
"286 0 OFFCURVE",
"318 3 OFFCURVE",
"353 3 CURVE",
"365 3 OFFCURVE",
"383 2 OFFCURVE",
"403 1 CURVE",
"347 -19 OFFCURVE",
"314 -55 OFFCURVE",
"314 -89 CURVE",
"314 -119 OFFCURVE",
"342 -136 OFFCURVE",
"365 -136 CURVE"
);
},
{
closed = 1;
nodes = (
"181 169 OFFCURVE",
"163 170 OFFCURVE",
"152 171 CURVE",
"213 308 LINE",
"190 309 LINE",
"247 171 LINE",
"235 170 OFFCURVE",
"218 169 OFFCURVE",
"201 169 CURVE"
);
}
);
width = 444;
}
);
unicode = 0104;
},
{
glyphname = AE;
layers = (
{
anchors = (
{
name = bottom;
position = "{307, 0}";
},
{
name = top;
position = "{307, 413}";
}
);
layerId = master01;
paths = (
{
closed = 1;
nodes = (
"5 -1 OFFCURVE",
"54 3 OFFCURVE",
"70 3 CURVE",
"84 3 OFFCURVE",
"116 0 OFFCURVE",
"143 -3 CURVE",
"145 2 OFFCURVE",
"148 15 OFFCURVE",
"147 21 CURVE",
"132 21 OFFCURVE",
"119 23 OFFCURVE",
"109 28 CURVE",
"103 31 OFFCURVE",
"101 34 OFFCURVE",
"101 39 CURVE",
"101 48 OFFCURVE",
"114 67 OFFCURVE",
"122 81 CURVE",
"152 129 LINE",
"164 130 OFFCURVE",
"187 130 OFFCURVE",
"213 130 CURVE",
"230 130 OFFCURVE",
"250 130 OFFCURVE",
"261 129 CURVE",
"261 85 LINE",
"261 62 OFFCURVE",
"259 45 OFFCURVE",
"257 36 CURVE",
"255 30 OFFCURVE",
"229 21 OFFCURVE",
"220 21 CURVE",
"218 21 OFFCURVE",
"217 17 OFFCURVE",
"217 8 CURVE",
"217 2 OFFCURVE",
"218 -1 OFFCURVE",
"220 -3 CURVE",
"310 1 LINE",
"328 1 OFFCURVE",
"362 1 OFFCURVE",
"413 0 CURVE",
"464 0 OFFCURVE",
"501 -1 OFFCURVE",
"524 -1 CURVE",
"526 13 OFFCURVE",
"536 44 OFFCURVE",
"558 107 CURVE",
"556 110 OFFCURVE",
"549 111 OFFCURVE",
"539 111 CURVE",
"534 111 OFFCURVE",
"531 110 OFFCURVE",
"530 107 CURVE",
"520 82 OFFCURVE",
"499 59 OFFCURVE",
"484 52 CURVE",
"463 41 OFFCURVE",
"439 35 OFFCURVE",
"415 35 CURVE",
"401 35 LINE SMOOTH",
"374 35 OFFCURVE",
"360 38 OFFCURVE",
"358 45 CURVE",
"356 55 OFFCURVE",
"353 69 OFFCURVE",
"353 88 CURVE",
"353 185 LINE SMOOTH",
"353 189 OFFCURVE",
"368 191 OFFCURVE",
"398 191 CURVE",
"435 191 OFFCURVE",
"446 187 OFFCURVE",
"453 178 CURVE",
"455 175 OFFCURVE",
"459 161 OFFCURVE",
"462 149 CURVE",
"464 146 OFFCURVE",
"467 144 OFFCURVE",
"473 144 CURVE",
"480 144 OFFCURVE",
"484 145 OFFCURVE",
"486 147 CURVE",
"486 266 LINE",
"484 268 OFFCURVE",
"479 269 OFFCURVE",
"472 269 CURVE",
"466 269 OFFCURVE",
"463 268 OFFCURVE",
"462 265 CURVE",
"460 259 OFFCURVE",
"459 232 OFFCURVE",
"455 229 CURVE",
"453 227 OFFCURVE",
"438 226 OFFCURVE",
"410 226 CURVE",
"380 226 LINE SMOOTH",
"362 226 OFFCURVE",
"353 227 OFFCURVE",
"353 230 CURVE",
"353 326 LINE SMOOTH",
"353 348 OFFCURVE",
"354 364 OFFCURVE",
"356 374 CURVE",
"357 380 OFFCURVE",
"370 383 OFFCURVE",
"395 383 CURVE",
"417 383 LINE SMOOTH",
"448 383 OFFCURVE",
"490 354 OFFCURVE",
"506 324 CURVE",
"508 321 OFFCURVE",
"511 320 OFFCURVE",
"515 320 CURVE",
"523 320 OFFCURVE",
"528 321 OFFCURVE",
"530 323 CURVE",
"521 366 OFFCURVE",
"513 412 OFFCURVE",
"512 417 CURVE",
"489 417 OFFCURVE",
"454 416 OFFCURVE",
"407 414 CURVE",
"361 413 OFFCURVE",
"328 412 OFFCURVE",
"309 412 CURVE",
"281 412 OFFCURVE",
"251 414 OFFCURVE",
"221 417 CURVE",
"219 416 OFFCURVE",
"219 412 OFFCURVE",
"219 405 CURVE",
"219 397 OFFCURVE",
"219 394 OFFCURVE",
"221 394 CURVE",
"231 394 OFFCURVE",
"252 384 OFFCURVE",
"252 375 CURVE",
"252 372 OFFCURVE",
"252 369 OFFCURVE",
"250 367 CURVE",
"73 82 LINE SMOOTH",
"66 71 OFFCURVE",
"58 57 OFFCURVE",
"44 41 CURVE",
"39 35 OFFCURVE",
"-1 21 OFFCURVE",
"-10 21 CURVE",
"-10 21 OFFCURVE",
"-13 10 OFFCURVE",
"-13 5 CURVE",
"-13 1 OFFCURVE",
"-13 -2 OFFCURVE",
"-12 -3 CURVE"
);
},
{
closed = 1;
nodes = (
"206 168 OFFCURVE",
"189 169 OFFCURVE",
"179 170 CURVE",
"267 314 LINE",
"261 319 LINE",
"261 170 LINE",
"255 170 OFFCURVE",
"230 168 OFFCURVE",
"221 168 CURVE"
);
}
);
width = 578;
}
);
unicode = 00C6;
},
{
glyphname = Eogonek;
layers = (
{
anchors = (
{
name = bottom;
position = "{192, 0}";
},
{
name = top;
position = "{192, 413}";
},
{
name = topleft;
position = "{15, 413}";
}
);
layerId = master01;
paths = (
{
closed = 1;
nodes = (
"342 -75 OFFCURVE",
"317 -87 OFFCURVE",
"302 -87 CURVE",
"288 -87 OFFCURVE",
"276 -81 OFFCURVE",
"276 -68 CURVE",
"276 -45 OFFCURVE",
"294 -22 OFFCURVE",
"331 -1 CURVE",
"333 13 OFFCURVE",
"342 44 OFFCURVE",
"365 107 CURVE",
"362 110 OFFCURVE",
"356 111 OFFCURVE",
"345 111 CURVE",
"340 111 OFFCURVE",
"337 110 OFFCURVE",
"337 107 CURVE",
"328 86 OFFCURVE",
"308 61 OFFCURVE",
"291 52 CURVE",
"269 40 OFFCURVE",
"246 35 OFFCURVE",
"222 35 CURVE",
"207 35 LINE SMOOTH",
"181 35 OFFCURVE",
"166 38 OFFCURVE",
"164 45 CURVE",
"162 55 OFFCURVE",
"159 69 OFFCURVE",
"159 88 CURVE",
"159 185 LINE SMOOTH",
"159 189 OFFCURVE",
"174 191 OFFCURVE",
"205 191 CURVE",
"240 191 OFFCURVE",
"254 187 OFFCURVE",
"260 178 CURVE",
"262 174 OFFCURVE",
"267 159 OFFCURVE",
"269 149 CURVE",
"270 146 OFFCURVE",
"273 144 OFFCURVE",
"279 144 CURVE",
"286 144 OFFCURVE",
"291 145 OFFCURVE",
"292 147 CURVE",
"292 266 LINE",
"291 268 OFFCURVE",
"285 269 OFFCURVE",
"278 269 CURVE",
"273 269 OFFCURVE",
"269 268 OFFCURVE",
"269 264 CURVE",
"268 252 OFFCURVE",
"263 234 OFFCURVE",
"260 230 CURVE",
"258 227 OFFCURVE",
"242 226 OFFCURVE",
"218 226 CURVE",
"186 226 LINE SMOOTH",
"168 226 OFFCURVE",
"159 227 OFFCURVE",
"159 230 CURVE",
"159 326 LINE SMOOTH",
"159 348 OFFCURVE",
"161 364 OFFCURVE",
"163 374 CURVE",
"163 380 OFFCURVE",
"176 383 OFFCURVE",
"201 383 CURVE",
"223 383 LINE SMOOTH",
"267 383 OFFCURVE",
"292 366 OFFCURVE",
"313 324 CURVE",
"314 321 OFFCURVE",
"317 320 OFFCURVE",
"322 320 CURVE",
"329 320 OFFCURVE",
"335 321 OFFCURVE",
"336 323 CURVE",
"325 376 OFFCURVE",
"318 415 OFFCURVE",
"318 417 CURVE",
"299 417 OFFCURVE",
"263 416 OFFCURVE",
"220 416 CURVE",
"160 416 OFFCURVE",
"130 414 OFFCURVE",
"115 414 CURVE",
"87 414 OFFCURVE",
"56 415 OFFCURVE",
"21 417 CURVE",
"20 416 OFFCURVE",
"19 412 OFFCURVE",
"19 405 CURVE",
"19 398 OFFCURVE",
"20 394 OFFCURVE",
"21 394 CURVE",
"33 394 OFFCURVE",
"62 381 OFFCURVE",
"63 376 CURVE",
"66 366 OFFCURVE",
"67 350 OFFCURVE",
"67 327 CURVE",
"67 90 LINE SMOOTH",
"67 64 OFFCURVE",
"66 45 OFFCURVE",
"63 35 CURVE",
"62 30 OFFCURVE",
"36 21 OFFCURVE",
"22 21 CURVE",
"20 21 OFFCURVE",
"20 17 OFFCURVE",
"20 8 CURVE",
"20 3 OFFCURVE",
"20 -1 OFFCURVE",
"22 -3 CURVE",
"116 1 LINE SMOOTH",
"145 1 OFFCURVE",
"182 1 OFFCURVE",
"229 0 CURVE",
"250 0 OFFCURVE",
"269 0 OFFCURVE",
"284 -1 CURVE",
"252 -19 OFFCURVE",
"221 -57 OFFCURVE",
"221 -87 CURVE",
"221 -119 OFFCURVE",
"249 -136 OFFCURVE",
"273 -136 CURVE",
"304 -136 OFFCURVE",
"337 -110 OFFCURVE",
"351 -93 CURVE",
"354 -90 OFFCURVE",
"355 -85 OFFCURVE",
"355 -79 CURVE",
"355 -71 OFFCURVE",
"354 -67 OFFCURVE",
"352 -67 CURVE"
);
}
);
width = 384;
}
);
unicode = 0118;
},
{
glyphname = Eng;
layers = (
{
layerId = master01;
paths = (
{
closed = 1;
nodes = (
"328 -136 OFFCURVE",
"399 -66 OFFCURVE",
"399 94 CURVE",
"399 326 LINE SMOOTH",
"399 349 OFFCURVE",
"403 364 OFFCURVE",
"409 370 CURVE",
"421 385 OFFCURVE",
"436 392 OFFCURVE",
"461 392 CURVE",
"463 392 OFFCURVE",
"464 396 OFFCURVE",
"464 404 CURVE",
"464 409 OFFCURVE",
"464 413 OFFCURVE",
"462 416 CURVE",
"453 415 OFFCURVE",
"404 411 OFFCURVE",
"383 411 CURVE",
"366 411 OFFCURVE",
"341 412 OFFCURVE",
"299 416 CURVE",
"297 415 OFFCURVE",
"298 411 OFFCURVE",
"298 407 CURVE",
"298 400 OFFCURVE",
"299 392 OFFCURVE",
"301 392 CURVE",
"311 392 OFFCURVE",
"342 383 OFFCURVE",
"350 373 CURVE",
"355 367 OFFCURVE",
"358 353 OFFCURVE",
"358 329 CURVE",
"358 188 LINE SMOOTH",
"358 162 OFFCURVE",
"356 155 OFFCURVE",
"355 148 CURVE",
"375 140 LINE",
"201 355 LINE SMOOTH",
"180 380 OFFCURVE",
"166 401 OFFCURVE",
"159 416 CURVE",
"130 412 OFFCURVE",
"105 410 OFFCURVE",
"91 410 CURVE",
"76 410 OFFCURVE",
"21 414 OFFCURVE",
"7 416 CURVE",
"6 415 OFFCURVE",
"5 410 OFFCURVE",
"5 406 CURVE",
"5 399 OFFCURVE",
"7 392 OFFCURVE",
"9 392 CURVE",
"21 392 OFFCURVE",
"54 387 OFFCURVE",
"58 381 CURVE",
"65 374 OFFCURVE",
"68 359 OFFCURVE",
"68 337 CURVE",
"68 90 LINE SMOOTH",
"68 67 OFFCURVE",
"67 53 OFFCURVE",
"62 46 CURVE",
"50 27 OFFCURVE",
"21 21 OFFCURVE",
"8 21 CURVE",
"7 21 OFFCURVE",
"6 17 OFFCURVE",
"6 9 CURVE",
"6 3 OFFCURVE",
"7 -1 OFFCURVE",
"8 -3 CURVE",
"45 -1 OFFCURVE",
"64 3 OFFCURVE",
"86 3 CURVE",
"107 3 OFFCURVE",
"125 0 OFFCURVE",
"173 -3 CURVE",
"174 -1 OFFCURVE",
"175 3 OFFCURVE",
"175 8 CURVE",
"175 14 OFFCURVE",
"173 22 OFFCURVE",
"172 22 CURVE",
"159 22 OFFCURVE",
"123 30 OFFCURVE",
"114 46 CURVE",
"111 52 OFFCURVE",
"109 66 OFFCURVE",
"109 89 CURVE",
"109 354 LINE",
"91 347 LINE",
"366 12 LINE",
"357 119 LINE",
"357 78 LINE SMOOTH",
"357 -20 OFFCURVE",
"322 -91 OFFCURVE",
"285 -91 CURVE",
"276 -91 OFFCURVE",
"267 -85 OFFCURVE",
"256 -72 CURVE",
"243 -58 OFFCURVE",
"233 -52 OFFCURVE",
"223 -52 CURVE",
"202 -52 OFFCURVE",
"182 -70 OFFCURVE",
"182 -91 CURVE",
"182 -116 OFFCURVE",
"204 -136 OFFCURVE",
"241 -136 CURVE"
);
}
);
width = 468;
}
);
unicode = 014A;
},
{
glyphname = Ohorn;
layers = (
{
anchors = (
{
name = bottom;
position = "{230, 0}";
},
{
name = top;
position = "{230, 413}";
}
);
layerId = master01;
paths = (
{
closed = 1;
nodes = (
"470 427 OFFCURVE",
"459 453 OFFCURVE",
"432 453 CURVE",
"413 453 OFFCURVE",
"397 443 OFFCURVE",
"397 423 CURVE",
"397 412 OFFCURVE",
"410 396 OFFCURVE",
"410 390 CURVE",
"410 382 OFFCURVE",
"403 379 OFFCURVE",
"388 379 CURVE",
"370 379 OFFCURVE",
"338 388 OFFCURVE",
"318 399 CURVE",
"292 412 OFFCURVE",
"262 420 OFFCURVE",
"230 420 CURVE",
"118 420 OFFCURVE",
"28 324 OFFCURVE",
"28 206 CURVE",
"28 88 OFFCURVE",
"118 -6 OFFCURVE",
"230 -6 CURVE",
"342 -6 OFFCURVE",
"432 88 OFFCURVE",
"432 206 CURVE",
"432 269 OFFCURVE",
"406 325 OFFCURVE",
"365 365 CURVE",
"367 355 LINE",
"374 352 OFFCURVE",
"385 349 OFFCURVE",
"402 349 CURVE",
"439 349 OFFCURVE",
"470 376 OFFCURVE",
"470 409 CURVE"
);
},
{
closed = 1;
nodes = (
"172 30 OFFCURVE",
"130 118 OFFCURVE",
"130 219 CURVE",
"130 312 OFFCURVE",
"165 383 OFFCURVE",
"220 383 CURVE",
"287 383 OFFCURVE",
"329 295 OFFCURVE",
"329 195 CURVE",
"329 103 OFFCURVE",
"295 30 OFFCURVE",
"238 30 CURVE"
);
}
);
width = 460;
}
);
unicode = 01A0;
},
{
glyphname = Oogonek;
layers = (
{
anchors = (
{
name = center;
position = "{231, 207}";
},
{
name = top;
position = "{231, 413}";
},
{
name = topleft;
position = "{26, 413}";
},
{
name = topright;
position = "{435, 413}";
}
);
layerId = master01;
paths = (
{
closed = 1;
nodes = (
"256 -136 OFFCURVE",
"289 -110 OFFCURVE",
"303 -93 CURVE",
"305 -90 OFFCURVE",
"306 -85 OFFCURVE",
"306 -79 CURVE",
"306 -71 OFFCURVE",
"305 -67 OFFCURVE",
"303 -67 CURVE",
"293 -75 OFFCURVE",
"268 -87 OFFCURVE",
"253 -87 CURVE",
"239 -87 OFFCURVE",
"227 -81 OFFCURVE",
"227 -68 CURVE",
"227 -45 OFFCURVE",
"245 -16 OFFCURVE",
"303 8 CURVE",
"379 39 OFFCURVE",
"432 115 OFFCURVE",
"432 206 CURVE",
"432 324 OFFCURVE",
"341 420 OFFCURVE",
"230 420 CURVE",
"118 420 OFFCURVE",
"28 324 OFFCURVE",
"28 206 CURVE",
"28 88 OFFCURVE",
"118 -6 OFFCURVE",
"230 -6 CURVE",
"239 -6 OFFCURVE",
"254 -5 OFFCURVE",
"262 -4 CURVE",
"261 1 LINE",
"217 -10 OFFCURVE",
"172 -54 OFFCURVE",
"172 -87 CURVE",
"172 -119 OFFCURVE",
"200 -136 OFFCURVE",
"224 -136 CURVE"
);
},
{
closed = 1;
nodes = (
"172 30 OFFCURVE",
"130 118 OFFCURVE",
"130 219 CURVE",
"130 312 OFFCURVE",
"165 383 OFFCURVE",
"220 383 CURVE",
"287 383 OFFCURVE",
"329 295 OFFCURVE",
"329 195 CURVE",
"329 103 OFFCURVE",
"295 30 OFFCURVE",
"238 30 CURVE"
);
}
);
width = 460;
}
);
},
{
glyphname = Oslash;
layers = (
{
anchors = (
{
name = bottom;
position = "{230, 0}";
},
{
name = top;
position = "{230, 413}";
}
);
layerId = master01;
paths = (
{
closed = 1;
nodes = (
"101 2 LINE",
"100 -1 OFFCURVE",
"107 -5 OFFCURVE",
"125 -12 CURVE",
"359 412 LINE",
"359 415 OFFCURVE",
"352 418 OFFCURVE",
"334 425 CURVE"
);
},
{
closed = 1;
nodes = (
"342 -6 OFFCURVE",
"432 88 OFFCURVE",
"432 206 CURVE",
"432 324 OFFCURVE",
"341 420 OFFCURVE",
"230 420 CURVE",
"118 420 OFFCURVE",
"28 324 OFFCURVE",
"28 206 CURVE",
"28 88 OFFCURVE",
"118 -6 OFFCURVE",
"230 -6 CURVE"
);
},
{
closed = 1;
nodes = (
"172 30 OFFCURVE",
"130 118 OFFCURVE",
"130 219 CURVE",
"130 312 OFFCURVE",
"165 383 OFFCURVE",
"220 383 CURVE",
"287 383 OFFCURVE",
"329 295 OFFCURVE",
"329 195 CURVE",
"329 103 OFFCURVE",
"295 30 OFFCURVE",
"238 30 CURVE"
);
}
);
width = 460;
}
);
unicode = 00D8;
},
{
glyphname = OE;
layers = (
{
anchors = (
{
name = bottom;
position = "{389, 0}";
},
{
name = top;
position = "{389, 413}";
}
);
layerId = master01;
paths = (
{
closed = 1;
nodes = (
"289 -6 OFFCURVE",
"337 2 OFFCURVE",
"392 2 CURVE",
"421 2 OFFCURVE",
"459 1 OFFCURVE",
"505 0 CURVE",
"552 0 OFFCURVE",
"586 -1 OFFCURVE",
"607 -1 CURVE",
"609 13 OFFCURVE",
"618 44 OFFCURVE",
"641 107 CURVE",
"638 110 OFFCURVE",
"632 111 OFFCURVE",
"622 111 CURVE",
"616 111 OFFCURVE",
"613 110 OFFCURVE",
"613 107 CURVE",
"603 82 OFFCURVE",
"582 59 OFFCURVE",
"567 52 CURVE",
"545 41 OFFCURVE",
"522 35 OFFCURVE",
"498 35 CURVE",
"483 35 LINE SMOOTH",
"457 35 OFFCURVE",
"442 38 OFFCURVE",
"440 45 CURVE",
"438 55 OFFCURVE",
"435 69 OFFCURVE",
"435 88 CURVE",
"435 185 LINE SMOOTH",
"435 189 OFFCURVE",
"451 191 OFFCURVE",
"481 191 CURVE",
"520 191 OFFCURVE",
"531 186 OFFCURVE",
"536 178 CURVE",
"538 175 OFFCURVE",
"542 161 OFFCURVE",
"545 149 CURVE",
"546 146 OFFCURVE",
"549 144 OFFCURVE",
"555 144 CURVE",
"562 144 OFFCURVE",
"567 145 OFFCURVE",
"569 147 CURVE",
"569 266 LINE",
"567 268 OFFCURVE",
"562 269 OFFCURVE",
"554 269 CURVE",
"549 269 OFFCURVE",
"546 268 OFFCURVE",
"545 264 CURVE",
"545 259 OFFCURVE",
"541 238 OFFCURVE",
"537 230 CURVE",
"535 228 OFFCURVE",
"521 226 OFFCURVE",
"494 226 CURVE",
"462 226 LINE SMOOTH",
"444 226 OFFCURVE",
"435 227 OFFCURVE",
"435 230 CURVE",
"435 326 LINE SMOOTH",
"435 348 OFFCURVE",
"437 364 OFFCURVE",
"439 374 CURVE",
"439 380 OFFCURVE",
"452 383 OFFCURVE",
"478 383 CURVE",
"499 383 LINE SMOOTH",
"531 383 OFFCURVE",
"564 372 OFFCURVE",
"589 324 CURVE",
"590 321 OFFCURVE",
"593 320 OFFCURVE",
"598 320 CURVE",
"605 320 OFFCURVE",
"611 321 OFFCURVE",
"613 323 CURVE",
"599 387 OFFCURVE",
"595 416 OFFCURVE",
"594 417 CURVE",
"570 417 OFFCURVE",
"535 416 OFFCURVE",
"489 415 CURVE",
"442 415 OFFCURVE",
"410 414 OFFCURVE",
"391 414 CURVE",
"362 414 OFFCURVE",
"288 419 OFFCURVE",
"248 419 CURVE",
"116 419 OFFCURVE",
"28 324 OFFCURVE",
"28 199 CURVE",
"28 89 OFFCURVE",
"99 -6 OFFCURVE",
"255 -6 CURVE"
);
},
{
closed = 1;
nodes = (
"182 30 OFFCURVE",
"130 107 OFFCURVE",
"130 220 CURVE",
"130 329 OFFCURVE",
"178 383 OFFCURVE",
"252 383 CURVE",
"306 383 OFFCURVE",
"343 359 OFFCURVE",
"343 289 CURVE",
"343 115 LINE SMOOTH",
"343 54 OFFCURVE",
"316 30 OFFCURVE",
"258 30 CURVE"
);
}
);
width = 660;
}
);
unicode = 0152;
},
{
glyphname = Thorn;
layers = (
{
layerId = master01;
paths = (
{
closed = 1;
nodes = (
"54 -1 OFFCURVE",
"84 1 OFFCURVE",
"116 1 CURVE",
"130 1 OFFCURVE",
"163 0 OFFCURVE",
"214 -3 CURVE",
"214 0 OFFCURVE",
"215 4 OFFCURVE",
"215 9 CURVE",
"215 17 OFFCURVE",
"214 21 OFFCURVE",
"213 21 CURVE",
"192 21 OFFCURVE",
"165 30 OFFCURVE",
"164 37 CURVE",
"161 51 OFFCURVE",
"159 68 OFFCURVE",
"159 88 CURVE",
"159 226 LINE SMOOTH",
"159 264 OFFCURVE",
"162 284 OFFCURVE",
"167 287 CURVE",
"171 290 OFFCURVE",
"181 292 OFFCURVE",
"186 292 CURVE",
"229 292 OFFCURVE",
"249 264 OFFCURVE",
"249 207 CURVE",
"249 151 OFFCURVE",
"233 122 OFFCURVE",
"199 122 CURVE",
"186 122 OFFCURVE",
"177 124 OFFCURVE",
"172 127 CURVE",
"171 126 OFFCURVE",
"170 122 OFFCURVE",
"170 118 CURVE",
"170 112 OFFCURVE",
"171 108 OFFCURVE",
"174 105 CURVE",
"183 97 OFFCURVE",
"202 89 OFFCURVE",
"220 89 CURVE",
"288 89 OFFCURVE",
"349 138 OFFCURVE",
"349 207 CURVE",
"349 289 OFFCURVE",
"280 329 OFFCURVE",
"199 329 CURVE",
"186 329 OFFCURVE",
"160 327 OFFCURVE",
"135 322 CURVE",
"159 298 LINE",
"159 334 LINE SMOOTH",
"159 345 OFFCURVE",
"161 367 OFFCURVE",
"163 377 CURVE",
"164 382 OFFCURVE",
"196 392 OFFCURVE",
"204 392 CURVE",
"206 392 OFFCURVE",
"206 396 OFFCURVE",
"206 404 CURVE",
"206 408 OFFCURVE",
"206 412 OFFCURVE",
"204 416 CURVE",
"152 413 OFFCURVE",
"121 412 OFFCURVE",
"114 412 CURVE",
"83 412 OFFCURVE",
"51 414 OFFCURVE",
"22 416 CURVE",
"22 415 OFFCURVE",
"21 411 OFFCURVE",
"21 403 CURVE",
"21 396 OFFCURVE",
"22 392 OFFCURVE",
"23 392 CURVE",
"33 392 OFFCURVE",
"57 383 OFFCURVE",
"62 376 CURVE",
"65 371 OFFCURVE",
"67 355 OFFCURVE",
"67 328 CURVE",
"67 90 LINE SMOOTH",
"67 64 OFFCURVE",
"66 45 OFFCURVE",
"63 35 CURVE",
"62 30 OFFCURVE",
"35 21 OFFCURVE",
"22 21 CURVE",
"20 21 OFFCURVE",
"20 16 OFFCURVE",
"20 8 CURVE",
"20 2 OFFCURVE",
"20 -1 OFFCURVE",
"22 -3 CURVE"
);
}
);
width = 369;
}
);
unicode = 00DE;
},
{
glyphname = Germandbls;
layers = (
{
layerId = master01;
paths = (
{
closed = 1;
nodes = (
"322 282 OFFCURVE",
"307 301 OFFCURVE",
"307 328 CURVE",
"307 356 OFFCURVE",
"330 376 OFFCURVE",
"379 376 CURVE",
"390 376 LINE",
"399 376 OFFCURVE",
"404 387 OFFCURVE",
"404 397 CURVE",
"404 405 OFFCURVE",
"402 413 OFFCURVE",
"396 413 CURVE",
"115 413 LINE SMOOTH",
"83 413 OFFCURVE",
"51 414 OFFCURVE",
"22 416 CURVE",
"22 415 OFFCURVE",
"21 411 OFFCURVE",
"21 403 CURVE",
"21 396 OFFCURVE",
"22 392 OFFCURVE",
"23 392 CURVE",
"33 392 OFFCURVE",
"57 383 OFFCURVE",
"62 376 CURVE",
"65 371 OFFCURVE",
"67 355 OFFCURVE",
"67 328 CURVE",
"67 87 LINE SMOOTH",
"67 65 OFFCURVE",
"66 49 OFFCURVE",
"63 37 CURVE",
"60 31 OFFCURVE",
"31 21 OFFCURVE",
"21 21 CURVE",
"20 21 OFFCURVE",
"20 17 OFFCURVE",
"20 8 CURVE",
"20 2 OFFCURVE",
"20 -1 OFFCURVE",
"22 -3 CURVE",
"32 -2 OFFCURVE",
"91 3 OFFCURVE",
"115 3 CURVE",
"135 3 OFFCURVE",
"183 -1 OFFCURVE",
"204 -3 CURVE",
"205 0 OFFCURVE",
"206 4 OFFCURVE",
"206 9 CURVE",
"206 17 OFFCURVE",
"205 21 OFFCURVE",
"203 21 CURVE",
"196 21 OFFCURVE",
"166 32 OFFCURVE",
"164 37 CURVE",
"160 57 OFFCURVE",
"159 76 OFFCURVE",
"159 92 CURVE",
"159 327 LINE SMOOTH",
"159 345 OFFCURVE",
"161 367 OFFCURVE",
"164 376 CURVE",
"285 376 LINE",
"286 388 LINE",
"242 369 OFFCURVE",
"219 338 OFFCURVE",
"219 298 CURVE",
"219 253 OFFCURVE",
"236 227 OFFCURVE",
"313 179 CURVE",
"378 138 OFFCURVE",
"397 117 OFFCURVE",
"397 85 CURVE",
"397 53 OFFCURVE",
"378 31 OFFCURVE",
"334 31 CURVE",
"290 31 OFFCURVE",
"255 71 OFFCURVE",
"243 118 CURVE",
"243 120 OFFCURVE",
"236 121 OFFCURVE",
"223 121 CURVE",
"216 121 OFFCURVE",
"213 119 OFFCURVE",
"211 115 CURVE",
"211 95 OFFCURVE",
"219 34 OFFCURVE",
"225 10 CURVE",
"273 0 OFFCURVE",
"297 -6 OFFCURVE",
"332 -6 CURVE",
"422 -6 OFFCURVE",
"489 37 OFFCURVE",
"489 115 CURVE",
"489 168 OFFCURVE",
"470 193 OFFCURVE",
"388 242 CURVE"
);
}
);
width = 509;
}
);
},
{
glyphname = Schwa;
layers = (
{
layerId = master01;
paths = (
{
closed = 1;
nodes = (
"329 168 LINE",
"330 209 LINE",
"54 209 LINE SMOOTH",
"30 209 OFFCURVE",
"22 201 OFFCURVE",
"22 174 CURVE",
"22 74 OFFCURVE",
"99 -6 OFFCURVE",
"210 -6 CURVE",
"310 -6 OFFCURVE",
"413 75 OFFCURVE",
"413 210 CURVE",
"413 332 OFFCURVE",
"323 419 OFFCURVE",
"199 419 CURVE",
"120 419 OFFCURVE",
"57 375 OFFCURVE",
"30 326 CURVE",
"27 322 OFFCURVE",
"27 315 OFFCURVE",
"27 306 CURVE",
"27 298 OFFCURVE",
"31 293 OFFCURVE",
"35 289 CURVE",
"58 316 OFFCURVE",
"103 346 OFFCURVE",
"166 346 CURVE",
"256 346 OFFCURVE",
"308 284 OFFCURVE",
"308 174 CURVE",
"308 84 OFFCURVE",
"276 30 OFFCURVE",
"218 30 CURVE",
"164 30 OFFCURVE",
"128 75 OFFCURVE",
"128 149 CURVE",
"128 163 OFFCURVE",
"132 168 OFFCURVE",
"141 168 CURVE"
);
}
);
width = 441;
}
);
},
{
glyphname = Uhorn;
layers = (
{
anchors = (
{
name = bottom;
position = "{242, 0}";
},
{
name = top;
position = "{242, 413}";
}
);
layerId = master01;
paths = (
{
closed = 1;
nodes = (
"337 -4 OFFCURVE",
"398 60 OFFCURVE",
"398 176 CURVE",
"398 326 LINE SMOOTH",
"398 350 OFFCURVE",
"401 368 OFFCURVE",
"406 376 CURVE",
"410 378 OFFCURVE",
"416 379 OFFCURVE",
"422 380 CURVE",
"462 387 OFFCURVE",
"485 406 OFFCURVE",
"485 439 CURVE",
"485 457 OFFCURVE",
"474 483 OFFCURVE",
"447 483 CURVE",
"428 483 OFFCURVE",
"412 473 OFFCURVE",
"412 457 CURVE",
"412 438 OFFCURVE",
"425 437 OFFCURVE",
"425 424 CURVE",
"425 414 OFFCURVE",
"418 410 OFFCURVE",
"390 410 CURVE",
"361 410 OFFCURVE",
"336 413 OFFCURVE",
"297 416 CURVE",
"297 415 OFFCURVE",
"296 412 OFFCURVE",
"296 407 CURVE",
"296 398 OFFCURVE",
"298 392 OFFCURVE",
"300 392 CURVE",
"314 392 OFFCURVE",
"342 381 OFFCURVE",
"348 373 CURVE",
"354 367 OFFCURVE",
"357 353 OFFCURVE",
"357 329 CURVE",
"357 179 LINE SMOOTH",
"357 88 OFFCURVE",
"319 49 OFFCURVE",
"261 49 CURVE",
"193 49 OFFCURVE",
"157 86 OFFCURVE",
"157 160 CURVE",
"157 324 LINE SMOOTH",
"157 348 OFFCURVE",
"158 366 OFFCURVE",
"161 377 CURVE",
"162 381 OFFCURVE",
"192 392 OFFCURVE",
"202 392 CURVE",
"204 392 OFFCURVE",
"204 396 OFFCURVE",
"204 404 CURVE",
"204 408 OFFCURVE",
"204 412 OFFCURVE",
"203 416 CURVE",
"151 413 OFFCURVE",
"121 412 OFFCURVE",
"113 412 CURVE",
"97 412 OFFCURVE",
"73 413 OFFCURVE",
"20 416 CURVE",
"19 415 OFFCURVE",
"18 411 OFFCURVE",
"18 403 CURVE",
"18 396 OFFCURVE",
"19 392 OFFCURVE",
"21 392 CURVE",
"31 392 OFFCURVE",
"55 382 OFFCURVE",
"59 376 CURVE",
"63 371 OFFCURVE",
"65 355 OFFCURVE",
"65 328 CURVE",
"65 182 LINE SMOOTH",
"65 53 OFFCURVE",
"125 -4 OFFCURVE",
"242 -4 CURVE"
);
}
);
width = 463;
}
);
unicode = 01AF;
},
{
glyphname = Uogonek;
layers = (
{
anchors = (
{
name = top;
position = "{242, 413}";
},
{
name = topright;
position = "{467, 413}";
}
);
layerId = master01;
paths = (
{
closed = 1;
nodes = (
"290 -136 OFFCURVE",
"323 -110 OFFCURVE",
"337 -93 CURVE",
"340 -90 OFFCURVE",
"341 -85 OFFCURVE",
"341 -79 CURVE",
"341 -71 OFFCURVE",
"340 -67 OFFCURVE",
"338 -67 CURVE",
"328 -75 OFFCURVE",
"303 -87 OFFCURVE",
"288 -87 CURVE",
"274 -87 OFFCURVE",
"262 -81 OFFCURVE",
"262 -68 CURVE",
"262 -45 OFFCURVE",
"280 -21 OFFCURVE",
"341 29 CURVE",
"378 59 OFFCURVE",
"398 109 OFFCURVE",
"398 176 CURVE",
"398 326 LINE SMOOTH",
"398 349 OFFCURVE",
"401 364 OFFCURVE",
"407 370 CURVE",
"421 385 OFFCURVE",
"435 392 OFFCURVE",
"460 392 CURVE",
"462 392 OFFCURVE",
"463 396 OFFCURVE",
"463 404 CURVE",
"463 409 OFFCURVE",
"462 413 OFFCURVE",
"460 416 CURVE",
"451 415 OFFCURVE",
"403 411 OFFCURVE",
"381 411 CURVE",
"364 411 OFFCURVE",
"336 413 OFFCURVE",
"297 416 CURVE",
"297 415 OFFCURVE",
"296 412 OFFCURVE",
"296 407 CURVE",
"296 398 OFFCURVE",
"298 392 OFFCURVE",
"300 392 CURVE",
"314 392 OFFCURVE",
"342 381 OFFCURVE",
"348 373 CURVE",
"354 367 OFFCURVE",
"357 353 OFFCURVE",
"357 329 CURVE",
"357 179 LINE SMOOTH",
"357 88 OFFCURVE",
"319 49 OFFCURVE",
"261 49 CURVE",
"193 49 OFFCURVE",
"157 86 OFFCURVE",
"157 160 CURVE",
"157 324 LINE SMOOTH",
"157 348 OFFCURVE",
"158 366 OFFCURVE",
"161 377 CURVE",
"162 381 OFFCURVE",
"192 392 OFFCURVE",
"202 392 CURVE",
"204 392 OFFCURVE",
"204 396 OFFCURVE",
"204 404 CURVE",
"204 408 OFFCURVE",
"204 412 OFFCURVE",
"203 416 CURVE",
"151 413 OFFCURVE",
"121 412 OFFCURVE",
"113 412 CURVE",
"98 412 OFFCURVE",
"67 413 OFFCURVE",
"20 416 CURVE",
"19 415 OFFCURVE",
"18 411 OFFCURVE",
"18 403 CURVE",
"18 396 OFFCURVE",
"19 392 OFFCURVE",
"21 392 CURVE",
"31 392 OFFCURVE",
"55 382 OFFCURVE",
"59 376 CURVE",
"63 371 OFFCURVE",
"65 355 OFFCURVE",
"65 328 CURVE",
"65 182 LINE SMOOTH",
"65 53 OFFCURVE",
"125 -4 OFFCURVE",
"242 -4 CURVE",
"260 -4 OFFCURVE",
"276 -2 OFFCURVE",
"291 4 CURVE",
"293 10 LINE",
"248 -13 OFFCURVE",
"207 -57 OFFCURVE",
"207 -87 CURVE",
"207 -119 OFFCURVE",
"235 -136 OFFCURVE",
"258 -136 CURVE"
);
}
);
width = 463;
}
);
unicode = 0172;
},
{
glyphname = AE.alt01;
layers = (
{
anchors = (
{
name = bottom;
position = "{274, 0}";
},
{
name = top;
position = "{272, 413}";
}
);
layerId = master01;
paths = (
{
closed = 1;
nodes = (
"5 -1 OFFCURVE",
"54 3 OFFCURVE",
"69 3 CURVE",
"84 3 OFFCURVE",
"117 0 OFFCURVE",
"143 -3 CURVE",
"145 2 OFFCURVE",
"147 15 OFFCURVE",
"145 21 CURVE",
"130 21 OFFCURVE",
"117 23 OFFCURVE",
"106 28 CURVE",
"101 31 OFFCURVE",
"98 34 OFFCURVE",
"97 39 CURVE",
"96 48 OFFCURVE",
"107 67 OFFCURVE",
"114 81 CURVE",
"162 174 LINE",
"174 174 OFFCURVE",
"189 174 OFFCURVE",
"208 174 CURVE",
"221 174 OFFCURVE",
"235 174 OFFCURVE",
"243 174 CURVE",
"252 85 LINE SMOOTH",
"254 62 OFFCURVE",
"255 45 OFFCURVE",
"254 36 CURVE",
"252 30 OFFCURVE",
"227 21 OFFCURVE",
"218 21 CURVE",
"216 21 OFFCURVE",
"216 17 OFFCURVE",
"217 8 CURVE",
"217 2 OFFCURVE",
"219 -1 OFFCURVE",
"221 -3 CURVE",
"310 1 LINE",
"328 1 OFFCURVE",
"353 1 OFFCURVE",
"383 0 CURVE",
"434 0 OFFCURVE",
"471 -1 OFFCURVE",
"495 -1 CURVE",
"496 13 OFFCURVE",
"505 44 OFFCURVE",
"529 107 CURVE",
"525 110 OFFCURVE",
"519 111 OFFCURVE",
"509 111 CURVE",
"504 111 OFFCURVE",
"501 110 OFFCURVE",
"501 107 CURVE",
"490 82 OFFCURVE",
"469 59 OFFCURVE",
"454 52 CURVE",
"432 41 OFFCURVE",
"420 35 OFFCURVE",
"400 35 CURVE",
"390 35 LINE SMOOTH",
"364 35 OFFCURVE",
"356 38 OFFCURVE",
"353 45 CURVE",
"350 55 OFFCURVE",
"346 69 OFFCURVE",
"344 88 CURVE",
"336 172 LINE SMOOTH",
"335 176 OFFCURVE",
"330 177 OFFCURVE",
"368 177 CURVE",
"401 177 OFFCURVE",
"412 173 OFFCURVE",
"420 165 CURVE",
"422 162 OFFCURVE",
"426 147 OFFCURVE",
"429 136 CURVE",
"430 133 OFFCURVE",
"434 131 OFFCURVE",
"440 131 CURVE",
"447 131 OFFCURVE",
"451 132 OFFCURVE",
"453 134 CURVE",
"453 253 LINE",
"451 254 OFFCURVE",
"445 256 OFFCURVE",
"438 256 CURVE",
"433 256 OFFCURVE",
"430 254 OFFCURVE",
"428 252 CURVE",
"427 246 OFFCURVE",
"426 219 OFFCURVE",
"422 216 CURVE",
"420 214 OFFCURVE",
"405 213 OFFCURVE",
"376 213 CURVE",
"358 213 LINE SMOOTH",
"340 213 OFFCURVE",
"330 214 OFFCURVE",
"330 217 CURVE",
"319 326 LINE SMOOTH",
"317 348 OFFCURVE",
"317 364 OFFCURVE",
"317 374 CURVE",
"317 380 OFFCURVE",
"330 383 OFFCURVE",
"356 383 CURVE",
"381 383 LINE SMOOTH",
"412 383 OFFCURVE",
"454 354 OFFCURVE",
"470 324 CURVE",
"472 321 OFFCURVE",
"475 320 OFFCURVE",
"479 320 CURVE",
"487 320 OFFCURVE",
"492 321 OFFCURVE",
"493 323 CURVE",
"485 366 OFFCURVE",
"477 412 OFFCURVE",
"476 417 CURVE",
"453 417 OFFCURVE",
"418 416 OFFCURVE",
"370 414 CURVE",
"332 413 OFFCURVE",
"285 412 OFFCURVE",
"266 412 CURVE",
"238 412 OFFCURVE",
"209 414 OFFCURVE",
"178 417 CURVE",
"177 416 OFFCURVE",
"177 412 OFFCURVE",
"177 405 CURVE",
"177 397 OFFCURVE",
"177 394 OFFCURVE",
"179 394 CURVE",
"188 394 OFFCURVE",
"211 384 OFFCURVE",
"214 375 CURVE",
"214 372 OFFCURVE",
"213 369 OFFCURVE",
"212 367 CURVE",
"65 82 LINE SMOOTH",
"59 71 OFFCURVE",
"53 57 OFFCURVE",
"40 41 CURVE",
"35 35 OFFCURVE",
"-3 21 OFFCURVE",
"-12 21 CURVE",
"-12 21 OFFCURVE",
"-14 10 OFFCURVE",
"-13 5 CURVE",
"-13 1 OFFCURVE",
"-12 -2 OFFCURVE",
"-11 -3 CURVE"
);
},
{
closed = 1;
nodes = (
"203 213 OFFCURVE",
"191 213 OFFCURVE",
"183 213 CURVE",
"234 314 LINE",
"228 319 LINE",
"239 214 LINE",
"235 214 OFFCURVE",
"219 213 OFFCURVE",
"213 213 CURVE"
);
}
);
width = 548;
}
);
},
{
glyphname = Q.alt01;
layers = (
{
layerId = master01;
paths = (
{
closed = 1;
nodes = (
"379 50 OFFCURVE",
"432 112 OFFCURVE",
"432 206 CURVE",
"432 324 OFFCURVE",
"341 420 OFFCURVE",
"230 420 CURVE",
"118 420 OFFCURVE",
"28 324 OFFCURVE",
"28 206 CURVE",
"28 105 OFFCURVE",
"90 29 OFFCURVE",
"164 5 CURVE",
"206 -9 OFFCURVE",
"257 -21 OFFCURVE",
"304 -42 CURVE",
"333 -55 OFFCURVE",
"389 -81 OFFCURVE",
"429 -102 CURVE",
"492 -134 OFFCURVE",
"560 -142 OFFCURVE",
"600 -142 CURVE",
"666 -142 OFFCURVE",
"713 -123 OFFCURVE",
"767 -85 CURVE",
"768 -85 OFFCURVE",
"768 -84 OFFCURVE",
"768 -82 CURVE",
"768 -73 OFFCURVE",
"760 -65 OFFCURVE",
"757 -60 CURVE",
"734 -75 OFFCURVE",
"689 -86 OFFCURVE",
"642 -86 CURVE",
"610 -86 OFFCURVE",
"565 -75 OFFCURVE",
"527 -55 CURVE",
"494 -38 OFFCURVE",
"445 -15 OFFCURVE",
"436 -12 CURVE",
"406 4 OFFCURVE",
"364 16 OFFCURVE",
"333 24 CURVE"
);
},
{
closed = 1;
nodes = (
"172 30 OFFCURVE",
"130 118 OFFCURVE",
"130 219 CURVE",
"130 312 OFFCURVE",
"165 383 OFFCURVE",
"220 383 CURVE",
"287 383 OFFCURVE",
"329 295 OFFCURVE",
"329 195 CURVE",
"329 103 OFFCURVE",
"295 30 OFFCURVE",
"238 30 CURVE"
);
}
);
width = 460;
}
);
},
{
glyphname = aogonek;
layers = (
{
anchors = (
{
name = top;
position = "{157, 276}";
}
);
layerId = master01;
paths = (
{
closed = 1;
nodes = (
"209 -136 OFFCURVE",
"242 -110 OFFCURVE",
"256 -93 CURVE",
"259 -90 OFFCURVE",
"260 -85 OFFCURVE",
"260 -79 CURVE",
"260 -71 OFFCURVE",
"259 -67 OFFCURVE",
"257 -67 CURVE",
"247 -75 OFFCURVE",
"222 -87 OFFCURVE",
"207 -87 CURVE",
"193 -87 OFFCURVE",
"181 -81 OFFCURVE",
"181 -68 CURVE",
"181 -32 OFFCURVE",
"219 -5 OFFCURVE",
"296 22 CURVE",
"300 28 OFFCURVE",
"302 36 OFFCURVE",
"302 48 CURVE",
"302 52 OFFCURVE",
"300 56 OFFCURVE",
"297 58 CURVE",
"290 52 OFFCURVE",
"283 50 OFFCURVE",
"276 50 CURVE",
"261 50 OFFCURVE",
"255 62 OFFCURVE",
"255 87 CURVE",
"255 199 LINE SMOOTH",
"255 262 OFFCURVE",
"226 282 OFFCURVE",
"174 282 CURVE",
"110 282 OFFCURVE",
"24 231 OFFCURVE",
"24 196 CURVE",
"24 184 OFFCURVE",
"34 172 OFFCURVE",
"62 172 CURVE",
"86 172 OFFCURVE",
"100 184 OFFCURVE",
"102 202 CURVE",
"106 234 OFFCURVE",
"117 246 OFFCURVE",
"140 246 CURVE",
"159 246 OFFCURVE",
"169 232 OFFCURVE",
"169 210 CURVE",
"169 171 LINE SMOOTH",
"169 166 OFFCURVE",
"167 163 OFFCURVE",
"164 162 CURVE",
"81 136 LINE SMOOTH",
"41 123 OFFCURVE",
"18 97 OFFCURVE",
"18 62 CURVE",
"18 22 OFFCURVE",
"52 -4 OFFCURVE",
"97 -4 CURVE",
"130 -4 OFFCURVE",
"156 12 OFFCURVE",
"187 48 CURVE",
"167 41 LINE",
"185 13 OFFCURVE",
"199 -2 OFFCURVE",
"221 -2 CURVE",
"226 14 LINE",
"175 -2 OFFCURVE",
"126 -50 OFFCURVE",
"126 -87 CURVE",
"126 -119 OFFCURVE",
"154 -136 OFFCURVE",
"178 -136 CURVE"
);
},
{
closed = 1;
nodes = (
"117 46 OFFCURVE",
"104 61 OFFCURVE",
"104 81 CURVE",
"104 99 OFFCURVE",
"114 112 OFFCURVE",
"132 118 CURVE",
"169 131 LINE",
"169 63 LINE",
"169 51 OFFCURVE",
"154 46 OFFCURVE",
"138 46 CURVE"
);
}
);
width = 307;
}
);
unicode = 0105;
},
{
glyphname = ae;
layers = (
{
anchors = (
{
name = bottom;
position = "{212, 0}";
},
{
name = top;
position = "{212, 276}";
}
);
layerId = master01;
paths = (
{
closed = 1;
nodes = (
"151 -4 OFFCURVE",
"193 16 OFFCURVE",
"223 54 CURVE",
"199 54 LINE",
"222 18 OFFCURVE",
"261 -4 OFFCURVE",
"309 -4 CURVE",
"366 -4 OFFCURVE",
"409 26 OFFCURVE",
"424 58 CURVE",
"426 61 OFFCURVE",
"426 66 OFFCURVE",
"426 72 CURVE",
"426 77 OFFCURVE",
"423 81 OFFCURVE",
"420 84 CURVE",
"405 64 OFFCURVE",
"378 55 OFFCURVE",
"352 55 CURVE",
"288 55 OFFCURVE",
"255 91 OFFCURVE",
"255 169 CURVE",
"255 218 OFFCURVE",
"273 246 OFFCURVE",
"303 246 CURVE",
"328 246 OFFCURVE",
"344 219 OFFCURVE",
"344 185 CURVE",
"344 177 OFFCURVE",
"341 173 OFFCURVE",
"335 173 CURVE",
"244 173 LINE",
"243 137 LINE",
"408 137 LINE SMOOTH",
"424 137 OFFCURVE",
"430 143 OFFCURVE",
"430 160 CURVE",
"430 229 OFFCURVE",
"377 282 OFFCURVE",
"306 282 CURVE",
"275 282 OFFCURVE",
"246 271 OFFCURVE",
"223 249 CURVE",
"241 247 LINE",
"233 272 OFFCURVE",
"210 282 OFFCURVE",
"174 282 CURVE",
"110 282 OFFCURVE",
"24 231 OFFCURVE",
"24 196 CURVE",
"24 184 OFFCURVE",
"34 172 OFFCURVE",
"62 172 CURVE",
"86 172 OFFCURVE",
"100 184 OFFCURVE",
"102 202 CURVE",
"106 234 OFFCURVE",
"117 246 OFFCURVE",
"140 246 CURVE",
"159 246 OFFCURVE",
"169 232 OFFCURVE",
"169 210 CURVE",
"169 171 LINE SMOOTH",
"169 166 OFFCURVE",
"167 163 OFFCURVE",
"164 162 CURVE",
"81 136 LINE SMOOTH",
"41 123 OFFCURVE",
"18 97 OFFCURVE",
"18 62 CURVE",
"18 22 OFFCURVE",
"59 -4 OFFCURVE",
"104 -4 CURVE"
);
},
{
closed = 1;
nodes = (
"117 46 OFFCURVE",
"104 61 OFFCURVE",
"104 81 CURVE",
"104 99 OFFCURVE",
"114 112 OFFCURVE",
"132 118 CURVE",
"169 131 LINE",
"169 75 LINE SMOOTH",
"169 52 OFFCURVE",
"154 46 OFFCURVE",
"139 46 CURVE"
);
}
);
width = 442;
}
);
unicode = 00E6;
},
{
glyphname = eth;
layers = (
{
layerId = master01;
paths = (
{
closed = 1;
nodes = (
"252 437 LINE",
"79 331 LINE",
"90 308 LINE",
"264 415 LINE"
);
},
{
closed = 1;
nodes = (
"77 282 OFFCURVE",
"15 218 OFFCURVE",
"15 139 CURVE",
"15 60 OFFCURVE",
"80 -4 OFFCURVE",
"161 -4 CURVE",
"257 -4 OFFCURVE",
"312 60 OFFCURVE",
"312 170 CURVE",
"312 307 OFFCURVE",
"219 407 OFFCURVE",
"56 437 CURVE",
"52 433 OFFCURVE",
"49 419 OFFCURVE",
"49 406 CURVE",
"124 383 OFFCURVE",
"174 339 OFFCURVE",
"196 273 CURVE",
"188 279 OFFCURVE",
"171 282 OFFCURVE",
"154 282 CURVE"
);
},
{
closed = 1;
nodes = (
"196 246 OFFCURVE",
"217 206 OFFCURVE",
"219 126 CURVE",
"219 67 OFFCURVE",
"204 32 OFFCURVE",
"176 32 CURVE",
"141 32 OFFCURVE",
"109 91 OFFCURVE",
"109 159 CURVE",
"109 214 OFFCURVE",
"126 246 OFFCURVE",
"157 246 CURVE"
);
}
);
width = 328;
}
);
unicode = 00F0;
},
{
glyphname = dcroat;
layers = (
{
layerId = master01;
paths = (
{
closed = 1;
nodes = (
"336 317 LINE",
"341 324 OFFCURVE",
"346 351 OFFCURVE",
"346 358 CURVE",
"346 361 OFFCURVE",
"344 362 OFFCURVE",
"341 362 CURVE",
"126 362 LINE",
"119 356 OFFCURVE",
"117 334 OFFCURVE",
"117 323 CURVE",
"117 319 OFFCURVE",
"118 317 OFFCURVE",
"121 317 CURVE"
);
},
{
closed = 1;
nodes = (
"194 244 OFFCURVE",
"215 229 OFFCURVE",
"215 210 CURVE",
"215 84 LINE SMOOTH",
"215 65 OFFCURVE",
"200 49 OFFCURVE",
"182 49 CURVE",
"138 49 OFFCURVE",
"109 94 OFFCURVE",
"109 151 CURVE",
"109 207 OFFCURVE",
"135 244 OFFCURVE",
"170 244 CURVE"
);
},
{
closed = 1;
nodes = (
"86 281 OFFCURVE",
"15 209 OFFCURVE",
"15 127 CURVE",
"15 56 OFFCURVE",
"71 -4 OFFCURVE",
"135 -4 CURVE",
"158 -4 OFFCURVE",
"187 8 OFFCURVE",
"215 29 CURVE",
"215 6 LINE SMOOTH",
"215 0 OFFCURVE",
"218 -4 OFFCURVE",
"223 -4 CURVE",
"250 1 OFFCURVE",
"315 11 OFFCURVE",
"340 13 CURVE",
"342 13 OFFCURVE",
"344 18 OFFCURVE",
"344 29 CURVE",
"344 34 OFFCURVE",
"343 37 OFFCURVE",
"342 38 CURVE",
"335 38 LINE",
"319 38 OFFCURVE",
"306 42 OFFCURVE",
"304 49 CURVE",
"302 61 OFFCURVE",
"301 76 OFFCURVE",
"301 94 CURVE",
"301 361 LINE SMOOTH",
"301 382 OFFCURVE",
"303 403 OFFCURVE",
"308 426 CURVE",
"306 432 OFFCURVE",
"303 437 OFFCURVE",
"299 437 CURVE",
"298 437 LINE",
"291 435 LINE",
"250 424 OFFCURVE",
"208 416 OFFCURVE",
"170 412 CURVE",
"167 412 OFFCURVE",
"166 408 OFFCURVE",
"166 400 CURVE",
"166 391 OFFCURVE",
"167 386 OFFCURVE",
"170 386 CURVE",
"176 386 LINE SMOOTH",
"198 386 OFFCURVE",
"209 383 OFFCURVE",
"211 376 CURVE",
"213 364 OFFCURVE",
"215 349 OFFCURVE",
"215 331 CURVE",
"215 273 LINE",
"195 279 OFFCURVE",
"182 281 OFFCURVE",
"169 281 CURVE"
);
}
);
width = 350;
}
);
unicode = 0111;
},
{
glyphname = eogonek;
layers = (
{
anchors = (
{
name = top;
position = "{147, 276}";
}
);
layerId = master01;
paths = (
{
closed = 1;
nodes = (
"211 -136 OFFCURVE",
"237 -118 OFFCURVE",
"258 -93 CURVE",
"260 -90 OFFCURVE",
"262 -85 OFFCURVE",
"262 -79 CURVE",
"262 -71 OFFCURVE",
"260 -67 OFFCURVE",
"259 -67 CURVE",
"242 -80 OFFCURVE",
"223 -87 OFFCURVE",
"208 -87 CURVE",
"195 -87 OFFCURVE",
"183 -79 OFFCURVE",
"183 -64 CURVE",
"183 -22 OFFCURVE",
"217 2 OFFCURVE",
"245 23 CURVE",
"261 36 OFFCURVE",
"270 48 OFFCURVE",
"275 58 CURVE",
"276 61 OFFCURVE",
"277 66 OFFCURVE",
"277 72 CURVE",
"277 77 OFFCURVE",
"274 81 OFFCURVE",
"271 84 CURVE",
"256 64 OFFCURVE",
"229 55 OFFCURVE",
"203 55 CURVE",
"139 55 OFFCURVE",
"106 91 OFFCURVE",
"106 169 CURVE",
"106 218 OFFCURVE",
"124 246 OFFCURVE",
"154 246 CURVE",
"179 246 OFFCURVE",
"195 219 OFFCURVE",
"195 185 CURVE",
"195 177 OFFCURVE",
"192 173 OFFCURVE",
"186 173 CURVE",
"95 173 LINE",
"94 137 LINE",
"259 137 LINE SMOOTH",
"275 137 OFFCURVE",
"281 143 OFFCURVE",
"281 160 CURVE",
"281 229 OFFCURVE",
"228 282 OFFCURVE",
"157 282 CURVE",
"85 282 OFFCURVE",
"15 228 OFFCURVE",
"15 136 CURVE",
"15 55 OFFCURVE",
"76 -4 OFFCURVE",
"160 -4 CURVE",
"174 -4 OFFCURVE",
"188 -3 OFFCURVE",
"202 2 CURVE",
"203 8 LINE",
"159 -12 OFFCURVE",
"127 -51 OFFCURVE",
"127 -83 CURVE",
"127 -117 OFFCURVE",
"155 -136 OFFCURVE",
"178 -136 CURVE"
);
}
);
width = 293;
}
);
unicode = 0119;
},
{
glyphname = schwa;
layers = (
{
layerId = master01;
paths = (
{
closed = 1;
nodes = (
"198 104 LINE",
"199 140 LINE",
"34 140 LINE SMOOTH",
"18 140 OFFCURVE",
"12 135 OFFCURVE",
"12 117 CURVE",
"12 45 OFFCURVE",
"68 -4 OFFCURVE",
"139 -4 CURVE",
"211 -4 OFFCURVE",
"278 49 OFFCURVE",
"278 141 CURVE",
"278 222 OFFCURVE",
"215 282 OFFCURVE",
"138 282 CURVE",
"74 282 OFFCURVE",
"34 251 OFFCURVE",
"18 219 CURVE",
"17 216 OFFCURVE",
"16 211 OFFCURVE",
"16 205 CURVE",
"16 200 OFFCURVE",
"19 196 OFFCURVE",
"22 193 CURVE",
"37 213 OFFCURVE",
"64 222 OFFCURVE",
"90 222 CURVE",
"154 222 OFFCURVE",
"187 186 OFFCURVE",
"187 108 CURVE",
"187 59 OFFCURVE",
"169 31 OFFCURVE",
"139 31 CURVE",
"114 31 OFFCURVE",
"98 58 OFFCURVE",
"98 92 CURVE",
"98 100 OFFCURVE",
"101 104 OFFCURVE",
"107 104 CURVE"
);
}
);
width = 293;
}
);
},
{
glyphname = idotless;
layers = (
{
anchors = (
{
name = bottom;
position = "{99, 0}";
},
{
name = ogonek;
position = "{162, 6}";
},
{
name = top;
position = "{99, 276}";
}
);
layerId = master01;
paths = (
{
closed = 1;
nodes = (
"17 -2 OFFCURVE",
"78 3 OFFCURVE",
"99 3 CURVE",
"120 3 OFFCURVE",
"180 -2 OFFCURVE",
"187 -3 CURVE",
"188 -1 OFFCURVE",
"188 3 OFFCURVE",
"188 7 CURVE",
"188 14 OFFCURVE",
"187 21 OFFCURVE",
"186 21 CURVE",
"177 21 OFFCURVE",
"148 33 OFFCURVE",
"147 37 CURVE",
"143 46 OFFCURVE",
"142 62 OFFCURVE",
"142 95 CURVE",
"142 174 LINE SMOOTH",
"142 216 OFFCURVE",
"148 256 OFFCURVE",
"148 271 CURVE",
"148 275 OFFCURVE",
"144 279 OFFCURVE",
"140 279 CURVE",
"135 279 OFFCURVE",
"130 278 OFFCURVE",
"126 277 CURVE",
"103 270 OFFCURVE",
"46 257 OFFCURVE",
"16 254 CURVE",
"14 255 OFFCURVE",
"12 245 OFFCURVE",
"12 231 CURVE",
"25 229 OFFCURVE",
"37 224 OFFCURVE",
"45 216 CURVE",
"52 208 OFFCURVE",
"56 192 OFFCURVE",
"56 167 CURVE",
"56 86 LINE SMOOTH",
"56 64 OFFCURVE",
"55 49 OFFCURVE",
"52 37 CURVE",
"50 32 OFFCURVE",
"22 21 OFFCURVE",
"11 21 CURVE",
"9 21 OFFCURVE",
"8 19 OFFCURVE",
"8 11 CURVE",
"8 3 OFFCURVE",
"9 -1 OFFCURVE",
"11 -3 CURVE"
);
}
);
width = 196;
}
);
},
{
glyphname = iogonek;
layers = (
{
anchors = (
{
name = top;
position = "{99, 276}";
}
);
components = (
{
name = dotaccentcomb.i;
transform = "{1, 0, 0, 1, 4, 6}";
}
);
layerId = master01;
paths = (
{
closed = 1;
nodes = (
"124 -136 OFFCURVE",
"157 -110 OFFCURVE",
"171 -93 CURVE",
"174 -90 OFFCURVE",
"175 -85 OFFCURVE",
"175 -79 CURVE",
"175 -71 OFFCURVE",
"174 -67 OFFCURVE",
"172 -67 CURVE",
"162 -75 OFFCURVE",
"137 -87 OFFCURVE",
"122 -87 CURVE",
"108 -87 OFFCURVE",
"96 -81 OFFCURVE",
"96 -68 CURVE",
"96 -45 OFFCURVE",
"114 -21 OFFCURVE",
"187 -1 CURVE",
"188 0 OFFCURVE",
"188 3 OFFCURVE",
"188 7 CURVE",
"188 14 OFFCURVE",
"187 21 OFFCURVE",
"186 21 CURVE",
"177 21 OFFCURVE",
"148 33 OFFCURVE",
"147 37 CURVE",
"143 46 OFFCURVE",
"142 62 OFFCURVE",
"142 95 CURVE",
"142 174 LINE SMOOTH",
"142 216 OFFCURVE",
"148 256 OFFCURVE",
"148 271 CURVE",
"148 275 OFFCURVE",
"144 279 OFFCURVE",
"140 279 CURVE",
"135 279 OFFCURVE",
"130 278 OFFCURVE",
"126 277 CURVE",
"103 270 OFFCURVE",
"46 257 OFFCURVE",
"16 254 CURVE",
"14 255 OFFCURVE",
"12 245 OFFCURVE",
"12 231 CURVE",
"25 229 OFFCURVE",
"37 224 OFFCURVE",
"45 216 CURVE",
"52 208 OFFCURVE",
"56 192 OFFCURVE",
"56 167 CURVE",
"56 86 LINE SMOOTH",
"56 64 OFFCURVE",
"55 49 OFFCURVE",
"52 37 CURVE",
"50 32 OFFCURVE",
"22 21 OFFCURVE",
"11 21 CURVE",
"9 21 OFFCURVE",
"8 19 OFFCURVE",
"8 11 CURVE",
"8 3 OFFCURVE",
"9 -1 OFFCURVE",
"11 -3 CURVE",
"17 -2 OFFCURVE",
"78 3 OFFCURVE",
"99 3 CURVE",
"105 3 OFFCURVE",
"116 2 OFFCURVE",
"128 2 CURVE",
"79 -12 OFFCURVE",
"41 -55 OFFCURVE",
"41 -87 CURVE",
"41 -119 OFFCURVE",
"69 -136 OFFCURVE",
"93 -136 CURVE"
);
}
);
width = 196;
}
);
unicode = 012F;
},
{
glyphname = jdotless;
layers = (
{
anchors = (
{
name = top;
position = "{93, 276}";
}
);
layerId = master01;
paths = (
{
closed = 1;
nodes = (
"51 45 LINE SMOOTH",
"51 -57 OFFCURVE",
"29 -99 OFFCURVE",
"-21 -121 CURVE",
"-21 -128 OFFCURVE",
"-16 -142 OFFCURVE",
"-10 -144 CURVE",
"108 -102 OFFCURVE",
"137 -55 OFFCURVE",
"137 64 CURVE",
"137 174 LINE SMOOTH",
"137 216 OFFCURVE",
"142 256 OFFCURVE",
"142 271 CURVE",
"142 275 OFFCURVE",
"138 279 OFFCURVE",
"134 279 CURVE",
"130 279 OFFCURVE",
"122 277 OFFCURVE",
"120 277 CURVE",
"97 270 OFFCURVE",
"40 257 OFFCURVE",
"10 254 CURVE",
"8 255 OFFCURVE",
"7 245 OFFCURVE",
"7 231 CURVE",
"19 229 OFFCURVE",
"31 224 OFFCURVE",
"39 216 CURVE",
"47 208 OFFCURVE",
"51 192 OFFCURVE",
"51 167 CURVE"
);
}
);
width = 185;
}
);
},
{
glyphname = kgreenlandic;
layers = (
{
anchors = (
{
name = bottom;
position = "{199, 0}";
},
{
name = top;
position = "{199, 276}";
}
);
layerId = master01;
paths = (
{
closed = 1;
nodes = (
"15 -2 OFFCURVE",
"76 3 OFFCURVE",
"98 3 CURVE",
"118 3 OFFCURVE",
"171 -2 OFFCURVE",
"178 -3 CURVE",
"178 -1 OFFCURVE",
"179 3 OFFCURVE",
"179 7 CURVE",
"179 14 OFFCURVE",
"178 21 OFFCURVE",
"177 21 CURVE",
"170 22 OFFCURVE",
"146 33 OFFCURVE",
"145 37 CURVE",
"143 46 OFFCURVE",
"141 62 OFFCURVE",
"141 95 CURVE",
"141 127 LINE",
"149 129 LINE",
"223 36 LINE SMOOTH",
"225 34 OFFCURVE",
"226 32 OFFCURVE",
"226 29 CURVE",
"226 25 OFFCURVE",
"212 21 OFFCURVE",
"200 21 CURVE",
"198 21 OFFCURVE",
"197 18 OFFCURVE",
"197 11 CURVE",
"197 4 OFFCURVE",
"198 -1 OFFCURVE",
"199 -3 CURVE",
"234 -1 OFFCURVE",
"276 2 OFFCURVE",
"288 2 CURVE",
"296 2 OFFCURVE",
"323 1 OFFCURVE",
"370 -2 CURVE",
"371 0 OFFCURVE",
"371 3 OFFCURVE",
"371 9 CURVE",
"371 18 OFFCURVE",
"370 21 OFFCURVE",
"368 21 CURVE",
"345 24 OFFCURVE",
"331 34 OFFCURVE",
"317 51 CURVE",
"216 172 LINE",
"196 146 LINE",
"263 209 LINE SMOOTH",
"286 232 OFFCURVE",
"314 246 OFFCURVE",
"343 246 CURVE",
"344 253 OFFCURVE",
"344 254 OFFCURVE",
"344 257 CURVE",
"344 262 OFFCURVE",
"343 270 OFFCURVE",
"341 272 CURVE",
"321 271 OFFCURVE",
"302 270 OFFCURVE",
"276 270 CURVE",
"258 270 OFFCURVE",
"234 270 OFFCURVE",
"202 271 CURVE",
"200 270 OFFCURVE",
"199 267 OFFCURVE",
"199 261 CURVE",
"199 255 OFFCURVE",
"200 250 OFFCURVE",
"200 247 CURVE",
"226 245 OFFCURVE",
"229 242 OFFCURVE",
"229 237 CURVE",
"229 230 OFFCURVE",
"226 225 OFFCURVE",
"219 219 CURVE",
"163 165 LINE SMOOTH",
"160 162 OFFCURVE",
"153 160 OFFCURVE",
"141 156 CURVE",
"141 174 LINE SMOOTH",
"141 216 OFFCURVE",
"147 256 OFFCURVE",
"147 271 CURVE",
"147 275 OFFCURVE",
"143 279 OFFCURVE",
"139 279 CURVE",
"134 279 OFFCURVE",
"129 278 OFFCURVE",
"125 277 CURVE",
"102 270 OFFCURVE",
"44 254 OFFCURVE",
"14 254 CURVE",
"12 255 OFFCURVE",
"11 245 OFFCURVE",
"11 231 CURVE",
"23 229 OFFCURVE",
"36 224 OFFCURVE",
"43 216 CURVE",
"51 208 OFFCURVE",
"55 192 OFFCURVE",
"55 167 CURVE",
"55 86 LINE SMOOTH",
"55 64 OFFCURVE",
"54 49 OFFCURVE",
"51 37 CURVE",
"49 32 OFFCURVE",
"20 21 OFFCURVE",
"9 21 CURVE",
"7 21 OFFCURVE",
"7 19 OFFCURVE",
"7 11 CURVE",
"7 3 OFFCURVE",
"7 -1 OFFCURVE",
"10 -3 CURVE"
);
}
);
width = 365;
}
);
unicode = 0138;
},
{
glyphname = eng;
layers = (
{
layerId = master01;
paths = (
{
closed = 1;
nodes = (
"196 281 OFFCURVE",
"168 261 OFFCURVE",
"140 235 CURVE",
"141 252 OFFCURVE",
"144 264 OFFCURVE",
"144 272 CURVE",
"144 276 OFFCURVE",
"141 279 OFFCURVE",
"137 279 CURVE",
"133 279 OFFCURVE",
"128 278 OFFCURVE",
"123 277 CURVE",
"100 269 OFFCURVE",
"44 257 OFFCURVE",
"14 254 CURVE",
"12 255 OFFCURVE",
"11 245 OFFCURVE",
"11 231 CURVE",
"23 229 OFFCURVE",
"36 224 OFFCURVE",
"43 216 CURVE",
"51 208 OFFCURVE",
"55 192 OFFCURVE",
"55 167 CURVE",
"55 86 LINE SMOOTH",
"55 64 OFFCURVE",
"54 49 OFFCURVE",
"51 37 CURVE",
"49 32 OFFCURVE",
"20 21 OFFCURVE",
"9 21 CURVE",
"7 21 OFFCURVE",
"7 19 OFFCURVE",
"7 11 CURVE",
"7 3 OFFCURVE",
"7 -1 OFFCURVE",
"10 -3 CURVE",
"15 -2 OFFCURVE",
"76 3 OFFCURVE",
"98 3 CURVE",
"118 3 OFFCURVE",
"174 -2 OFFCURVE",
"181 -3 CURVE",
"181 -1 OFFCURVE",
"182 3 OFFCURVE",
"182 7 CURVE",
"182 14 OFFCURVE",
"181 21 OFFCURVE",
"179 21 CURVE",
"171 21 OFFCURVE",
"146 33 OFFCURVE",
"145 37 CURVE",
"142 46 OFFCURVE",
"141 62 OFFCURVE",
"141 95 CURVE",
"141 183 LINE SMOOTH",
"141 208 OFFCURVE",
"161 225 OFFCURVE",
"187 225 CURVE",
"212 225 OFFCURVE",
"233 207 OFFCURVE",
"233 152 CURVE",
"233 45 LINE SMOOTH",
"233 -57 OFFCURVE",
"212 -99 OFFCURVE",
"162 -121 CURVE",
"161 -128 OFFCURVE",
"167 -142 OFFCURVE",
"172 -144 CURVE",
"291 -102 OFFCURVE",
"319 -55 OFFCURVE",
"319 64 CURVE",
"319 152 LINE SMOOTH",
"319 251 OFFCURVE",
"280 281 OFFCURVE",
"232 281 CURVE"
);
}
);
width = 367;
}
);
unicode = 014B;
},
{
glyphname = ohorn;
layers = (
{
anchors = (
{
name = bottom;
position = "{165, 0}";
},
{
name = top;
position = "{165, 276}";
}
);
layerId = master01;
paths = (
{
closed = 1;
nodes = (
"251 237 LINE",
"287 233 OFFCURVE",
"317 257 OFFCURVE",
"317 288 CURVE",
"317 303 OFFCURVE",
"308 326 OFFCURVE",
"284 326 CURVE",
"268 326 OFFCURVE",
"254 318 OFFCURVE",
"254 300 CURVE",
"254 290 OFFCURVE",
"265 277 OFFCURVE",
"265 272 CURVE",
"265 265 OFFCURVE",
"262 262 OFFCURVE",
"253 262 CURVE",
"230 262 OFFCURVE",
"211 282 OFFCURVE",
"162 282 CURVE",
"79 282 OFFCURVE",
"15 220 OFFCURVE",
"15 139 CURVE",
"15 56 OFFCURVE",
"78 -4 OFFCURVE",
"166 -4 CURVE",
"250 -4 OFFCURVE",
"313 56 OFFCURVE",
"313 139 CURVE",
"313 183 OFFCURVE",
"291 223 OFFCURVE",
"257 250 CURVE"
);
},
{
closed = 1;
nodes = (
"139 32 OFFCURVE",
"109 89 OFFCURVE",
"109 151 CURVE",
"109 215 OFFCURVE",
"124 245 OFFCURVE",
"153 245 CURVE",
"187 245 OFFCURVE",
"220 190 OFFCURVE",
"220 129 CURVE",
"220 65 OFFCURVE",
"205 32 OFFCURVE",
"176 32 CURVE"
);
}
);
width = 329;
}
);
unicode = 01A1;
},
{
glyphname = oogonek;
layers = (
{
anchors = (
{
name = center;
position = "{165, 136}";
},
{
name = top;
position = "{165, 276}";
},
{
name = topright;
position = "{317, 271}";
}
);
layerId = master01;
paths = (
{
closed = 1;
nodes = (
"187 -136 OFFCURVE",
"220 -110 OFFCURVE",
"234 -93 CURVE",
"237 -90 OFFCURVE",
"238 -85 OFFCURVE",
"238 -79 CURVE",
"238 -71 OFFCURVE",
"237 -67 OFFCURVE",
"235 -67 CURVE",
"225 -75 OFFCURVE",
"200 -87 OFFCURVE",
"185 -87 CURVE",
"171 -87 OFFCURVE",
"159 -81 OFFCURVE",
"159 -68 CURVE",
"159 -43 OFFCURVE",
"185 -12 OFFCURVE",
"236 12 CURVE",
"278 31 OFFCURVE",
"313 77 OFFCURVE",
"313 139 CURVE",
"313 217 OFFCURVE",
"246 282 OFFCURVE",
"162 282 CURVE",
"79 282 OFFCURVE",
"15 220 OFFCURVE",
"15 139 CURVE",
"15 56 OFFCURVE",
"78 -4 OFFCURVE",
"166 -4 CURVE",
"174 -4 OFFCURVE",
"181 -4 OFFCURVE",
"190 -3 CURVE",
"191 2 LINE",
"151 -8 OFFCURVE",
"104 -54 OFFCURVE",
"104 -87 CURVE",
"104 -119 OFFCURVE",
"132 -136 OFFCURVE",
"156 -136 CURVE"
);
},
{
closed = 1;
nodes = (
"139 32 OFFCURVE",
"109 89 OFFCURVE",
"109 151 CURVE",
"109 215 OFFCURVE",
"124 245 OFFCURVE",
"153 245 CURVE",
"187 245 OFFCURVE",
"220 190 OFFCURVE",
"220 129 CURVE",
"220 65 OFFCURVE",
"205 32 OFFCURVE",
"176 32 CURVE"
);
}
);
width = 329;
}
);
},
{
glyphname = oe;
layers = (
{
anchors = (
{
name = bottom;
position = "{266, 0}";
},
{
name = top;
position = "{266, 276}";
}
);
layerId = master01;
paths = (
{
closed = 1;
nodes = (
"213 -4 OFFCURVE",
"252 18 OFFCURVE",
"276 54 CURVE",
"254 54 LINE",
"279 17 OFFCURVE",
"320 -4 OFFCURVE",
"367 -4 CURVE",
"425 -4 OFFCURVE",
"467 26 OFFCURVE",
"482 58 CURVE",
"484 61 OFFCURVE",
"484 66 OFFCURVE",
"484 72 CURVE",
"484 77 OFFCURVE",
"482 81 OFFCURVE",
"479 84 CURVE",
"464 64 OFFCURVE",
"436 55 OFFCURVE",
"410 55 CURVE",
"346 55 OFFCURVE",
"313 91 OFFCURVE",
"313 169 CURVE",
"313 218 OFFCURVE",
"332 246 OFFCURVE",
"361 246 CURVE",
"386 246 OFFCURVE",
"403 219 OFFCURVE",
"403 185 CURVE",
"403 177 OFFCURVE",
"399 173 OFFCURVE",
"394 173 CURVE",
"306 173 LINE",
"305 137 LINE",
"467 137 LINE SMOOTH",
"483 137 OFFCURVE",
"488 143 OFFCURVE",
"488 160 CURVE",
"488 229 OFFCURVE",
"435 282 OFFCURVE",
"364 282 CURVE",
"322 282 OFFCURVE",
"279 259 OFFCURVE",
"252 220 CURVE",
"276 222 LINE",
"251 257 OFFCURVE",
"210 282 OFFCURVE",
"162 282 CURVE",
"79 282 OFFCURVE",
"15 220 OFFCURVE",
"15 139 CURVE",
"15 56 OFFCURVE",
"78 -4 OFFCURVE",
"166 -4 CURVE"
);
},
{
closed = 1;
nodes = (
"139 32 OFFCURVE",
"109 89 OFFCURVE",
"109 151 CURVE",
"109 215 OFFCURVE",
"124 245 OFFCURVE",
"153 245 CURVE",
"187 245 OFFCURVE",
"220 190 OFFCURVE",
"220 129 CURVE",
"220 65 OFFCURVE",
"205 32 OFFCURVE",
"176 32 CURVE"
);
}
);
width = 500;
}
);
unicode = 0153;
},
{
glyphname = thorn;
layers = (
{
layerId = master01;
paths = (
{
closed = 1;
nodes = (
"22 -135 OFFCURVE",
"69 -131 OFFCURVE",
"97 -131 CURVE",
"124 -131 OFFCURVE",
"171 -135 OFFCURVE",
"185 -136 CURVE",
"186 -135 OFFCURVE",
"186 -131 OFFCURVE",
"186 -126 CURVE",
"186 -119 OFFCURVE",
"185 -112 OFFCURVE",
"184 -112 CURVE",
"176 -112 OFFCURVE",
"146 -102 OFFCURVE",
"144 -96 CURVE",
"140 -85 OFFCURVE",
"140 -66 OFFCURVE",
"140 -39 CURVE",
"140 3 LINE",
"150 -2 OFFCURVE",
"178 -5 OFFCURVE",
"189 -5 CURVE",
"266 -5 OFFCURVE",
"340 66 OFFCURVE",
"340 141 CURVE",
"340 221 OFFCURVE",
"278 281 OFFCURVE",
"204 281 CURVE",
"186 281 OFFCURVE",
"166 277 OFFCURVE",
"140 258 CURVE",
"140 361 LINE SMOOTH",
"140 384 OFFCURVE",
"142 406 OFFCURVE",
"147 426 CURVE",
"145 432 OFFCURVE",
"142 437 OFFCURVE",
"138 437 CURVE",
"91 424 OFFCURVE",
"51 416 OFFCURVE",
"12 412 CURVE",
"9 412 OFFCURVE",
"8 408 OFFCURVE",
"8 400 CURVE",
"8 391 OFFCURVE",
"9 386 OFFCURVE",
"12 386 CURVE",
"17 386 LINE SMOOTH",
"37 386 OFFCURVE",
"48 383 OFFCURVE",
"50 376 CURVE",
"52 364 OFFCURVE",
"54 348 OFFCURVE",
"54 331 CURVE",
"54 -48 LINE SMOOTH",
"54 -68 OFFCURVE",
"52 -84 OFFCURVE",
"49 -96 CURVE",
"47 -102 OFFCURVE",
"18 -112 OFFCURVE",
"8 -112 CURVE",
"6 -112 OFFCURVE",
"6 -116 OFFCURVE",
"6 -123 CURVE",
"6 -131 OFFCURVE",
"6 -134 OFFCURVE",
"8 -136 CURVE"
);
},
{
closed = 1;
nodes = (
"160 30 OFFCURVE",
"140 50 OFFCURVE",
"140 76 CURVE",
"140 210 LINE SMOOTH",
"140 223 OFFCURVE",
"148 234 OFFCURVE",
"168 234 CURVE",
"213 234 OFFCURVE",
"245 185 OFFCURVE",
"245 120 CURVE",
"245 56 OFFCURVE",
"223 30 OFFCURVE",
"186 30 CURVE"
);
}
);
width = 355;
}
);
unicode = 00FE;
},
{
glyphname = germandbls;
layers = (
{
layerId = master01;
paths = (
{
closed = 1;
nodes = (
"311 -4 OFFCURVE",
"366 39 OFFCURVE",
"366 89 CURVE",
"366 162 OFFCURVE",
"255 196 OFFCURVE",
"255 233 CURVE",
"255 253 OFFCURVE",
"261 265 OFFCURVE",
"288 286 CURVE",
"305 300 OFFCURVE",
"325 316 OFFCURVE",
"325 355 CURVE",
"325 404 OFFCURVE",
"268 437 OFFCURVE",
"207 437 CURVE",
"123 437 OFFCURVE",
"55 376 OFFCURVE",
"55 283 CURVE",
"55 268 LINE",
"26 268 LINE SMOOTH",
"23 268 OFFCURVE",
"17 244 OFFCURVE",
"17 235 CURVE",
"17 233 OFFCURVE",
"17 232 OFFCURVE",
"18 232 CURVE",
"55 232 LINE",
"55 84 LINE",
"55 62 OFFCURVE",
"54 52 OFFCURVE",
"51 37 CURVE",
"49 32 OFFCURVE",
"19 21 OFFCURVE",
"9 21 CURVE",
"7 21 OFFCURVE",
"7 16 OFFCURVE",
"7 11 CURVE",
"7 5 OFFCURVE",
"8 -1 OFFCURVE",
"9 -3 CURVE",
"17 -2 OFFCURVE",
"77 3 OFFCURVE",
"98 3 CURVE",
"118 3 OFFCURVE",
"169 -2 OFFCURVE",
"176 -3 CURVE",
"177 -1 OFFCURVE",
"178 3 OFFCURVE",
"178 7 CURVE",
"178 13 OFFCURVE",
"176 21 OFFCURVE",
"175 21 CURVE",
"168 21 OFFCURVE",
"146 32 OFFCURVE",
"145 37 CURVE",
"142 53 OFFCURVE",
"141 68 OFFCURVE",
"141 88 CURVE",
"141 297 LINE SMOOTH",
"141 376 OFFCURVE",
"161 402 OFFCURVE",
"198 402 CURVE",
"232 402 OFFCURVE",
"246 383 OFFCURVE",
"246 345 CURVE",
"246 315 OFFCURVE",
"237 296 OFFCURVE",
"224 283 CURVE",
"200 256 OFFCURVE",
"179 236 OFFCURVE",
"179 203 CURVE",
"179 123 OFFCURVE",
"288 119 OFFCURVE",
"288 56 CURVE",
"288 43 OFFCURVE",
"279 30 OFFCURVE",
"268 30 CURVE",
"239 30 OFFCURVE",
"247 78 OFFCURVE",
"210 78 CURVE",
"189 78 OFFCURVE",
"176 66 OFFCURVE",
"176 47 CURVE",
"176 18 OFFCURVE",
"208 -4 OFFCURVE",
"260 -4 CURVE"
);
}
);
width = 376;
}
);
unicode = 00DF;
},
{
glyphname = longs;
layers = (
{
layerId = master01;
paths = (
{
closed = 1;
nodes = (
"125 437 OFFCURVE",
"55 361 OFFCURVE",
"55 286 CURVE",
"55 271 LINE",
"33 271 LINE SMOOTH",
"22 271 OFFCURVE",
"7 251 OFFCURVE",
"7 236 CURVE",
"7 233 OFFCURVE",
"7 232 OFFCURVE",
"9 232 CURVE",
"55 232 LINE",
"55 84 LINE SMOOTH",
"55 65 OFFCURVE",
"54 49 OFFCURVE",
"51 37 CURVE",
"50 32 OFFCURVE",
"20 21 OFFCURVE",
"9 21 CURVE",
"7 21 OFFCURVE",
"7 18 OFFCURVE",
"7 11 CURVE",
"7 4 OFFCURVE",
"7 -1 OFFCURVE",
"9 -3 CURVE",
"34 -1 OFFCURVE",
"87 3 OFFCURVE",
"98 3 CURVE",
"119 3 OFFCURVE",
"184 -2 OFFCURVE",
"190 -3 CURVE",
"190 -1 OFFCURVE",
"191 4 OFFCURVE",
"191 7 CURVE",
"191 14 OFFCURVE",
"190 21 OFFCURVE",
"188 21 CURVE",
"178 21 OFFCURVE",
"146 33 OFFCURVE",
"145 37 CURVE",
"142 48 OFFCURVE",
"141 67 OFFCURVE",
"141 95 CURVE",
"141 298 LINE SMOOTH",
"141 366 OFFCURVE",
"156 408 OFFCURVE",
"181 408 CURVE",
"207 408 OFFCURVE",
"206 353 OFFCURVE",
"239 353 CURVE",
"258 353 OFFCURVE",
"271 367 OFFCURVE",
"271 385 CURVE",
"271 415 OFFCURVE",
"240 437 OFFCURVE",
"196 437 CURVE"
);
}
);
width = 197;
}
);
unicode = 017F;
},
{
glyphname = uhorn;
layers = (
{
anchors = (
{
name = bottom;
position = "{183, 0}";
},
{
name = top;
position = "{183, 276}";
}
);
layerId = master01;
paths = (
{
closed = 1;
nodes = (
"381 303 OFFCURVE",
"372 326 OFFCURVE",
"348 326 CURVE",
"332 326 OFFCURVE",
"318 318 OFFCURVE",
"318 300 CURVE",
"318 290 OFFCURVE",
"330 277 OFFCURVE",
"330 272 CURVE",
"330 255 OFFCURVE",
"254 254 OFFCURVE",
"190 254 CURVE",
"188 255 OFFCURVE",
"187 245 OFFCURVE",
"187 231 CURVE",
"199 229 OFFCURVE",
"211 224 OFFCURVE",
"219 216 CURVE",
"227 208 OFFCURVE",
"231 192 OFFCURVE",
"231 167 CURVE",
"231 94 LINE SMOOTH",
"231 68 OFFCURVE",
"209 52 OFFCURVE",
"182 52 CURVE",
"157 52 OFFCURVE",
"137 70 OFFCURVE",
"137 111 CURVE",
"137 174 LINE SMOOTH",
"137 216 OFFCURVE",
"143 256 OFFCURVE",
"143 271 CURVE",
"143 275 OFFCURVE",
"138 279 OFFCURVE",
"134 279 CURVE",
"130 279 OFFCURVE",
"125 278 OFFCURVE",
"120 277 CURVE",
"98 270 OFFCURVE",
"40 257 OFFCURVE",
"10 254 CURVE",
"8 255 OFFCURVE",
"7 245 OFFCURVE",
"7 231 CURVE",
"19 229 OFFCURVE",
"31 224 OFFCURVE",
"39 216 CURVE",
"47 208 OFFCURVE",
"51 192 OFFCURVE",
"51 167 CURVE",
"51 111 LINE SMOOTH",
"51 26 OFFCURVE",
"88 -4 OFFCURVE",
"138 -4 CURVE",
"173 -4 OFFCURVE",
"203 15 OFFCURVE",
"231 41 CURVE",
"230 24 OFFCURVE",
"227 13 OFFCURVE",
"227 4 CURVE",
"227 0 OFFCURVE",
"230 -3 OFFCURVE",
"234 -3 CURVE",
"239 -3 OFFCURVE",
"244 -1 OFFCURVE",
"248 0 CURVE",
"271 6 OFFCURVE",
"327 23 OFFCURVE",
"357 22 CURVE",
"359 22 OFFCURVE",
"360 31 OFFCURVE",
"360 45 CURVE",
"348 48 OFFCURVE",
"336 52 OFFCURVE",
"328 60 CURVE",
"320 69 OFFCURVE",
"317 85 OFFCURVE",
"317 109 CURVE",
"316 237 LINE",
"297 226 LINE",
"355 227 OFFCURVE",
"381 258 OFFCURVE",
"381 288 CURVE"
);
}
);
width = 370;
}
);
unicode = 01B0;
},
{
glyphname = uogonek;
layers = (
{
anchors = (
{
name = top;
position = "{183, 276}";
}
);
layerId = master01;
paths = (
{
closed = 1;
nodes = (
"347 -75 OFFCURVE",
"322 -87 OFFCURVE",
"307 -87 CURVE",
"293 -87 OFFCURVE",
"281 -80 OFFCURVE",
"281 -63 CURVE",
"281 -39 OFFCURVE",
"301 -16 OFFCURVE",
"357 22 CURVE",
"359 22 OFFCURVE",
"360 31 OFFCURVE",
"360 45 CURVE",
"348 48 OFFCURVE",
"336 52 OFFCURVE",
"328 60 CURVE",
"320 69 OFFCURVE",
"317 85 OFFCURVE",
"317 109 CURVE",
"317 174 LINE SMOOTH",
"317 216 OFFCURVE",
"322 256 OFFCURVE",
"322 271 CURVE",
"322 275 OFFCURVE",
"318 279 OFFCURVE",
"314 279 CURVE",
"310 279 OFFCURVE",
"305 278 OFFCURVE",
"300 277 CURVE",
"277 270 OFFCURVE",
"220 254 OFFCURVE",
"190 254 CURVE",
"188 255 OFFCURVE",
"187 245 OFFCURVE",
"187 231 CURVE",
"199 229 OFFCURVE",
"211 224 OFFCURVE",
"219 216 CURVE",
"227 208 OFFCURVE",
"231 192 OFFCURVE",
"231 167 CURVE",
"231 94 LINE SMOOTH",
"231 68 OFFCURVE",
"209 52 OFFCURVE",
"182 52 CURVE",
"157 52 OFFCURVE",
"137 70 OFFCURVE",
"137 111 CURVE",
"137 174 LINE SMOOTH",
"137 216 OFFCURVE",
"143 256 OFFCURVE",
"143 271 CURVE",
"143 275 OFFCURVE",
"138 279 OFFCURVE",
"134 279 CURVE",
"130 279 OFFCURVE",
"125 278 OFFCURVE",
"120 277 CURVE",
"98 270 OFFCURVE",
"40 257 OFFCURVE",
"10 254 CURVE",
"8 255 OFFCURVE",
"7 245 OFFCURVE",
"7 231 CURVE",
"19 229 OFFCURVE",
"31 224 OFFCURVE",
"39 216 CURVE",
"47 208 OFFCURVE",
"51 192 OFFCURVE",
"51 167 CURVE",
"51 111 LINE SMOOTH",
"51 26 OFFCURVE",
"88 -4 OFFCURVE",
"138 -4 CURVE",
"173 -4 OFFCURVE",
"203 15 OFFCURVE",
"231 41 CURVE",
"230 24 OFFCURVE",
"227 13 OFFCURVE",
"227 4 CURVE",
"227 0 OFFCURVE",
"230 -3 OFFCURVE",
"234 -3 CURVE",
"239 -3 OFFCURVE",
"244 -1 OFFCURVE",
"248 0 CURVE",
"271 6 OFFCURVE",
"318 17 OFFCURVE",
"312 17 CURVE",
"318 23 LINE",
"278 7 OFFCURVE",
"226 -40 OFFCURVE",
"226 -83 CURVE",
"226 -117 OFFCURVE",
"254 -136 OFFCURVE",
"278 -136 CURVE",
"309 -136 OFFCURVE",
"342 -110 OFFCURVE",
"356 -93 CURVE",
"359 -90 OFFCURVE",
"360 -85 OFFCURVE",
"360 -79 CURVE",
"360 -71 OFFCURVE",
"359 -67 OFFCURVE",
"357 -67 CURVE"
);
}
);
width = 370;
}
);
unicode = 0173;
},
{
glyphname = iogonek.dotless;
layers = (
{
layerId = master01;
paths = (
{
closed = 1;
nodes = (
"124 -136 OFFCURVE",
"157 -110 OFFCURVE",
"171 -93 CURVE",
"174 -90 OFFCURVE",
"175 -85 OFFCURVE",
"175 -79 CURVE",
"175 -71 OFFCURVE",
"174 -67 OFFCURVE",
"172 -67 CURVE",
"162 -75 OFFCURVE",
"137 -87 OFFCURVE",
"122 -87 CURVE",
"108 -87 OFFCURVE",
"96 -81 OFFCURVE",
"96 -68 CURVE",
"96 -45 OFFCURVE",
"114 -21 OFFCURVE",
"187 -1 CURVE",
"188 0 OFFCURVE",
"188 3 OFFCURVE",
"188 7 CURVE",
"188 14 OFFCURVE",
"187 21 OFFCURVE",
"186 21 CURVE",
"177 21 OFFCURVE",
"148 33 OFFCURVE",
"147 37 CURVE",
"143 46 OFFCURVE",
"142 62 OFFCURVE",
"142 95 CURVE",
"142 174 LINE SMOOTH",
"142 216 OFFCURVE",
"148 256 OFFCURVE",
"148 271 CURVE",
"148 275 OFFCURVE",
"144 279 OFFCURVE",
"140 279 CURVE",
"135 279 OFFCURVE",
"130 278 OFFCURVE",
"126 277 CURVE",
"103 270 OFFCURVE",
"46 257 OFFCURVE",
"16 254 CURVE",
"14 255 OFFCURVE",
"12 245 OFFCURVE",
"12 231 CURVE",
"25 229 OFFCURVE",
"37 224 OFFCURVE",
"45 216 CURVE",
"52 208 OFFCURVE",
"56 192 OFFCURVE",
"56 167 CURVE",
"56 86 LINE SMOOTH",
"56 64 OFFCURVE",
"55 49 OFFCURVE",
"52 37 CURVE",
"50 32 OFFCURVE",
"22 21 OFFCURVE",
"11 21 CURVE",
"9 21 OFFCURVE",
"8 19 OFFCURVE",
"8 11 CURVE",
"8 3 OFFCURVE",
"9 -1 OFFCURVE",
"11 -3 CURVE",
"17 -2 OFFCURVE",
"78 3 OFFCURVE",
"99 3 CURVE",
"105 3 OFFCURVE",
"116 2 OFFCURVE",
"128 2 CURVE",
"79 -12 OFFCURVE",
"41 -55 OFFCURVE",
"41 -87 CURVE",
"41 -119 OFFCURVE",
"69 -136 OFFCURVE",
"93 -136 CURVE"
);
}
);
width = 196;
}
);
},
{
glyphname = f.short;
layers = (
{
layerId = master01;
paths = (
{
closed = 1;
nodes = (
"34 -1 OFFCURVE",
"87 3 OFFCURVE",
"98 3 CURVE",
"119 3 OFFCURVE",
"184 -2 OFFCURVE",
"190 -3 CURVE",
"190 -1 OFFCURVE",
"191 4 OFFCURVE",
"191 7 CURVE",
"191 14 OFFCURVE",
"190 21 OFFCURVE",
"188 21 CURVE",
"178 21 OFFCURVE",
"146 33 OFFCURVE",
"145 37 CURVE",
"142 48 OFFCURVE",
"141 67 OFFCURVE",
"141 95 CURVE",
"141 237 LINE",
"140 256 LINE",
"140 298 LINE SMOOTH",
"140 366 OFFCURVE",
"144 404 OFFCURVE",
"162 404 CURVE",
"181 404 OFFCURVE",
"181 352 OFFCURVE",
"215 352 CURVE",
"229 352 OFFCURVE",
"244 363 OFFCURVE",
"244 384 CURVE",
"244 415 OFFCURVE",
"223 437 OFFCURVE",
"178 437 CURVE",
"110 437 OFFCURVE",
"55 361 OFFCURVE",
"55 286 CURVE",
"55 84 LINE SMOOTH",
"55 65 OFFCURVE",
"54 49 OFFCURVE",
"51 37 CURVE",
"50 32 OFFCURVE",
"20 21 OFFCURVE",
"9 21 CURVE",
"7 21 OFFCURVE",
"7 18 OFFCURVE",
"7 11 CURVE",
"7 4 OFFCURVE",
"7 -1 OFFCURVE",
"9 -3 CURVE"
);
},
{
closed = 1;
nodes = (
"211 232 LINE",
"216 242 OFFCURVE",
"219 254 OFFCURVE",
"219 267 CURVE",
"219 270 OFFCURVE",
"217 271 OFFCURVE",
"215 271 CURVE",
"33 271 LINE SMOOTH",
"22 271 OFFCURVE",
"7 251 OFFCURVE",
"7 236 CURVE",
"7 233 OFFCURVE",
"7 232 OFFCURVE",
"9 232 CURVE"
);
}
);
width = 199;
}
);
},
{
glyphname = T_h;
layers = (
{
layerId = master01;
paths = (
{
closed = 1;
nodes = (
"131 -1 OFFCURVE",
"184 3 OFFCURVE",
"208 3 CURVE",
"242 3 OFFCURVE",
"280 -1 OFFCURVE",
"310 -3 CURVE",
"311 0 OFFCURVE",
"311 4 OFFCURVE",
"311 9 CURVE",
"311 17 OFFCURVE",
"311 21 OFFCURVE",
"309 21 CURVE",
"287 21 OFFCURVE",
"259 33 OFFCURVE",
"258 37 CURVE",
"255 50 OFFCURVE",
"253 67 OFFCURVE",
"253 87 CURVE",
"253 314 LINE SMOOTH",
"253 339 OFFCURVE",
"254 360 OFFCURVE",
"258 372 CURVE",
"259 380 OFFCURVE",
"283 381 OFFCURVE",
"316 381 CURVE",
"346 381 OFFCURVE",
"381 361 OFFCURVE",
"381 311 CURVE",
"381 86 LINE SMOOTH",
"381 66 OFFCURVE",
"380 50 OFFCURVE",
"377 37 CURVE",
"375 32 OFFCURVE",
"345 21 OFFCURVE",
"336 21 CURVE",
"334 21 OFFCURVE",
"333 18 OFFCURVE",
"333 11 CURVE",
"333 4 OFFCURVE",
"334 -1 OFFCURVE",
"336 -3 CURVE",
"341 -2 OFFCURVE",
"402 3 OFFCURVE",
"424 3 CURVE",
"443 3 OFFCURVE",
"499 -2 OFFCURVE",
"507 -3 CURVE",
"508 -1 OFFCURVE",
"508 3 OFFCURVE",
"508 7 CURVE",
"508 14 OFFCURVE",
"507 21 OFFCURVE",
"506 21 CURVE",
"497 21 OFFCURVE",
"473 33 OFFCURVE",
"472 37 CURVE",
"469 48 OFFCURVE",
"467 67 OFFCURVE",
"467 95 CURVE",
"467 183 LINE SMOOTH",
"467 208 OFFCURVE",
"489 225 OFFCURVE",
"515 225 CURVE",
"542 225 OFFCURVE",
"564 207 OFFCURVE",
"564 152 CURVE",
"564 86 LINE SMOOTH",
"564 66 OFFCURVE",
"563 50 OFFCURVE",
"559 37 CURVE",
"557 32 OFFCURVE",
"533 21 OFFCURVE",
"524 21 CURVE",
"522 21 OFFCURVE",
"521 18 OFFCURVE",
"521 11 CURVE",
"521 4 OFFCURVE",
"522 -1 OFFCURVE",
"524 -3 CURVE",
"530 -2 OFFCURVE",
"586 3 OFFCURVE",
"607 3 CURVE",
"627 3 OFFCURVE",
"689 -2 OFFCURVE",
"695 -3 CURVE",
"696 -1 OFFCURVE",
"696 3 OFFCURVE",
"696 7 CURVE",
"696 14 OFFCURVE",
"695 21 OFFCURVE",
"694 21 CURVE",
"686 21 OFFCURVE",
"656 32 OFFCURVE",
"654 37 CURVE",
"650 48 OFFCURVE",
"650 67 OFFCURVE",
"650 95 CURVE",
"650 152 LINE SMOOTH",
"650 251 OFFCURVE",
"610 281 OFFCURVE",
"561 281 CURVE",
"525 281 OFFCURVE",
"495 261 OFFCURVE",
"467 235 CURVE",
"467 361 LINE SMOOTH",
"467 384 OFFCURVE",
"470 406 OFFCURVE",
"475 426 CURVE",
"474 430 OFFCURVE",
"470 436 OFFCURVE",
"466 437 CURVE",
"449 433 OFFCURVE",
"385 417 OFFCURVE",
"361 416 CURVE",
"328 414 OFFCURVE",
"246 413 OFFCURVE",
"207 413 CURVE",
"168 413 OFFCURVE",
"102 414 OFFCURVE",
"63 417 CURVE",
"49 417 OFFCURVE",
"35 420 OFFCURVE",
"19 424 CURVE",
"7 320 LINE",
"10 316 OFFCURVE",
"16 315 OFFCURVE",
"26 315 CURVE",
"30 315 OFFCURVE",
"32 316 OFFCURVE",
"32 318 CURVE",
"43 360 OFFCURVE",
"65 381 OFFCURVE",
"99 381 CURVE",
"134 381 OFFCURVE",
"151 381 OFFCURVE",
"155 372 CURVE",
"158 366 OFFCURVE",
"160 344 OFFCURVE",
"160 312 CURVE",
"160 85 LINE SMOOTH",
"160 65 OFFCURVE",
"159 49 OFFCURVE",
"156 37 CURVE",
"154 32 OFFCURVE",
"127 21 OFFCURVE",
"102 21 CURVE",
"101 21 OFFCURVE",
"100 17 OFFCURVE",
"100 8 CURVE",
"100 2 OFFCURVE",
"101 -1 OFFCURVE",
"103 -3 CURVE"
);
}
);
width = 702;
}
);
},
{
glyphname = f_b;
layers = (
{
layerId = master01;
paths = (
{
closed = 1;
nodes = (
"388 281 OFFCURVE",
"368 277 OFFCURVE",
"342 258 CURVE",
"342 361 LINE SMOOTH",
"342 384 OFFCURVE",
"344 406 OFFCURVE",
"349 426 CURVE",
"347 432 OFFCURVE",
"344 437 OFFCURVE",
"340 437 CURVE",
"311 428 OFFCURVE",
"271 420 OFFCURVE",
"260 420 CURVE",
"247 420 OFFCURVE",
"243 437 OFFCURVE",
"196 437 CURVE",
"125 437 OFFCURVE",
"55 361 OFFCURVE",
"55 286 CURVE",
"55 271 LINE",
"33 271 LINE SMOOTH",
"22 271 OFFCURVE",
"7 251 OFFCURVE",
"7 236 CURVE",
"7 233 OFFCURVE",
"7 232 OFFCURVE",
"9 232 CURVE",
"55 232 LINE",
"55 84 LINE SMOOTH",
"55 65 OFFCURVE",
"54 49 OFFCURVE",
"51 37 CURVE",
"50 32 OFFCURVE",
"20 21 OFFCURVE",
"9 21 CURVE",
"7 21 OFFCURVE",
"7 18 OFFCURVE",
"7 11 CURVE",
"7 4 OFFCURVE",
"7 -1 OFFCURVE",
"9 -3 CURVE",
"34 -1 OFFCURVE",
"87 3 OFFCURVE",
"98 3 CURVE",
"119 3 OFFCURVE",
"184 -2 OFFCURVE",
"190 -3 CURVE",
"190 -1 OFFCURVE",
"191 4 OFFCURVE",
"191 7 CURVE",
"191 14 OFFCURVE",
"190 21 OFFCURVE",
"188 21 CURVE",
"178 21 OFFCURVE",
"146 33 OFFCURVE",
"145 37 CURVE",
"142 48 OFFCURVE",
"141 67 OFFCURVE",
"141 95 CURVE",
"141 232 LINE",
"209 232 LINE",
"214 242 OFFCURVE",
"217 254 OFFCURVE",
"217 267 CURVE",
"217 270 OFFCURVE",
"216 271 OFFCURVE",
"214 271 CURVE",
"140 271 LINE",
"140 298 LINE SMOOTH",
"140 366 OFFCURVE",
"156 403 OFFCURVE",
"181 403 CURVE",
"204 403 OFFCURVE",
"256 358 OFFCURVE",
"256 331 CURVE",
"256 80 LINE SMOOTH",
"256 57 OFFCURVE",
"251 13 OFFCURVE",
"251 10 CURVE",
"255 3 OFFCURVE",
"265 -5 OFFCURVE",
"273 -6 CURVE",
"283 -1 OFFCURVE",
"298 7 OFFCURVE",
"310 7 CURVE",
"331 7 OFFCURVE",
"352 -5 OFFCURVE",
"391 -5 CURVE",
"468 -5 OFFCURVE",
"542 66 OFFCURVE",
"542 141 CURVE",
"542 221 OFFCURVE",
"480 281 OFFCURVE",
"406 281 CURVE"
);
},
{
closed = 1;
nodes = (
"362 30 OFFCURVE",
"342 50 OFFCURVE",
"342 76 CURVE",
"342 210 LINE SMOOTH",
"342 223 OFFCURVE",
"350 234 OFFCURVE",
"370 234 CURVE",
"415 234 OFFCURVE",
"447 185 OFFCURVE",
"447 120 CURVE",
"447 56 OFFCURVE",
"425 30 OFFCURVE",
"388 30 CURVE"
);
}
);
width = 557;
}
);
},
{
glyphname = f_f;
layers = (
{
layerId = master01;
paths = (
{
closed = 1;
nodes = (
"34 -1 OFFCURVE",
"87 3 OFFCURVE",
"98 3 CURVE",
"119 3 OFFCURVE",
"184 -2 OFFCURVE",
"190 -3 CURVE",
"190 -1 OFFCURVE",
"191 4 OFFCURVE",
"191 7 CURVE",
"191 14 OFFCURVE",
"190 21 OFFCURVE",
"188 21 CURVE",
"178 21 OFFCURVE",
"146 33 OFFCURVE",
"145 37 CURVE",
"142 48 OFFCURVE",
"141 67 OFFCURVE",
"141 95 CURVE",
"141 237 LINE",
"140 256 LINE",
"140 298 LINE SMOOTH",
"140 366 OFFCURVE",
"162 405 OFFCURVE",
"196 405 CURVE",
"212 405 OFFCURVE",
"244 386 OFFCURVE",
"269 335 CURVE",
"307 391 LINE",
"275 426 OFFCURVE",
"252 437 OFFCURVE",
"208 437 CURVE",
"131 437 OFFCURVE",
"55 361 OFFCURVE",
"55 286 CURVE",
"55 84 LINE SMOOTH",
"55 65 OFFCURVE",
"54 49 OFFCURVE",
"51 37 CURVE",
"50 32 OFFCURVE",
"20 21 OFFCURVE",
"9 21 CURVE",
"7 21 OFFCURVE",
"7 18 OFFCURVE",
"7 11 CURVE",
"7 4 OFFCURVE",
"7 -1 OFFCURVE",
"9 -3 CURVE"
);
},
{
closed = 1;
nodes = (
"225 -1 OFFCURVE",
"278 3 OFFCURVE",
"289 3 CURVE",
"310 3 OFFCURVE",
"375 -2 OFFCURVE",
"381 -3 CURVE",
"381 -1 OFFCURVE",
"382 4 OFFCURVE",
"382 7 CURVE",
"382 14 OFFCURVE",
"381 21 OFFCURVE",
"380 21 CURVE",
"369 21 OFFCURVE",
"338 33 OFFCURVE",
"336 37 CURVE",
"333 48 OFFCURVE",
"332 67 OFFCURVE",
"332 95 CURVE",
"332 237 LINE",
"331 256 LINE",
"331 298 LINE SMOOTH",
"331 366 OFFCURVE",
"347 408 OFFCURVE",
"372 408 CURVE",
"398 408 OFFCURVE",
"397 353 OFFCURVE",
"430 353 CURVE",
"449 353 OFFCURVE",
"463 367 OFFCURVE",
"463 385 CURVE",
"463 415 OFFCURVE",
"431 437 OFFCURVE",
"387 437 CURVE",
"316 437 OFFCURVE",
"246 361 OFFCURVE",
"246 286 CURVE",
"246 84 LINE SMOOTH",
"246 65 OFFCURVE",
"245 49 OFFCURVE",
"242 37 CURVE",
"241 32 OFFCURVE",
"212 21 OFFCURVE",
"201 21 CURVE",
"199 21 OFFCURVE",
"198 18 OFFCURVE",
"198 11 CURVE",
"198 4 OFFCURVE",
"199 -1 OFFCURVE",
"201 -3 CURVE"
);
},
{
closed = 1;
nodes = (
"33 271 LINE SMOOTH",
"22 271 OFFCURVE",
"7 251 OFFCURVE",
"7 236 CURVE",
"7 233 OFFCURVE",
"7 232 OFFCURVE",
"9 232 CURVE",
"401 232 LINE",
"406 242 OFFCURVE",
"408 254 OFFCURVE",
"408 267 CURVE",
"408 270 OFFCURVE",
"407 271 OFFCURVE",
"405 271 CURVE"
);
}
);
width = 401;
}
);
},
{
glyphname = f_f_b;
layers = (
{
layerId = master01;
paths = (
{
closed = 1;
nodes = (
"34 -1 OFFCURVE",
"87 3 OFFCURVE",
"98 3 CURVE",
"119 3 OFFCURVE",
"184 -2 OFFCURVE",
"190 -3 CURVE",
"190 -1 OFFCURVE",
"191 4 OFFCURVE",
"191 7 CURVE",
"191 14 OFFCURVE",
"190 21 OFFCURVE",
"188 21 CURVE",
"178 21 OFFCURVE",
"146 33 OFFCURVE",
"145 37 CURVE",
"142 48 OFFCURVE",
"141 67 OFFCURVE",
"141 95 CURVE",
"141 237 LINE",
"140 256 LINE",
"140 298 LINE SMOOTH",
"140 366 OFFCURVE",
"162 405 OFFCURVE",
"196 405 CURVE",
"212 405 OFFCURVE",
"244 386 OFFCURVE",
"269 335 CURVE",
"307 391 LINE",
"275 426 OFFCURVE",
"252 437 OFFCURVE",
"208 437 CURVE",
"131 437 OFFCURVE",
"55 361 OFFCURVE",
"55 286 CURVE",
"55 84 LINE SMOOTH",
"55 65 OFFCURVE",
"54 49 OFFCURVE",
"51 37 CURVE",
"50 32 OFFCURVE",
"20 21 OFFCURVE",
"9 21 CURVE",
"7 21 OFFCURVE",
"7 18 OFFCURVE",
"7 11 CURVE",
"7 4 OFFCURVE",
"7 -1 OFFCURVE",
"9 -3 CURVE"
);
},
{
closed = 1;
nodes = (
"33 271 LINE SMOOTH",
"22 271 OFFCURVE",
"7 251 OFFCURVE",
"7 236 CURVE",
"7 233 OFFCURVE",
"7 232 OFFCURVE",
"9 232 CURVE",
"401 232 LINE",
"406 242 OFFCURVE",
"408 254 OFFCURVE",
"408 267 CURVE",
"408 270 OFFCURVE",
"407 271 OFFCURVE",
"405 271 CURVE"
);
},
{
closed = 1;
nodes = (
"332 232 LINE",
"331 271 LINE",
"331 298 LINE SMOOTH",
"331 366 OFFCURVE",
"347 403 OFFCURVE",
"372 403 CURVE",
"395 403 OFFCURVE",
"447 358 OFFCURVE",
"447 331 CURVE",
"447 80 LINE SMOOTH",
"447 57 OFFCURVE",
"442 13 OFFCURVE",
"442 10 CURVE",
"446 3 OFFCURVE",
"457 -5 OFFCURVE",
"464 -6 CURVE",
"475 -1 OFFCURVE",
"489 7 OFFCURVE",
"501 7 CURVE",
"522 7 OFFCURVE",
"543 -5 OFFCURVE",
"582 -5 CURVE",
"660 -5 OFFCURVE",
"733 66 OFFCURVE",
"733 141 CURVE",
"733 221 OFFCURVE",
"671 281 OFFCURVE",
"597 281 CURVE",
"579 281 OFFCURVE",
"560 277 OFFCURVE",
"533 258 CURVE",
"533 361 LINE SMOOTH",
"533 384 OFFCURVE",
"535 406 OFFCURVE",
"540 426 CURVE",
"539 432 OFFCURVE",
"535 437 OFFCURVE",
"532 437 CURVE",
"501 438 OFFCURVE",
"462 420 OFFCURVE",
"451 420 CURVE",
"438 420 OFFCURVE",
"434 437 OFFCURVE",
"387 437 CURVE",
"316 437 OFFCURVE",
"246 361 OFFCURVE",
"246 286 CURVE",
"246 84 LINE SMOOTH",
"246 65 OFFCURVE",
"245 49 OFFCURVE",
"242 37 CURVE",
"241 32 OFFCURVE",
"212 21 OFFCURVE",
"201 21 CURVE",
"199 21 OFFCURVE",
"198 18 OFFCURVE",
"198 11 CURVE",
"198 4 OFFCURVE",
"199 -1 OFFCURVE",
"201 -3 CURVE",
"225 -1 OFFCURVE",
"278 3 OFFCURVE",
"289 3 CURVE",
"310 3 OFFCURVE",
"375 -2 OFFCURVE",
"381 -3 CURVE",
"381 -1 OFFCURVE",
"382 4 OFFCURVE",
"382 7 CURVE",
"382 14 OFFCURVE",
"381 21 OFFCURVE",
"380 21 CURVE",
"369 21 OFFCURVE",
"338 33 OFFCURVE",
"336 37 CURVE",
"333 48 OFFCURVE",
"332 67 OFFCURVE",
"332 95 CURVE"
);
},
{
closed = 1;
nodes = (
"553 30 OFFCURVE",
"533 50 OFFCURVE",
"533 76 CURVE",
"533 210 LINE SMOOTH",
"533 223 OFFCURVE",
"541 234 OFFCURVE",
"561 234 CURVE",
"606 234 OFFCURVE",
"638 185 OFFCURVE",
"638 120 CURVE",
"638 56 OFFCURVE",
"616 30 OFFCURVE",
"579 30 CURVE"
);
}
);
width = 748;
}
);
},
{
glyphname = f_f_h;
layers = (
{
layerId = master01;
paths = (
{
closed = 1;
nodes = (
"225 -1 OFFCURVE",
"278 3 OFFCURVE",
"289 3 CURVE",
"310 3 OFFCURVE",
"375 -2 OFFCURVE",
"381 -3 CURVE",
"381 -1 OFFCURVE",
"382 4 OFFCURVE",
"382 7 CURVE",
"382 14 OFFCURVE",
"381 21 OFFCURVE",
"380 21 CURVE",
"369 21 OFFCURVE",
"338 33 OFFCURVE",
"336 37 CURVE",
"333 48 OFFCURVE",
"332 67 OFFCURVE",
"332 95 CURVE",
"332 232 LINE",
"331 272 LINE",
"331 298 LINE SMOOTH",
"331 366 OFFCURVE",
"347 403 OFFCURVE",
"372 403 CURVE",
"395 403 OFFCURVE",
"447 358 OFFCURVE",
"447 331 CURVE",
"447 86 LINE SMOOTH",
"447 66 OFFCURVE",
"446 50 OFFCURVE",
"443 37 CURVE",
"441 32 OFFCURVE",
"411 21 OFFCURVE",
"401 21 CURVE",
"399 21 OFFCURVE",
"399 18 OFFCURVE",
"399 11 CURVE",
"399 4 OFFCURVE",
"399 -1 OFFCURVE",
"402 -3 CURVE",
"407 -2 OFFCURVE",
"467 3 OFFCURVE",
"490 3 CURVE",
"509 3 OFFCURVE",
"564 -2 OFFCURVE",
"573 -3 CURVE",
"573 -1 OFFCURVE",
"574 3 OFFCURVE",
"574 7 CURVE",
"574 14 OFFCURVE",
"573 21 OFFCURVE",
"571 21 CURVE",
"562 21 OFFCURVE",
"538 33 OFFCURVE",
"537 37 CURVE",
"534 48 OFFCURVE",
"533 67 OFFCURVE",
"533 95 CURVE",
"532 183 LINE SMOOTH",
"532 208 OFFCURVE",
"555 225 OFFCURVE",
"581 225 CURVE",
"608 225 OFFCURVE",
"629 207 OFFCURVE",
"629 152 CURVE",
"629 86 LINE SMOOTH",
"629 66 OFFCURVE",
"628 50 OFFCURVE",
"625 37 CURVE",
"623 32 OFFCURVE",
"598 21 OFFCURVE",
"589 21 CURVE",
"587 21 OFFCURVE",
"587 18 OFFCURVE",
"587 11 CURVE",
"587 4 OFFCURVE",
"587 -1 OFFCURVE",
"589 -3 CURVE",
"596 -2 OFFCURVE",
"651 3 OFFCURVE",
"672 3 CURVE",
"692 3 OFFCURVE",
"755 -2 OFFCURVE",
"761 -3 CURVE",
"761 -1 OFFCURVE",
"762 3 OFFCURVE",
"762 7 CURVE",
"762 14 OFFCURVE",
"761 21 OFFCURVE",
"759 21 CURVE",
"752 21 OFFCURVE",
"721 32 OFFCURVE",
"720 37 CURVE",
"716 48 OFFCURVE",
"715 67 OFFCURVE",
"715 95 CURVE",
"715 152 LINE SMOOTH",
"715 251 OFFCURVE",
"676 281 OFFCURVE",
"626 281 CURVE",
"590 281 OFFCURVE",
"560 261 OFFCURVE",
"533 235 CURVE",
"533 361 LINE SMOOTH",
"533 384 OFFCURVE",
"535 406 OFFCURVE",
"540 426 CURVE",
"539 432 OFFCURVE",
"535 437 OFFCURVE",
"532 437 CURVE",
"501 438 OFFCURVE",
"462 420 OFFCURVE",
"451 420 CURVE",
"438 420 OFFCURVE",
"434 437 OFFCURVE",
"387 437 CURVE",
"316 437 OFFCURVE",
"246 361 OFFCURVE",
"246 286 CURVE",
"246 84 LINE SMOOTH",
"246 65 OFFCURVE",
"245 49 OFFCURVE",
"242 37 CURVE",
"241 32 OFFCURVE",
"212 21 OFFCURVE",
"201 21 CURVE",
"199 21 OFFCURVE",
"198 18 OFFCURVE",
"198 11 CURVE",
"198 4 OFFCURVE",
"199 -1 OFFCURVE",
"201 -3 CURVE"
);
},
{
closed = 1;
nodes = (
"34 -1 OFFCURVE",
"87 3 OFFCURVE",
"98 3 CURVE",
"119 3 OFFCURVE",
"184 -2 OFFCURVE",
"190 -3 CURVE",
"190 -1 OFFCURVE",
"191 4 OFFCURVE",
"191 7 CURVE",
"191 14 OFFCURVE",
"190 21 OFFCURVE",
"188 21 CURVE",
"178 21 OFFCURVE",
"146 33 OFFCURVE",
"145 37 CURVE",
"142 48 OFFCURVE",
"141 67 OFFCURVE",
"141 95 CURVE",
"141 237 LINE",
"140 256 LINE",
"140 298 LINE SMOOTH",
"140 366 OFFCURVE",
"162 405 OFFCURVE",
"196 405 CURVE",
"212 405 OFFCURVE",
"244 386 OFFCURVE",
"269 335 CURVE",
"307 391 LINE",
"275 426 OFFCURVE",
"252 437 OFFCURVE",
"208 437 CURVE",
"131 437 OFFCURVE",
"55 361 OFFCURVE",
"55 286 CURVE",
"55 84 LINE SMOOTH",
"55 65 OFFCURVE",
"54 49 OFFCURVE",
"51 37 CURVE",
"50 32 OFFCURVE",
"20 21 OFFCURVE",
"9 21 CURVE",
"7 21 OFFCURVE",
"7 18 OFFCURVE",
"7 11 CURVE",
"7 4 OFFCURVE",
"7 -1 OFFCURVE",
"9 -3 CURVE"
);
},
{
closed = 1;
nodes = (
"401 232 LINE",
"406 242 OFFCURVE",
"408 254 OFFCURVE",
"408 267 CURVE",
"408 270 OFFCURVE",
"407 271 OFFCURVE",
"405 271 CURVE",
"33 271 LINE SMOOTH",
"22 271 OFFCURVE",
"7 251 OFFCURVE",
"7 236 CURVE",
"7 233 OFFCURVE",
"7 232 OFFCURVE",
"9 232 CURVE"
);
}
);
width = 768;
}
);
},
{
glyphname = f_f_i;
layers = (
{
layerId = master01;
paths = (
{
closed = 1;
nodes = (
"34 -1 OFFCURVE",
"87 3 OFFCURVE",
"98 3 CURVE",
"119 3 OFFCURVE",
"184 -2 OFFCURVE",
"190 -3 CURVE",
"190 -1 OFFCURVE",
"191 4 OFFCURVE",
"191 7 CURVE",
"191 14 OFFCURVE",
"190 21 OFFCURVE",
"188 21 CURVE",
"178 21 OFFCURVE",
"146 33 OFFCURVE",
"145 37 CURVE",
"142 48 OFFCURVE",
"141 67 OFFCURVE",
"141 95 CURVE",
"141 237 LINE",
"140 256 LINE",
"140 298 LINE SMOOTH",
"140 366 OFFCURVE",
"162 405 OFFCURVE",
"196 405 CURVE",
"212 405 OFFCURVE",
"244 386 OFFCURVE",
"269 335 CURVE",
"307 391 LINE",
"275 426 OFFCURVE",
"252 437 OFFCURVE",
"208 437 CURVE",
"131 437 OFFCURVE",
"55 361 OFFCURVE",
"55 286 CURVE",
"55 84 LINE SMOOTH",
"55 65 OFFCURVE",
"54 49 OFFCURVE",
"51 37 CURVE",
"50 32 OFFCURVE",
"20 21 OFFCURVE",
"9 21 CURVE",
"7 21 OFFCURVE",
"7 18 OFFCURVE",
"7 11 CURVE",
"7 4 OFFCURVE",
"7 -1 OFFCURVE",
"9 -3 CURVE"
);
},
{
closed = 1;
nodes = (
"225 -1 OFFCURVE",
"278 3 OFFCURVE",
"289 3 CURVE",
"310 3 OFFCURVE",
"373 -2 OFFCURVE",
"379 -3 CURVE",
"379 -1 OFFCURVE",
"380 4 OFFCURVE",
"380 7 CURVE",
"380 14 OFFCURVE",
"379 21 OFFCURVE",
"378 21 CURVE",
"367 21 OFFCURVE",
"338 33 OFFCURVE",
"336 37 CURVE",
"333 48 OFFCURVE",
"332 67 OFFCURVE",
"332 95 CURVE",
"332 237 LINE",
"331 256 LINE",
"331 305 LINE SMOOTH",
"331 366 OFFCURVE",
"350 404 OFFCURVE",
"390 401 CURVE",
"447 396 OFFCURVE",
"441 333 OFFCURVE",
"492 333 CURVE",
"513 333 OFFCURVE",
"528 348 OFFCURVE",
"528 369 CURVE",
"528 406 OFFCURVE",
"491 437 OFFCURVE",
"414 437 CURVE",
"317 437 OFFCURVE",
"246 361 OFFCURVE",
"246 286 CURVE",
"246 84 LINE SMOOTH",
"246 65 OFFCURVE",
"245 49 OFFCURVE",
"242 37 CURVE",
"241 32 OFFCURVE",
"212 21 OFFCURVE",
"201 21 CURVE",
"199 21 OFFCURVE",
"198 18 OFFCURVE",
"198 11 CURVE",
"198 4 OFFCURVE",
"199 -1 OFFCURVE",
"201 -3 CURVE"
);
},
{
closed = 1;
nodes = (
"558 21 OFFCURVE",
"529 33 OFFCURVE",
"528 37 CURVE",
"524 46 OFFCURVE",
"523 62 OFFCURVE",
"523 95 CURVE",
"523 174 LINE SMOOTH",
"523 216 OFFCURVE",
"529 256 OFFCURVE",
"529 271 CURVE",
"529 275 OFFCURVE",
"525 279 OFFCURVE",
"521 279 CURVE",
"513 279 OFFCURVE",
"495 271 OFFCURVE",
"473 271 CURVE",
"33 271 LINE SMOOTH",
"22 271 OFFCURVE",
"7 251 OFFCURVE",
"7 236 CURVE",
"7 233 OFFCURVE",
"7 232 OFFCURVE",
"9 232 CURVE",
"378 232 LINE SMOOTH",
"424 232 OFFCURVE",
"437 213 OFFCURVE",
"437 167 CURVE",
"437 86 LINE SMOOTH",
"437 64 OFFCURVE",
"436 49 OFFCURVE",
"433 37 CURVE",
"431 32 OFFCURVE",
"405 21 OFFCURVE",
"394 21 CURVE",
"392 21 OFFCURVE",
"391 19 OFFCURVE",
"391 11 CURVE",
"391 3 OFFCURVE",
"392 -1 OFFCURVE",
"394 -3 CURVE",
"400 -2 OFFCURVE",
"459 3 OFFCURVE",
"480 3 CURVE",
"501 3 OFFCURVE",
"561 -2 OFFCURVE",
"568 -3 CURVE",
"569 -1 OFFCURVE",
"569 3 OFFCURVE",
"569 7 CURVE",
"569 14 OFFCURVE",
"568 21 OFFCURVE",
"567 21 CURVE"
);
}
);
width = 577;
}
);
},
{
glyphname = f_f_j;
layers = (
{
layerId = master01;
paths = (
{
closed = 1;
nodes = (
"34 -1 OFFCURVE",
"87 3 OFFCURVE",
"98 3 CURVE",
"119 3 OFFCURVE",
"184 -2 OFFCURVE",
"190 -3 CURVE",
"190 -1 OFFCURVE",
"191 4 OFFCURVE",
"191 7 CURVE",
"191 14 OFFCURVE",
"190 21 OFFCURVE",
"188 21 CURVE",
"178 21 OFFCURVE",
"146 33 OFFCURVE",
"145 37 CURVE",
"142 48 OFFCURVE",
"141 67 OFFCURVE",
"141 95 CURVE",
"141 237 LINE",
"140 256 LINE",
"140 298 LINE SMOOTH",
"140 366 OFFCURVE",
"162 405 OFFCURVE",
"196 405 CURVE",
"212 405 OFFCURVE",
"244 386 OFFCURVE",
"269 335 CURVE",
"307 391 LINE",
"275 426 OFFCURVE",
"252 437 OFFCURVE",
"208 437 CURVE",
"131 437 OFFCURVE",
"55 361 OFFCURVE",
"55 286 CURVE",
"55 84 LINE SMOOTH",
"55 65 OFFCURVE",
"54 49 OFFCURVE",
"51 37 CURVE",
"50 32 OFFCURVE",
"20 21 OFFCURVE",
"9 21 CURVE",
"7 21 OFFCURVE",
"7 18 OFFCURVE",
"7 11 CURVE",
"7 4 OFFCURVE",
"7 -1 OFFCURVE",
"9 -3 CURVE"
);
},
{
closed = 1;
nodes = (
"225 -1 OFFCURVE",
"278 3 OFFCURVE",
"289 3 CURVE",
"310 3 OFFCURVE",
"373 -2 OFFCURVE",
"379 -3 CURVE",
"379 -1 OFFCURVE",
"380 4 OFFCURVE",
"380 7 CURVE",
"380 14 OFFCURVE",
"379 21 OFFCURVE",
"378 21 CURVE",
"367 21 OFFCURVE",
"338 33 OFFCURVE",
"336 37 CURVE",
"333 48 OFFCURVE",
"332 67 OFFCURVE",
"332 95 CURVE",
"332 237 LINE",
"331 256 LINE",
"331 305 LINE SMOOTH",
"331 366 OFFCURVE",
"350 404 OFFCURVE",
"390 401 CURVE",
"447 396 OFFCURVE",
"441 333 OFFCURVE",
"492 333 CURVE",
"513 333 OFFCURVE",
"528 348 OFFCURVE",
"528 369 CURVE",
"528 406 OFFCURVE",
"491 437 OFFCURVE",
"414 437 CURVE",
"317 437 OFFCURVE",
"246 361 OFFCURVE",
"246 286 CURVE",
"246 84 LINE SMOOTH",
"246 65 OFFCURVE",
"245 49 OFFCURVE",
"242 37 CURVE",
"241 32 OFFCURVE",
"212 21 OFFCURVE",
"201 21 CURVE",
"199 21 OFFCURVE",
"198 18 OFFCURVE",
"198 11 CURVE",
"198 4 OFFCURVE",
"199 -1 OFFCURVE",
"201 -3 CURVE"
);
},
{
closed = 1;
nodes = (
"513 279 OFFCURVE",
"496 271 OFFCURVE",
"473 271 CURVE",
"33 271 LINE SMOOTH",
"22 271 OFFCURVE",
"7 251 OFFCURVE",
"7 236 CURVE",
"7 233 OFFCURVE",
"7 232 OFFCURVE",
"9 232 CURVE",
"378 232 LINE SMOOTH",
"425 232 OFFCURVE",
"438 213 OFFCURVE",
"438 167 CURVE",
"438 45 LINE SMOOTH",
"438 -57 OFFCURVE",
"416 -99 OFFCURVE",
"366 -121 CURVE",
"366 -128 OFFCURVE",
"371 -142 OFFCURVE",
"377 -144 CURVE",
"495 -102 OFFCURVE",
"524 -55 OFFCURVE",
"524 64 CURVE",
"524 174 LINE SMOOTH",
"524 216 OFFCURVE",
"530 256 OFFCURVE",
"530 271 CURVE",
"530 275 OFFCURVE",
"525 279 OFFCURVE",
"521 279 CURVE"
);
}
);
width = 572;
}
);
},
{
glyphname = f_f_k;
layers = (
{
layerId = master01;
paths = (
{
closed = 1;
nodes = (
"34 -1 OFFCURVE",
"87 3 OFFCURVE",
"98 3 CURVE",
"119 3 OFFCURVE",
"184 -2 OFFCURVE",
"190 -3 CURVE",
"190 -1 OFFCURVE",
"191 4 OFFCURVE",
"191 7 CURVE",
"191 14 OFFCURVE",
"190 21 OFFCURVE",
"188 21 CURVE",
"178 21 OFFCURVE",
"146 33 OFFCURVE",
"145 37 CURVE",
"142 48 OFFCURVE",
"141 67 OFFCURVE",
"141 95 CURVE",
"141 237 LINE",
"140 256 LINE",
"140 298 LINE SMOOTH",
"140 366 OFFCURVE",
"162 405 OFFCURVE",
"196 405 CURVE",
"212 405 OFFCURVE",
"244 386 OFFCURVE",
"269 335 CURVE",
"307 391 LINE",
"275 426 OFFCURVE",
"252 437 OFFCURVE",
"208 437 CURVE",
"131 437 OFFCURVE",
"55 361 OFFCURVE",
"55 286 CURVE",
"55 84 LINE SMOOTH",
"55 65 OFFCURVE",
"54 49 OFFCURVE",
"51 37 CURVE",
"50 32 OFFCURVE",
"20 21 OFFCURVE",
"9 21 CURVE",
"7 21 OFFCURVE",
"7 18 OFFCURVE",
"7 11 CURVE",
"7 4 OFFCURVE",
"7 -1 OFFCURVE",
"9 -3 CURVE"
);
},
{
closed = 1;
nodes = (
"401 232 LINE",
"406 242 OFFCURVE",
"408 254 OFFCURVE",
"408 267 CURVE",
"408 270 OFFCURVE",
"407 271 OFFCURVE",
"405 271 CURVE",
"33 271 LINE SMOOTH",
"22 271 OFFCURVE",
"7 251 OFFCURVE",
"7 236 CURVE",
"7 233 OFFCURVE",
"7 232 OFFCURVE",
"9 232 CURVE"
);
},
{
closed = 1;
nodes = (
"737 21 OFFCURVE",
"723 34 OFFCURVE",
"709 51 CURVE",
"611 168 LINE",
"655 209 LINE SMOOTH",
"678 232 OFFCURVE",
"706 246 OFFCURVE",
"734 246 CURVE",
"736 246 OFFCURVE",
"736 252 OFFCURVE",
"736 257 CURVE",
"736 263 OFFCURVE",
"735 270 OFFCURVE",
"733 272 CURVE",
"713 271 OFFCURVE",
"694 270 OFFCURVE",
"668 270 CURVE",
"650 270 OFFCURVE",
"626 270 OFFCURVE",
"594 271 CURVE",
"592 270 OFFCURVE",
"591 267 OFFCURVE",
"591 261 CURVE",
"591 255 OFFCURVE",
"592 250 OFFCURVE",
"592 247 CURVE",
"618 245 OFFCURVE",
"621 242 OFFCURVE",
"621 237 CURVE",
"621 230 OFFCURVE",
"618 225 OFFCURVE",
"611 219 CURVE",
"555 165 LINE SMOOTH",
"552 162 OFFCURVE",
"545 160 OFFCURVE",
"533 156 CURVE",
"533 361 LINE SMOOTH",
"533 384 OFFCURVE",
"535 406 OFFCURVE",
"540 426 CURVE",
"539 432 OFFCURVE",
"535 437 OFFCURVE",
"532 437 CURVE",
"501 438 OFFCURVE",
"462 420 OFFCURVE",
"451 420 CURVE",
"438 420 OFFCURVE",
"434 437 OFFCURVE",
"387 437 CURVE",
"316 437 OFFCURVE",
"246 361 OFFCURVE",
"246 286 CURVE",
"246 84 LINE SMOOTH",
"246 65 OFFCURVE",
"245 49 OFFCURVE",
"242 37 CURVE",
"241 32 OFFCURVE",
"212 21 OFFCURVE",
"201 21 CURVE",
"199 21 OFFCURVE",
"198 18 OFFCURVE",
"198 11 CURVE",
"198 4 OFFCURVE",
"199 -1 OFFCURVE",
"201 -3 CURVE",
"225 -1 OFFCURVE",
"278 3 OFFCURVE",
"289 3 CURVE",
"310 3 OFFCURVE",
"375 -2 OFFCURVE",
"381 -3 CURVE",
"381 -1 OFFCURVE",
"382 4 OFFCURVE",
"382 7 CURVE",
"382 14 OFFCURVE",
"381 21 OFFCURVE",
"380 21 CURVE",
"369 21 OFFCURVE",
"338 33 OFFCURVE",
"336 37 CURVE",
"333 48 OFFCURVE",
"332 67 OFFCURVE",
"332 95 CURVE",
"332 231 LINE",
"331 272 LINE",
"331 298 LINE SMOOTH",
"331 366 OFFCURVE",
"347 403 OFFCURVE",
"372 403 CURVE",
"395 403 OFFCURVE",
"447 358 OFFCURVE",
"447 331 CURVE",
"447 86 LINE SMOOTH",
"447 66 OFFCURVE",
"446 50 OFFCURVE",
"443 37 CURVE",
"441 32 OFFCURVE",
"411 21 OFFCURVE",
"401 21 CURVE",
"399 21 OFFCURVE",
"399 18 OFFCURVE",
"399 11 CURVE",
"399 4 OFFCURVE",
"399 -1 OFFCURVE",
"400 -3 CURVE",
"408 -2 OFFCURVE",
"469 3 OFFCURVE",
"490 3 CURVE",
"510 3 OFFCURVE",
"564 -2 OFFCURVE",
"570 -3 CURVE",
"570 -1 OFFCURVE",
"571 3 OFFCURVE",
"571 7 CURVE",
"571 14 OFFCURVE",
"570 21 OFFCURVE",
"569 21 CURVE",
"561 21 OFFCURVE",
"538 33 OFFCURVE",
"537 37 CURVE",
"534 49 OFFCURVE",
"533 68 OFFCURVE",
"533 95 CURVE",
"533 127 LINE",
"541 129 LINE",
"615 36 LINE SMOOTH",
"617 34 OFFCURVE",
"618 32 OFFCURVE",
"618 29 CURVE",
"618 25 OFFCURVE",
"604 21 OFFCURVE",
"592 21 CURVE",
"590 21 OFFCURVE",
"589 18 OFFCURVE",
"589 11 CURVE",
"589 4 OFFCURVE",
"590 -1 OFFCURVE",
"591 -3 CURVE",
"626 -1 OFFCURVE",
"668 2 OFFCURVE",
"680 2 CURVE",
"688 2 OFFCURVE",
"715 1 OFFCURVE",
"762 -2 CURVE",
"763 0 OFFCURVE",
"763 3 OFFCURVE",
"763 9 CURVE",
"763 18 OFFCURVE",
"762 21 OFFCURVE",
"760 21 CURVE"
);
}
);
width = 757;
}
);
},
{
glyphname = f_f_l;
layers = (
{
layerId = master01;
paths = (
{
closed = 1;
nodes = (
"34 -1 OFFCURVE",
"87 3 OFFCURVE",
"98 3 CURVE",
"119 3 OFFCURVE",
"184 -2 OFFCURVE",
"190 -3 CURVE",
"190 -1 OFFCURVE",
"191 4 OFFCURVE",
"191 7 CURVE",
"191 14 OFFCURVE",
"190 21 OFFCURVE",
"188 21 CURVE",
"178 21 OFFCURVE",
"146 33 OFFCURVE",
"145 37 CURVE",
"142 48 OFFCURVE",
"141 67 OFFCURVE",
"141 95 CURVE",
"141 237 LINE",
"140 256 LINE",
"140 298 LINE SMOOTH",
"140 366 OFFCURVE",
"162 405 OFFCURVE",
"196 405 CURVE",
"212 405 OFFCURVE",
"244 386 OFFCURVE",
"269 335 CURVE",
"307 391 LINE",
"275 426 OFFCURVE",
"252 437 OFFCURVE",
"208 437 CURVE",
"131 437 OFFCURVE",
"55 361 OFFCURVE",
"55 286 CURVE",
"55 84 LINE SMOOTH",
"55 65 OFFCURVE",
"54 49 OFFCURVE",
"51 37 CURVE",
"50 32 OFFCURVE",
"20 21 OFFCURVE",
"9 21 CURVE",
"7 21 OFFCURVE",
"7 18 OFFCURVE",
"7 11 CURVE",
"7 4 OFFCURVE",
"7 -1 OFFCURVE",
"9 -3 CURVE"
);
},
{
closed = 1;
nodes = (
"401 232 LINE",
"406 242 OFFCURVE",
"408 254 OFFCURVE",
"408 267 CURVE",
"408 270 OFFCURVE",
"407 271 OFFCURVE",
"405 271 CURVE",
"33 271 LINE SMOOTH",
"22 271 OFFCURVE",
"7 251 OFFCURVE",
"7 236 CURVE",
"7 233 OFFCURVE",
"7 232 OFFCURVE",
"9 232 CURVE"
);
},
{
closed = 1;
nodes = (
"570 21 OFFCURVE",
"540 32 OFFCURVE",
"538 37 CURVE",
"535 49 OFFCURVE",
"533 67 OFFCURVE",
"533 95 CURVE",
"533 361 LINE SMOOTH",
"533 384 OFFCURVE",
"535 406 OFFCURVE",
"540 426 CURVE",
"539 432 OFFCURVE",
"535 437 OFFCURVE",
"532 437 CURVE",
"501 438 OFFCURVE",
"462 420 OFFCURVE",
"451 420 CURVE",
"438 420 OFFCURVE",
"434 437 OFFCURVE",
"387 437 CURVE",
"316 437 OFFCURVE",
"246 361 OFFCURVE",
"246 286 CURVE",
"246 84 LINE SMOOTH",
"246 65 OFFCURVE",
"245 49 OFFCURVE",
"242 37 CURVE",
"241 32 OFFCURVE",
"212 21 OFFCURVE",
"201 21 CURVE",
"199 21 OFFCURVE",
"198 18 OFFCURVE",
"198 11 CURVE",
"198 4 OFFCURVE",
"199 -1 OFFCURVE",
"201 -3 CURVE",
"225 -1 OFFCURVE",
"278 3 OFFCURVE",
"289 3 CURVE",
"310 3 OFFCURVE",
"375 -2 OFFCURVE",
"381 -3 CURVE",
"381 -1 OFFCURVE",
"382 4 OFFCURVE",
"382 7 CURVE",
"382 14 OFFCURVE",
"381 21 OFFCURVE",
"380 21 CURVE",
"369 21 OFFCURVE",
"338 33 OFFCURVE",
"336 37 CURVE",
"333 48 OFFCURVE",
"332 67 OFFCURVE",
"332 95 CURVE",
"332 231 LINE",
"331 271 LINE",
"331 298 LINE SMOOTH",
"331 366 OFFCURVE",
"347 403 OFFCURVE",
"372 403 CURVE",
"395 403 OFFCURVE",
"447 358 OFFCURVE",
"447 331 CURVE",
"447 86 LINE SMOOTH",
"447 66 OFFCURVE",
"446 50 OFFCURVE",
"443 37 CURVE",
"441 32 OFFCURVE",
"411 21 OFFCURVE",
"401 21 CURVE",
"399 21 OFFCURVE",
"399 18 OFFCURVE",
"399 11 CURVE",
"399 4 OFFCURVE",
"399 -1 OFFCURVE",
"402 -3 CURVE",
"422 -1 OFFCURVE",
"469 3 OFFCURVE",
"490 3 CURVE",
"509 3 OFFCURVE",
"557 -1 OFFCURVE",
"579 -3 CURVE",
"580 -1 OFFCURVE",
"580 3 OFFCURVE",
"580 7 CURVE",
"580 14 OFFCURVE",
"579 21 OFFCURVE",
"578 21 CURVE"
);
}
);
width = 582;
}
);
},
{
glyphname = f_h;
layers = (
{
layerId = master01;
paths = (
{
closed = 1;
nodes = (
"209 232 LINE",
"214 242 OFFCURVE",
"217 254 OFFCURVE",
"217 267 CURVE",
"217 270 OFFCURVE",
"216 271 OFFCURVE",
"214 271 CURVE",
"33 271 LINE SMOOTH",
"22 271 OFFCURVE",
"7 251 OFFCURVE",
"7 236 CURVE",
"7 233 OFFCURVE",
"7 232 OFFCURVE",
"9 232 CURVE"
);
},
{
closed = 1;
nodes = (
"34 -1 OFFCURVE",
"87 3 OFFCURVE",
"98 3 CURVE",
"119 3 OFFCURVE",
"184 -2 OFFCURVE",
"190 -3 CURVE",
"190 -1 OFFCURVE",
"191 4 OFFCURVE",
"191 7 CURVE",
"191 14 OFFCURVE",
"190 21 OFFCURVE",
"188 21 CURVE",
"178 21 OFFCURVE",
"146 33 OFFCURVE",
"145 37 CURVE",
"142 48 OFFCURVE",
"141 67 OFFCURVE",
"141 95 CURVE",
"141 232 LINE",
"140 272 LINE",
"140 298 LINE SMOOTH",
"140 366 OFFCURVE",
"156 403 OFFCURVE",
"181 403 CURVE",
"204 403 OFFCURVE",
"256 358 OFFCURVE",
"256 331 CURVE",
"256 86 LINE SMOOTH",
"256 66 OFFCURVE",
"254 50 OFFCURVE",
"251 37 CURVE",
"249 32 OFFCURVE",
"220 21 OFFCURVE",
"210 21 CURVE",
"208 21 OFFCURVE",
"208 18 OFFCURVE",
"208 11 CURVE",
"208 4 OFFCURVE",
"208 -1 OFFCURVE",
"210 -3 CURVE",
"215 -2 OFFCURVE",
"276 3 OFFCURVE",
"299 3 CURVE",
"318 3 OFFCURVE",
"373 -2 OFFCURVE",
"381 -3 CURVE",
"382 -1 OFFCURVE",
"383 3 OFFCURVE",
"383 7 CURVE",
"383 14 OFFCURVE",
"381 21 OFFCURVE",
"380 21 CURVE",
"371 21 OFFCURVE",
"347 33 OFFCURVE",
"346 37 CURVE",
"343 48 OFFCURVE",
"342 67 OFFCURVE",
"342 95 CURVE",
"341 183 LINE SMOOTH",
"341 208 OFFCURVE",
"364 225 OFFCURVE",
"390 225 CURVE",
"416 225 OFFCURVE",
"438 207 OFFCURVE",
"438 152 CURVE",
"438 86 LINE SMOOTH",
"438 66 OFFCURVE",
"437 50 OFFCURVE",
"434 37 CURVE",
"432 32 OFFCURVE",
"407 21 OFFCURVE",
"398 21 CURVE",
"396 21 OFFCURVE",
"395 18 OFFCURVE",
"395 11 CURVE",
"395 4 OFFCURVE",
"396 -1 OFFCURVE",
"398 -3 CURVE",
"404 -2 OFFCURVE",
"460 3 OFFCURVE",
"481 3 CURVE",
"501 3 OFFCURVE",
"563 -2 OFFCURVE",
"569 -3 CURVE",
"570 -1 OFFCURVE",
"571 3 OFFCURVE",
"571 7 CURVE",
"571 14 OFFCURVE",
"569 21 OFFCURVE",
"568 21 CURVE",
"561 21 OFFCURVE",
"530 32 OFFCURVE",
"528 37 CURVE",
"525 48 OFFCURVE",
"524 67 OFFCURVE",
"524 95 CURVE",
"524 152 LINE SMOOTH",
"524 251 OFFCURVE",
"485 281 OFFCURVE",
"435 281 CURVE",
"399 281 OFFCURVE",
"369 261 OFFCURVE",
"342 235 CURVE",
"342 361 LINE SMOOTH",
"342 384 OFFCURVE",
"344 406 OFFCURVE",
"349 426 CURVE",
"347 432 OFFCURVE",
"344 437 OFFCURVE",
"340 437 CURVE",
"310 438 OFFCURVE",
"271 420 OFFCURVE",
"260 420 CURVE",
"247 420 OFFCURVE",
"243 437 OFFCURVE",
"196 437 CURVE",
"125 437 OFFCURVE",
"55 361 OFFCURVE",
"55 286 CURVE",
"55 84 LINE SMOOTH",
"55 65 OFFCURVE",
"54 49 OFFCURVE",
"51 37 CURVE",
"50 32 OFFCURVE",
"20 21 OFFCURVE",
"9 21 CURVE",
"7 21 OFFCURVE",
"7 18 OFFCURVE",
"7 11 CURVE",
"7 4 OFFCURVE",
"7 -1 OFFCURVE",
"9 -3 CURVE"
);
}
);
width = 577;
}
);
},
{
glyphname = f_i;
layers = (
{
layerId = master01;
paths = (
{
closed = 1;
nodes = (
"34 -1 OFFCURVE",
"87 3 OFFCURVE",
"98 3 CURVE",
"119 3 OFFCURVE",
"182 -2 OFFCURVE",
"188 -3 CURVE",
"188 -1 OFFCURVE",
"189 4 OFFCURVE",
"189 7 CURVE",
"189 14 OFFCURVE",
"188 21 OFFCURVE",
"186 21 CURVE",
"176 21 OFFCURVE",
"146 33 OFFCURVE",
"145 37 CURVE",
"142 48 OFFCURVE",
"141 67 OFFCURVE",
"141 95 CURVE",
"141 237 LINE",
"140 256 LINE",
"140 305 LINE SMOOTH",
"140 366 OFFCURVE",
"159 404 OFFCURVE",
"199 401 CURVE",
"256 396 OFFCURVE",
"250 333 OFFCURVE",
"301 333 CURVE",
"322 333 OFFCURVE",
"337 348 OFFCURVE",
"337 369 CURVE",
"337 406 OFFCURVE",
"300 437 OFFCURVE",
"223 437 CURVE",
"126 437 OFFCURVE",
"55 361 OFFCURVE",
"55 286 CURVE",
"55 84 LINE SMOOTH",
"55 65 OFFCURVE",
"54 49 OFFCURVE",
"51 37 CURVE",
"50 32 OFFCURVE",
"20 21 OFFCURVE",
"9 21 CURVE",
"7 21 OFFCURVE",
"7 18 OFFCURVE",
"7 11 CURVE",
"7 4 OFFCURVE",
"7 -1 OFFCURVE",
"9 -3 CURVE"
);
},
{
closed = 1;
nodes = (
"367 21 OFFCURVE",
"338 33 OFFCURVE",
"336 37 CURVE",
"333 46 OFFCURVE",
"332 62 OFFCURVE",
"332 95 CURVE",
"332 174 LINE SMOOTH",
"332 216 OFFCURVE",
"338 256 OFFCURVE",
"338 271 CURVE",
"338 275 OFFCURVE",
"334 279 OFFCURVE",
"330 279 CURVE",
"322 279 OFFCURVE",
"304 271 OFFCURVE",
"282 271 CURVE",
"33 271 LINE SMOOTH",
"22 271 OFFCURVE",
"7 251 OFFCURVE",
"7 236 CURVE",
"7 233 OFFCURVE",
"7 232 OFFCURVE",
"9 232 CURVE",
"187 232 LINE SMOOTH",
"233 232 OFFCURVE",
"246 213 OFFCURVE",
"246 167 CURVE",
"246 86 LINE SMOOTH",
"246 64 OFFCURVE",
"245 49 OFFCURVE",
"242 37 CURVE",
"240 32 OFFCURVE",
"214 21 OFFCURVE",
"203 21 CURVE",
"201 21 OFFCURVE",
"200 19 OFFCURVE",
"200 11 CURVE",
"200 3 OFFCURVE",
"201 -1 OFFCURVE",
"203 -3 CURVE",
"208 -2 OFFCURVE",
"267 3 OFFCURVE",
"289 3 CURVE",
"310 3 OFFCURVE",
"370 -2 OFFCURVE",
"377 -3 CURVE",
"377 -1 OFFCURVE",
"378 3 OFFCURVE",
"378 7 CURVE",
"378 14 OFFCURVE",
"377 21 OFFCURVE",
"375 21 CURVE"
);
}
);
width = 386;
}
);
},
{
glyphname = f_j;
layers = (
{
layerId = master01;
paths = (
{
closed = 1;
nodes = (
"34 -1 OFFCURVE",
"87 3 OFFCURVE",
"98 3 CURVE",
"119 3 OFFCURVE",
"182 -2 OFFCURVE",
"188 -3 CURVE",
"188 -1 OFFCURVE",
"189 4 OFFCURVE",
"189 7 CURVE",
"189 14 OFFCURVE",
"188 21 OFFCURVE",
"186 21 CURVE",
"176 21 OFFCURVE",
"146 33 OFFCURVE",
"145 37 CURVE",
"142 48 OFFCURVE",
"141 67 OFFCURVE",
"141 95 CURVE",
"141 237 LINE",
"140 256 LINE",
"140 305 LINE SMOOTH",
"140 366 OFFCURVE",
"159 404 OFFCURVE",
"199 401 CURVE",
"256 396 OFFCURVE",
"250 333 OFFCURVE",
"301 333 CURVE",
"322 333 OFFCURVE",
"337 348 OFFCURVE",
"337 369 CURVE",
"337 406 OFFCURVE",
"300 437 OFFCURVE",
"223 437 CURVE",
"126 437 OFFCURVE",
"55 361 OFFCURVE",
"55 286 CURVE",
"55 84 LINE SMOOTH",
"55 65 OFFCURVE",
"54 49 OFFCURVE",
"51 37 CURVE",
"50 32 OFFCURVE",
"20 21 OFFCURVE",
"9 21 CURVE",
"7 21 OFFCURVE",
"7 18 OFFCURVE",
"7 11 CURVE",
"7 4 OFFCURVE",
"7 -1 OFFCURVE",
"9 -3 CURVE"
);
},
{
closed = 1;
nodes = (
"322 279 OFFCURVE",
"304 271 OFFCURVE",
"282 271 CURVE",
"33 271 LINE SMOOTH",
"22 271 OFFCURVE",
"7 251 OFFCURVE",
"7 236 CURVE",
"7 233 OFFCURVE",
"7 232 OFFCURVE",
"9 232 CURVE",
"187 232 LINE SMOOTH",
"233 232 OFFCURVE",
"246 213 OFFCURVE",
"246 167 CURVE",
"246 45 LINE SMOOTH",
"246 -57 OFFCURVE",
"225 -99 OFFCURVE",
"174 -121 CURVE",
"174 -128 OFFCURVE",
"179 -142 OFFCURVE",
"185 -144 CURVE",
"304 -102 OFFCURVE",
"332 -55 OFFCURVE",
"332 64 CURVE",
"332 174 LINE SMOOTH",
"332 216 OFFCURVE",
"338 256 OFFCURVE",
"338 271 CURVE",
"338 275 OFFCURVE",
"334 279 OFFCURVE",
"330 279 CURVE"
);
}
);
width = 381;
}
);
},
{
glyphname = f_k;
layers = (
{
anchors = (
{
name = bottom;
position = "{407, 0}";
},
{
name = top;
position = "{407, 413}";
}
);
layerId = master01;
paths = (
{
closed = 1;
nodes = (
"209 232 LINE",
"214 242 OFFCURVE",
"217 254 OFFCURVE",
"217 267 CURVE",
"217 270 OFFCURVE",
"216 271 OFFCURVE",
"214 271 CURVE",
"33 271 LINE SMOOTH",
"22 271 OFFCURVE",
"7 251 OFFCURVE",
"7 236 CURVE",
"7 233 OFFCURVE",
"7 232 OFFCURVE",
"9 232 CURVE"
);
},
{
closed = 1;
nodes = (
"546 21 OFFCURVE",
"532 34 OFFCURVE",
"518 51 CURVE",
"420 168 LINE",
"464 209 LINE SMOOTH",
"487 232 OFFCURVE",
"515 246 OFFCURVE",
"543 246 CURVE",
"544 246 OFFCURVE",
"545 252 OFFCURVE",
"545 257 CURVE",
"545 263 OFFCURVE",
"544 270 OFFCURVE",
"542 272 CURVE",
"522 271 OFFCURVE",
"503 270 OFFCURVE",
"477 270 CURVE",
"459 270 OFFCURVE",
"434 270 OFFCURVE",
"402 271 CURVE",
"401 270 OFFCURVE",
"400 267 OFFCURVE",
"400 261 CURVE",
"400 255 OFFCURVE",
"401 250 OFFCURVE",
"401 247 CURVE",
"427 245 OFFCURVE",
"430 242 OFFCURVE",
"430 237 CURVE",
"430 230 OFFCURVE",
"426 225 OFFCURVE",
"420 219 CURVE",
"364 165 LINE SMOOTH",
"361 162 OFFCURVE",
"354 160 OFFCURVE",
"342 156 CURVE",
"342 361 LINE SMOOTH",
"342 384 OFFCURVE",
"344 406 OFFCURVE",
"349 426 CURVE",
"347 432 OFFCURVE",
"344 437 OFFCURVE",
"340 437 CURVE",
"310 438 OFFCURVE",
"271 420 OFFCURVE",
"260 420 CURVE",
"247 420 OFFCURVE",
"243 437 OFFCURVE",
"196 437 CURVE",
"125 437 OFFCURVE",
"55 361 OFFCURVE",
"55 286 CURVE",
"55 84 LINE SMOOTH",
"55 65 OFFCURVE",
"54 49 OFFCURVE",
"51 37 CURVE",
"50 32 OFFCURVE",
"20 21 OFFCURVE",
"9 21 CURVE",
"7 21 OFFCURVE",
"7 18 OFFCURVE",
"7 11 CURVE",
"7 4 OFFCURVE",
"7 -1 OFFCURVE",
"9 -3 CURVE",
"34 -1 OFFCURVE",
"87 3 OFFCURVE",
"98 3 CURVE",
"119 3 OFFCURVE",
"184 -2 OFFCURVE",
"190 -3 CURVE",
"190 -1 OFFCURVE",
"191 4 OFFCURVE",
"191 7 CURVE",
"191 14 OFFCURVE",
"190 21 OFFCURVE",
"188 21 CURVE",
"178 21 OFFCURVE",
"146 33 OFFCURVE",
"145 37 CURVE",
"142 48 OFFCURVE",
"141 67 OFFCURVE",
"141 95 CURVE",
"141 231 LINE",
"140 272 LINE",
"140 298 LINE SMOOTH",
"140 366 OFFCURVE",
"156 403 OFFCURVE",
"181 403 CURVE",
"204 403 OFFCURVE",
"256 358 OFFCURVE",
"256 331 CURVE",
"256 86 LINE SMOOTH",
"256 66 OFFCURVE",
"254 50 OFFCURVE",
"251 37 CURVE",
"249 32 OFFCURVE",
"220 21 OFFCURVE",
"210 21 CURVE",
"208 21 OFFCURVE",
"208 18 OFFCURVE",
"208 11 CURVE",
"208 4 OFFCURVE",
"208 -1 OFFCURVE",
"209 -3 CURVE",
"217 -2 OFFCURVE",
"278 3 OFFCURVE",
"299 3 CURVE",
"319 3 OFFCURVE",
"373 -2 OFFCURVE",
"379 -3 CURVE",
"379 -1 OFFCURVE",
"380 3 OFFCURVE",
"380 7 CURVE",
"380 14 OFFCURVE",
"379 21 OFFCURVE",
"377 21 CURVE",
"370 21 OFFCURVE",
"347 33 OFFCURVE",
"346 37 CURVE",
"343 49 OFFCURVE",
"342 68 OFFCURVE",
"342 95 CURVE",
"342 127 LINE",
"350 129 LINE",
"424 36 LINE SMOOTH",
"426 34 OFFCURVE",
"427 32 OFFCURVE",
"427 29 CURVE",
"427 25 OFFCURVE",
"412 21 OFFCURVE",
"401 21 CURVE",
"399 21 OFFCURVE",
"398 18 OFFCURVE",
"398 11 CURVE",
"398 4 OFFCURVE",
"399 -1 OFFCURVE",
"400 -3 CURVE",
"434 -1 OFFCURVE",
"477 2 OFFCURVE",
"489 2 CURVE",
"497 2 OFFCURVE",
"524 1 OFFCURVE",
"571 -2 CURVE",
"571 0 OFFCURVE",
"572 3 OFFCURVE",
"572 9 CURVE",
"572 18 OFFCURVE",
"571 21 OFFCURVE",
"569 21 CURVE"
);
}
);
width = 566;
}
);
},
{
glyphname = f_l;
layers = (
{
layerId = master01;
paths = (
{
closed = 1;
nodes = (
"209 232 LINE",
"214 242 OFFCURVE",
"217 254 OFFCURVE",
"217 267 CURVE",
"217 270 OFFCURVE",
"216 271 OFFCURVE",
"214 271 CURVE",
"33 271 LINE SMOOTH",
"22 271 OFFCURVE",
"7 251 OFFCURVE",
"7 236 CURVE",
"7 233 OFFCURVE",
"7 232 OFFCURVE",
"8 232 CURVE"
);
},
{
closed = 1;
nodes = (
"379 21 OFFCURVE",
"349 32 OFFCURVE",
"347 37 CURVE",
"344 49 OFFCURVE",
"342 67 OFFCURVE",
"342 95 CURVE",
"342 361 LINE SMOOTH",
"342 384 OFFCURVE",
"344 406 OFFCURVE",
"349 426 CURVE",
"347 432 OFFCURVE",
"344 437 OFFCURVE",
"340 437 CURVE",
"310 438 OFFCURVE",
"271 420 OFFCURVE",
"260 420 CURVE",
"247 420 OFFCURVE",
"243 437 OFFCURVE",
"196 437 CURVE",
"125 437 OFFCURVE",
"55 361 OFFCURVE",
"55 286 CURVE",
"55 84 LINE SMOOTH",
"55 65 OFFCURVE",
"54 49 OFFCURVE",
"51 37 CURVE",
"50 32 OFFCURVE",
"20 21 OFFCURVE",
"9 21 CURVE",
"7 21 OFFCURVE",
"7 18 OFFCURVE",
"7 11 CURVE",
"7 4 OFFCURVE",
"7 -1 OFFCURVE",
"9 -3 CURVE",
"34 -1 OFFCURVE",
"87 3 OFFCURVE",
"98 3 CURVE",
"119 3 OFFCURVE",
"184 -2 OFFCURVE",
"190 -3 CURVE",
"190 -1 OFFCURVE",
"191 4 OFFCURVE",
"191 7 CURVE",
"191 14 OFFCURVE",
"190 21 OFFCURVE",
"188 21 CURVE",
"178 21 OFFCURVE",
"146 33 OFFCURVE",
"145 37 CURVE",
"142 48 OFFCURVE",
"141 67 OFFCURVE",
"141 95 CURVE",
"141 231 LINE",
"140 271 LINE",
"140 298 LINE SMOOTH",
"140 366 OFFCURVE",
"156 403 OFFCURVE",
"181 403 CURVE",
"204 403 OFFCURVE",
"256 358 OFFCURVE",
"256 331 CURVE",
"256 86 LINE SMOOTH",
"256 66 OFFCURVE",
"255 50 OFFCURVE",
"251 37 CURVE",
"249 32 OFFCURVE",
"220 21 OFFCURVE",
"210 21 CURVE",
"208 21 OFFCURVE",
"208 18 OFFCURVE",
"208 11 CURVE",
"208 4 OFFCURVE",
"208 -1 OFFCURVE",
"210 -3 CURVE",
"231 -1 OFFCURVE",
"278 3 OFFCURVE",
"299 3 CURVE",
"318 3 OFFCURVE",
"366 -1 OFFCURVE",
"388 -3 CURVE",
"388 -1 OFFCURVE",
"389 3 OFFCURVE",
"389 7 CURVE",
"389 14 OFFCURVE",
"388 21 OFFCURVE",
"387 21 CURVE"
);
}
);
width = 391;
}
);
},
{
glyphname = fi;
layers = (
{
layerId = master01;
paths = (
{
closed = 1;
nodes = (
"34 -1 OFFCURVE",
"87 3 OFFCURVE",
"98 3 CURVE",
"119 3 OFFCURVE",
"182 -2 OFFCURVE",
"188 -3 CURVE",
"188 -1 OFFCURVE",
"189 4 OFFCURVE",
"189 7 CURVE",
"189 14 OFFCURVE",
"188 21 OFFCURVE",
"186 21 CURVE",
"176 21 OFFCURVE",
"146 33 OFFCURVE",
"145 37 CURVE",
"142 48 OFFCURVE",
"141 67 OFFCURVE",
"141 95 CURVE",
"141 237 LINE",
"140 256 LINE",
"140 305 LINE SMOOTH",
"140 366 OFFCURVE",
"159 404 OFFCURVE",
"199 401 CURVE",
"256 396 OFFCURVE",
"250 333 OFFCURVE",
"301 333 CURVE",
"322 333 OFFCURVE",
"337 348 OFFCURVE",
"337 369 CURVE",
"337 406 OFFCURVE",
"300 437 OFFCURVE",
"223 437 CURVE",
"126 437 OFFCURVE",
"55 361 OFFCURVE",
"55 286 CURVE",
"55 84 LINE SMOOTH",
"55 65 OFFCURVE",
"54 49 OFFCURVE",
"51 37 CURVE",
"50 32 OFFCURVE",
"20 21 OFFCURVE",
"9 21 CURVE",
"7 21 OFFCURVE",
"7 18 OFFCURVE",
"7 11 CURVE",
"7 4 OFFCURVE",
"7 -1 OFFCURVE",
"9 -3 CURVE"
);
},
{
closed = 1;
nodes = (
"367 21 OFFCURVE",
"338 33 OFFCURVE",
"336 37 CURVE",
"333 46 OFFCURVE",
"332 62 OFFCURVE",
"332 95 CURVE",
"332 174 LINE SMOOTH",
"332 216 OFFCURVE",
"338 256 OFFCURVE",
"338 271 CURVE",
"338 275 OFFCURVE",
"334 279 OFFCURVE",
"330 279 CURVE",
"322 279 OFFCURVE",
"304 271 OFFCURVE",
"282 271 CURVE",
"33 271 LINE SMOOTH",
"22 271 OFFCURVE",
"7 251 OFFCURVE",
"7 236 CURVE",
"7 233 OFFCURVE",
"7 232 OFFCURVE",
"9 232 CURVE",
"187 232 LINE SMOOTH",
"233 232 OFFCURVE",
"246 213 OFFCURVE",
"246 167 CURVE",
"246 86 LINE SMOOTH",
"246 64 OFFCURVE",
"245 49 OFFCURVE",
"242 37 CURVE",
"240 32 OFFCURVE",
"214 21 OFFCURVE",
"203 21 CURVE",
"201 21 OFFCURVE",
"200 19 OFFCURVE",
"200 11 CURVE",
"200 3 OFFCURVE",
"201 -1 OFFCURVE",
"203 -3 CURVE",
"208 -2 OFFCURVE",
"267 3 OFFCURVE",
"289 3 CURVE",
"310 3 OFFCURVE",
"370 -2 OFFCURVE",
"377 -3 CURVE",
"377 -1 OFFCURVE",
"378 3 OFFCURVE",
"378 7 CURVE",
"378 14 OFFCURVE",
"377 21 OFFCURVE",
"375 21 CURVE"
);
}
);
width = 386;
}
);
},
{
glyphname = fl;
layers = (
{
layerId = master01;
paths = (
{
closed = 1;
nodes = (
"209 232 LINE",
"214 242 OFFCURVE",
"217 254 OFFCURVE",
"217 267 CURVE",
"217 270 OFFCURVE",
"216 271 OFFCURVE",
"214 271 CURVE",
"33 271 LINE SMOOTH",
"22 271 OFFCURVE",
"7 251 OFFCURVE",
"7 236 CURVE",
"7 233 OFFCURVE",
"7 232 OFFCURVE",
"8 232 CURVE"
);
},
{
closed = 1;
nodes = (
"379 21 OFFCURVE",
"349 32 OFFCURVE",
"347 37 CURVE",
"344 49 OFFCURVE",
"342 67 OFFCURVE",
"342 95 CURVE",
"342 361 LINE SMOOTH",
"342 384 OFFCURVE",
"344 406 OFFCURVE",
"349 426 CURVE",
"347 432 OFFCURVE",
"344 437 OFFCURVE",
"340 437 CURVE",
"310 438 OFFCURVE",
"271 420 OFFCURVE",
"260 420 CURVE",
"247 420 OFFCURVE",
"243 437 OFFCURVE",
"196 437 CURVE",
"125 437 OFFCURVE",
"55 361 OFFCURVE",
"55 286 CURVE",
"55 84 LINE SMOOTH",
"55 65 OFFCURVE",
"54 49 OFFCURVE",
"51 37 CURVE",
"50 32 OFFCURVE",
"20 21 OFFCURVE",
"9 21 CURVE",
"7 21 OFFCURVE",
"7 18 OFFCURVE",
"7 11 CURVE",
"7 4 OFFCURVE",
"7 -1 OFFCURVE",
"9 -3 CURVE",
"34 -1 OFFCURVE",
"87 3 OFFCURVE",
"98 3 CURVE",
"119 3 OFFCURVE",
"184 -2 OFFCURVE",
"190 -3 CURVE",
"190 -1 OFFCURVE",
"191 4 OFFCURVE",
"191 7 CURVE",
"191 14 OFFCURVE",
"190 21 OFFCURVE",
"188 21 CURVE",
"178 21 OFFCURVE",
"146 33 OFFCURVE",
"145 37 CURVE",
"142 48 OFFCURVE",
"141 67 OFFCURVE",
"141 95 CURVE",
"141 231 LINE",
"140 271 LINE",
"140 298 LINE SMOOTH",
"140 366 OFFCURVE",
"156 403 OFFCURVE",
"181 403 CURVE",
"204 403 OFFCURVE",
"256 358 OFFCURVE",
"256 331 CURVE",
"256 86 LINE SMOOTH",
"256 66 OFFCURVE",
"255 50 OFFCURVE",
"251 37 CURVE",
"249 32 OFFCURVE",
"220 21 OFFCURVE",
"210 21 CURVE",
"208 21 OFFCURVE",
"208 18 OFFCURVE",
"208 11 CURVE",
"208 4 OFFCURVE",
"208 -1 OFFCURVE",
"210 -3 CURVE",
"231 -1 OFFCURVE",
"278 3 OFFCURVE",
"299 3 CURVE",
"318 3 OFFCURVE",
"366 -1 OFFCURVE",
"388 -3 CURVE",
"388 -1 OFFCURVE",
"389 3 OFFCURVE",
"389 7 CURVE",
"389 14 OFFCURVE",
"388 21 OFFCURVE",
"387 21 CURVE"
);
}
);
width = 391;
}
);
},
{
glyphname = b.sc;
layers = (
{
layerId = master01;
paths = (
{
closed = 1;
nodes = (
"208 132 OFFCURVE",
"225 115 OFFCURVE",
"225 79 CURVE",
"225 50 OFFCURVE",
"214 33 OFFCURVE",
"184 33 CURVE",
"165 33 OFFCURVE",
"153 33 OFFCURVE",
"151 35 CURVE",
"149 36 OFFCURVE",
"148 37 OFFCURVE",
"148 37 CURVE",
"148 128 LINE SMOOTH",
"148 129 OFFCURVE",
"149 130 OFFCURVE",
"152 130 CURVE",
"159 132 OFFCURVE",
"166 132 OFFCURVE",
"174 132 CURVE"
);
},
{
closed = 1;
nodes = (
"199 257 OFFCURVE",
"211 241 OFFCURVE",
"211 210 CURVE",
"211 186 OFFCURVE",
"203 178 OFFCURVE",
"192 171 CURVE",
"187 168 OFFCURVE",
"179 167 OFFCURVE",
"168 167 CURVE",
"154 167 OFFCURVE",
"148 168 OFFCURVE",
"148 172 CURVE",
"148 205 OFFCURVE",
"148 215 OFFCURVE",
"148 215 CURVE SMOOTH",
"148 239 OFFCURVE",
"148 251 OFFCURVE",
"148 251 CURVE",
"147 253 OFFCURVE",
"149 255 OFFCURVE",
"151 256 CURVE",
"155 256 OFFCURVE",
"163 257 OFFCURVE",
"175 257 CURVE"
);
},
{
closed = 1;
nodes = (
"181 290 OFFCURVE",
"170 289 OFFCURVE",
"154 289 CURVE",
"140 287 OFFCURVE",
"124 287 OFFCURVE",
"105 287 CURVE",
"106 287 OFFCURVE",
"77 288 OFFCURVE",
"20 290 CURVE",
"18 289 OFFCURVE",
"18 285 OFFCURVE",
"18 279 CURVE",
"18 271 OFFCURVE",
"18 267 OFFCURVE",
"20 267 CURVE",
"30 267 OFFCURVE",
"55 257 OFFCURVE",
"57 251 CURVE",
"61 238 OFFCURVE",
"62 221 OFFCURVE",
"62 203 CURVE",
"62 85 LINE SMOOTH",
"62 67 OFFCURVE",
"61 50 OFFCURVE",
"57 37 CURVE",
"55 31 OFFCURVE",
"29 21 OFFCURVE",
"20 21 CURVE",
"18 21 OFFCURVE",
"18 17 OFFCURVE",
"18 9 CURVE",
"18 3 OFFCURVE",
"18 -1 OFFCURVE",
"20 -3 CURVE",
"32 -2 OFFCURVE",
"82 3 OFFCURVE",
"105 3 CURVE",
"184 0 LINE SMOOTH",
"263 -3 OFFCURVE",
"317 31 OFFCURVE",
"317 82 CURVE",
"317 121 OFFCURVE",
"281 149 OFFCURVE",
"254 152 CURVE",
"254 153 OFFCURVE",
"256 154 OFFCURVE",
"258 155 CURVE",
"275 160 OFFCURVE",
"305 181 OFFCURVE",
"305 211 CURVE",
"305 262 OFFCURVE",
"246 290 OFFCURVE",
"188 290 CURVE"
);
}
);
width = 333;
}
);
},
